<svg xmlns="http://www.w3.org/2000/svg" width="339.254" height="202.253" viewBox="0 0 339.254 202.253">
  <g id="Group_249" data-name="Group 249" transform="translate(-16.369 -37.495)">
    <g id="Background_Simple" data-name="Background Simple" transform="translate(16.369 38.537)">
      <g id="Group_222" data-name="Group 222" transform="translate(0)">
        <path id="Path_557" data-name="Path 557" d="M328.309,224.655A73.654,73.654,0,0,0,355.6,168.129c.192-13.836-.8-31.217-5.45-46.087-15.33-49.056-58.64-75.664-90.324-81.339s-64.314,4.729-88.905,21.28S148.7,75.7,106.608,69.55,30,81.373,18.649,114.476s23.168,51.862,26.953,69.2-2.836,48.077,62.9,55.644S194.094,210,226.725,220.405C252.982,228.777,292.1,253.684,328.309,224.655Z" transform="translate(-16.369 -39.142)" fill="#c7e7ff"/>
      </g>
    </g>
    <g id="Clouds" transform="translate(43.648 37.995)">
      <g id="Group_223" data-name="Group 223" transform="translate(0 17.566)">
        <path id="Path_559" data-name="Path 559" d="M95.848,76.521a5.246,5.246,0,0,0-3.836-1.379C87.5,75.032,88.707,78.227,87.5,79s-1.543-.441-2.755.331-.661,2.314-1.653,2.534-2.314-.992-3.526-.22S78.35,83.075,77.8,83.075s-1.653-.441-2.313,0-1.432.992-1.432.992h11.83" transform="translate(-74.053 -75.139)" fill="none" stroke="#263238" stroke-linecap="round" stroke-linejoin="round" stroke-width="1"/>
        <path id="Path_560" data-name="Path 560" d="M121.939,80.763c-.108-.052-.222-.1-.342-.157a2.974,2.974,0,0,0-.406-1.162" transform="translate(-98.899 -77.408)" fill="none" stroke="#263238" stroke-linecap="round" stroke-linejoin="round" stroke-width="1"/>
        <path id="Path_561" data-name="Path 561" d="M102.273,88.154H116.8a1.423,1.423,0,0,0-.881-1.653c-1.212-.661-1.763-.11-2.2-.661-.393-.49.875-1.68-1.177-2.946" transform="translate(-88.928 -79.227)" fill="none" stroke="#263238" stroke-linecap="round" stroke-linejoin="round" stroke-width="1"/>
      </g>
      <g id="Group_224" data-name="Group 224" transform="translate(136.433 53.054)">
        <path id="Path_562" data-name="Path 562" d="M384.353,151.565a5.25,5.25,0,0,0-3.836-1.379c-4.518-.11-3.306,3.085-4.518,3.857s-1.543-.441-2.755.331-.661,2.313-1.653,2.534-2.313-.991-3.525-.22-1.212,1.432-1.763,1.432-1.653-.441-2.314,0-1.432.992-1.432.992h11.831" transform="translate(-362.557 -150.183)" fill="none" stroke="#263238" stroke-linecap="round" stroke-linejoin="round" stroke-width="1"/>
        <path id="Path_563" data-name="Path 563" d="M410.443,155.807c-.108-.052-.222-.1-.342-.157a2.965,2.965,0,0,0-.406-1.162" transform="translate(-387.403 -152.453)" fill="none" stroke="#263238" stroke-linecap="round" stroke-linejoin="round" stroke-width="1"/>
        <path id="Path_564" data-name="Path 564" d="M390.778,163.2h14.53a1.423,1.423,0,0,0-.881-1.653c-1.212-.661-1.763-.11-2.2-.661-.393-.49.875-1.68-1.177-2.946" transform="translate(-377.432 -154.271)" fill="none" stroke="#263238" stroke-linecap="round" stroke-linejoin="round" stroke-width="1"/>
      </g>
      <g id="Group_225" data-name="Group 225" transform="translate(215.234 2.927)">
        <path id="Path_565" data-name="Path 565" d="M568.474,46.674c-1.2-1.249-3.293-2.4-6.914-2.486-8.142-.2-5.958,5.56-8.142,6.951s-2.781-.794-4.965.6-1.192,4.171-2.979,4.568-4.17-1.787-6.355-.4-2.184,2.582-3.177,2.582-2.979-.794-4.17,0-2.582,1.787-2.582,1.787h21.323" transform="translate(-529.19 -44.183)" fill="none" stroke="#263238" stroke-linecap="round" stroke-linejoin="round" stroke-width="1"/>
        <path id="Path_566" data-name="Path 566" d="M615.5,54.32q-.292-.141-.617-.282a5.351,5.351,0,0,0-.732-2.094" transform="translate(-573.972 -48.274)" fill="none" stroke="#263238" stroke-linecap="round" stroke-linejoin="round" stroke-width="1"/>
        <path id="Path_567" data-name="Path 567" d="M580.054,67.641h26.189s.6-1.787-1.589-2.979-3.177-.2-3.971-1.191c-.708-.884,1.577-3.028-2.121-5.31" transform="translate(-556 -51.551)" fill="none" stroke="#263238" stroke-linecap="round" stroke-linejoin="round" stroke-width="1"/>
      </g>
      <g id="Group_226" data-name="Group 226" transform="translate(42.528)">
        <path id="Path_568" data-name="Path 568" d="M266.481,64.508h28.81s.982-2.945-2.618-4.908-5.235-.327-6.544-1.963,3.6-5.89-6.218-10.144c0,0-.654-9.162-14.071-9.49-5.79-.141-8.411,1.546-9.808,3.694" transform="translate(-212.503 -37.995)" fill="none" stroke="#263238" stroke-linecap="round" stroke-linejoin="round" stroke-width="1"/>
        <line id="Line_47" data-name="Line 47" x2="4.795" transform="translate(45.187 26.514)" fill="none" stroke="#263238" stroke-linecap="round" stroke-linejoin="round" stroke-width="1"/>
        <path id="Path_569" data-name="Path 569" d="M205.767,55.379c-.41,1.4-.854,2.6-1.861,3.24-3.6,2.291-4.581-1.309-8.181.982s-1.963,6.872-4.908,7.526-6.872-2.945-10.471-.654-3.6,4.254-5.235,4.254-4.909-1.309-6.872,0-4.254,2.945-4.254,2.945h36.8" transform="translate(-163.984 -47.158)" fill="none" stroke="#263238" stroke-linecap="round" stroke-linejoin="round" stroke-width="1"/>
      </g>
    </g>
    <g id="Graphics" transform="translate(58.248 44.206)">
      <g id="Group_230" data-name="Group 230" transform="translate(126.966 0)">
        <g id="Group_227" data-name="Group 227" transform="translate(15.624)">
          <path id="Path_570" data-name="Path 570" d="M408.816,64.841a21.71,21.71,0,1,1-.4.988" transform="translate(-406.745 -51.425)" fill="none" stroke="#263238" stroke-miterlimit="10" stroke-width="1"/>
          <path id="Path_571" data-name="Path 571" d="M408.275,64.456a21.965,21.965,0,1,1-.4.988" transform="translate(-406.45 -51.13)" fill="none" stroke="#263238" stroke-miterlimit="10" stroke-width="0.5"/>
        </g>
        <g id="Group_228" data-name="Group 228" transform="translate(21.488 5.864)">
          <path id="Path_572" data-name="Path 572" d="M420.848,73.459a16.16,16.16,0,1,1-.407.984" transform="translate(-419.145 -63.83)" fill="none" stroke="#263238" stroke-miterlimit="10" stroke-width="1"/>
          <path id="Path_573" data-name="Path 573" d="M420.307,73.064a16.265,16.265,0,1,1-1.457,6.729,16.094,16.094,0,0,1,1.05-5.746" transform="translate(-418.85 -63.53)" fill="none" stroke="#263238" stroke-miterlimit="10" stroke-width="0.5"/>
        </g>
        <g id="Group_229" data-name="Group 229" transform="translate(28.956 13.331)">
          <path id="Path_574" data-name="Path 574" d="M436.179,84.443a.036.036,0,0,1,.009-.019,8.431,8.431,0,1,1-.44.969c0-.014.014-.028.019-.043" transform="translate(-434.935 -79.615)" fill="none" stroke="#263238" stroke-miterlimit="10" stroke-width="1"/>
          <path id="Path_575" data-name="Path 575" d="M435.543,84.233l.1-.2h0a8.795,8.795,0,1,1-1.007,4.081,8.708,8.708,0,0,1,.567-3.107" transform="translate(-434.64 -79.32)" fill="none" stroke="#263238" stroke-miterlimit="10" stroke-width="0.5"/>
        </g>
        <path id="Path_576" data-name="Path 576" d="M403.751,73.457c-.024-.009-.047-.014-.071-.024l-.061-.024-.246-.095h0L396.6,70.761l-.246-.095-5.249-1.981-.246-.09L382.4,65.4l.416-3.121a.267.267,0,0,0-.156-.279l-6.687-3a.27.27,0,0,0-.364.331l1.357,4.02-1-.378a.534.534,0,1,0-.378,1l1.04.393-3.121,2.4a.264.264,0,0,0-.095.279.258.258,0,0,0,.218.194l7.5,1.154a.117.117,0,0,0,.038,0,.271.271,0,0,0,.251-.17l.7-1.788,8.332,3.145.246.09,5.244,1.977.246.095,6.739,2.544.246.09.2.076" transform="translate(-373.41 -55.269)" fill="none" stroke="#263238" stroke-miterlimit="10" stroke-width="1"/>
        <path id="Path_577" data-name="Path 577" d="M436.811,89.414c.024,0,.047,0,.071,0s.047.014.071.024l4.819,1.821.53-1.589a.528.528,0,0,1,.5-.364h.009a.532.532,0,0,1,.5.378l.965,3.131a.537.537,0,0,1-.27.634l-2.412,1.2a.527.527,0,0,1-.236.057.532.532,0,0,1-.35-.128.543.543,0,0,1-.156-.572l.577-1.736L436.58,90.44a.477.477,0,0,1-.18-.118" transform="translate(-406.612 -71.255)" fill="none" stroke="#263238" stroke-miterlimit="10" stroke-width="1"/>
      </g>
      <g id="Group_231" data-name="Group 231" transform="translate(0 38.285)">
        <path id="Path_578" data-name="Path 578" d="M127.369,188.187l4.249.97.984-4.311-4.083-.932c0-.122.018-.241.018-.364a9.747,9.747,0,0,0-.772-3.813l3.311-2.641-2.757-3.458-3.167,2.525a9.736,9.736,0,0,0-3.843-2.041V170h-4.423v3.961a9.717,9.717,0,0,0-4.014,1.8l-3.2-2.553-2.757,3.457,3.125,2.493A9.715,9.715,0,0,0,109,183.382l-4.073.93.984,4.311,4.018-.917a9.793,9.793,0,0,0,2.587,3.357l-1.869,3.881,3.985,1.919,1.84-3.821a9.543,9.543,0,0,0,4.148.1l1.906,3.958,3.985-1.919-1.853-3.848A9.8,9.8,0,0,0,127.369,188.187Zm-12.943-4.638a4.339,4.339,0,1,1,4.339,4.339A4.339,4.339,0,0,1,114.426,183.549Z" transform="translate(-104.927 -152.07)" fill="none" stroke="#263238" stroke-linecap="round" stroke-linejoin="round" stroke-width="1"/>
        <path id="Path_579" data-name="Path 579" d="M681.17,287.855l2.88.657.667-2.923-2.767-.632c0-.082.013-.163.013-.247a6.6,6.6,0,0,0-.523-2.584l2.244-1.79-1.869-2.344-2.146,1.711a6.6,6.6,0,0,0-2.6-1.383v-2.795h-3v2.685a6.583,6.583,0,0,0-2.721,1.222l-2.17-1.731-1.869,2.344,2.119,1.69a6.579,6.579,0,0,0-.706,2.861l-2.76.63.667,2.923,2.723-.621A6.645,6.645,0,0,0,671.1,289.8l-1.267,2.63,2.7,1.3,1.247-2.59a6.47,6.47,0,0,0,2.812.068l1.292,2.682,2.7-1.3-1.256-2.608A6.644,6.644,0,0,0,681.17,287.855Zm-8.773-3.144a2.941,2.941,0,1,1,2.941,2.941A2.941,2.941,0,0,1,672.4,284.711Z" transform="translate(-400.647 -207.694)" fill="none" stroke="#263238" stroke-linecap="round" stroke-linejoin="round" stroke-width="1"/>
        <path id="Path_580" data-name="Path 580" d="M149.092,147.009l3.486.8.808-3.537-3.35-.765c0-.1.015-.2.015-.3a7.992,7.992,0,0,0-.634-3.128l2.717-2.166-2.262-2.837-2.6,2.072a7.979,7.979,0,0,0-3.153-1.675v-3.383h-3.629v3.25a7.962,7.962,0,0,0-3.293,1.48l-2.627-2.095-2.262,2.837,2.565,2.045a7.966,7.966,0,0,0-.854,3.464l-3.342.762.807,3.538,3.3-.752a8.046,8.046,0,0,0,2.122,2.754l-1.533,3.184,3.269,1.574,1.509-3.135a7.816,7.816,0,0,0,3.4.083l1.564,3.247,3.269-1.574-1.52-3.157A8.049,8.049,0,0,0,149.092,147.009Zm-10.619-3.8a3.56,3.56,0,1,1,3.56,3.56A3.56,3.56,0,0,1,138.473,143.2Z" transform="translate(-118.501 -132.087)" fill="none" stroke="#263238" stroke-linecap="round" stroke-linejoin="round" stroke-width="1"/>
      </g>
      <path id="Path_581" data-name="Path 581" d="M650.8,210.832l16.87-34.071,5.062,2.507-1.2-18.822L655.83,170.9l5.062,2.506-16.87,34.071" transform="translate(-389.084 -108.75)" fill="none" stroke="#263238" stroke-linecap="round" stroke-linejoin="round" stroke-width="1"/>
      <path id="Path_582" data-name="Path 582" d="M636.2,122.2l10.632-21.472,3.19,1.58-.759-11.862-9.894,6.587,3.19,1.579-10.632,21.472" transform="translate(-382.709 -71.853)" fill="none" stroke="#263238" stroke-linecap="round" stroke-linejoin="round" stroke-width="1"/>
    </g>
    <g id="Character_3" data-name="Character 3" transform="translate(267.382 102.522)">
      <g id="Group_235" data-name="Group 235">
        <path id="Path_583" data-name="Path 583" d="M562.518,418.766s-2.934,1.877-3.521,2.347-3.286,1.056-2.934,1.877,3.755,1.291,4.694,1.291,4.577-1.877,5.516-2.112.939-1.291.587-2.112a9.958,9.958,0,0,0-1.408-1.995l-2.465.7Z" transform="translate(-551.839 -302.855)" fill="#fff" stroke="#263238" stroke-linecap="round" stroke-linejoin="round" stroke-width="1"/>
        <path id="Path_584" data-name="Path 584" d="M634.731,417.873s-2.23,2.7-2.582,3.286-2.347,1.526-2.347,2.464,3.4.47,4.459.352a4.249,4.249,0,0,0,3.052-2.112c.586-1.174,1.056-3.638.352-4.577S634.731,417.873,634.731,417.873Z" transform="translate(-590.723 -302.286)" fill="#fff" stroke="#263238" stroke-linecap="round" stroke-linejoin="round" stroke-width="1"/>
        <path id="Path_585" data-name="Path 585" d="M566.8,306.186l-.092.707-.73,5.63s-6.525,9.213-8.915,14.013c-1.221,2.452-2.921,5.357-2.687,6.179s7.26,25.782,7.26,25.782a4.719,4.719,0,0,0,1.76.469,4.808,4.808,0,0,0,1.643-.352l-.335-23.863,10.076-11.08,1.291,1.643s3.345,11.858,4.753,13.735,13.554,19.476,13.554,19.476a5.027,5.027,0,0,0,2,.47c1.056,0,1.526-1.408,1.526-1.408s-8.743-21.588-8.978-22.293-.059-17.96-.059-17.96L587.45,309l-1.643-5.281a29.51,29.51,0,0,1-8.215.587c-5.164-.235-10.092-.587-10.092-.587Z" transform="translate(-550.953 -242.586)" fill="#263238" stroke="#263238" stroke-linecap="round" stroke-linejoin="round" stroke-width="1"/>
        <path id="Path_586" data-name="Path 586" d="M549.16,187.227a13.985,13.985,0,0,0-1.878,3.99,3.993,3.993,0,0,0,.821,2.817l-.939,2s3.168,6.455,5.046,9.388,4.929,7.862,6.806,8.8,5.516,4.811,5.516,4.811l2.112-4.577s-6.22-7.746-10.093-13.144A103.994,103.994,0,0,1,550.1,191.1a19.047,19.047,0,0,1,.234-3.051,15.682,15.682,0,0,0,.235-2.7Z" transform="translate(-547.165 -180.192)" fill="#263238" stroke="#263238" stroke-linecap="round" stroke-linejoin="round" stroke-width="1"/>
        <path id="Path_587" data-name="Path 587" d="M584.771,242.512s-4.812,5.75-5.75,9.506.235,15.373.235,17.016-.939,3.4.352,4.577,5.164.587,6.572.469,8.1,0,10.092-.586,2.934-1.408,2.934-2.817-2.464-12.557-2.816-14.435.939-8.332-.822-11.383S588.174,241.338,584.771,242.512Z" transform="translate(-563.764 -210.011)" fill="#fff" stroke="#263238" stroke-linecap="round" stroke-linejoin="round" stroke-width="1"/>
        <path id="Path_588" data-name="Path 588" d="M574.021,244.908s-5.868,5.985-6.689,9.153-3.756,9.271-4.694,11.97a54.336,54.336,0,0,1-2.817,6.22l1.056,4.225,2.7-2.934s2.7-9.271,4.108-13.144a44.223,44.223,0,0,0,1.878-8.567C569.8,250.776,574.021,244.908,574.021,244.908Z" transform="translate(-553.836 -211.586)" fill="#263238" stroke="#263238" stroke-linecap="round" stroke-linejoin="round" stroke-width="1"/>
        <g id="Group_232" data-name="Group 232" transform="translate(17.6 30.857)">
          <path id="Path_589" data-name="Path 589" d="M587.789,241.808s-3.521,9.623-3.4,10.327,1.76,26.757,1.76,26.757,1.643,3.99,9.037,3.4,13.144-1.643,13.144-1.643-2.23-8.8-4.225-12.791-3.051-6.337-3.051-8.215-.821-14.434-1.291-16.429a10.6,10.6,0,0,0-1.056-2.934l-.7-.587Z" transform="translate(-584.383 -239.696)" fill="#1b9eff" stroke="#263238" stroke-linecap="round" stroke-linejoin="round" stroke-width="1"/>
          <path id="Path_590" data-name="Path 590" d="M585.63,286.35l5.75,14.082a13.069,13.069,0,0,0-3.169,1.761c-.821.821-1.408,1.291-1.408,1.291Z" transform="translate(-585.04 -264.287)" fill="#c7e7ff" stroke="#263238" stroke-linecap="round" stroke-linejoin="round" stroke-width="1"/>
        </g>
        <g id="Group_234" data-name="Group 234" transform="translate(19.018 11.03)">
          <g id="Group_233" data-name="Group 233">
            <path id="Path_591" data-name="Path 591" d="M594.181,200.814s-3.638,2.934-3.638,3.756a4.41,4.41,0,0,1-.939,1.995s-1.878.235-2,.939a5.116,5.116,0,0,0,.587,2.112s-1.173,3.99-.7,4.929,3.873,1.056,3.873,1.056l.118,2.582,8.1-1.291-.118-1.995s4.342-4.694,6.455-6.689-.587-5.516-3.168-8.215-8.684-2.7-9.154-1.291A1.8,1.8,0,0,0,594.181,200.814Z" transform="translate(-587.381 -197.769)" fill="#fff" stroke="#263238" stroke-linecap="round" stroke-linejoin="round" stroke-width="1"/>
            <path id="Path_592" data-name="Path 592" d="M595.308,212.945a1.621,1.621,0,0,1,1.643.117" transform="translate(-591.559 -205.675)" fill="none" stroke="#263238" stroke-linecap="round" stroke-linejoin="round" stroke-width="1"/>
            <path id="Path_593" data-name="Path 593" d="M595.525,216.031c-.089.378-.034.715.123.753s.358-.239.447-.618.035-.715-.123-.752S595.615,215.653,595.525,216.031Z" transform="translate(-591.651 -207.067)" fill="#263238"/>
          </g>
          <path id="Path_594" data-name="Path 594" d="M609.539,199.993c-2.582-2.7-8.684-2.7-9.154-1.291a1.8,1.8,0,0,0,.587,2.112s3.99.47,3.4,1.526-2.582,1.056-2.112,1.76,2.112,2.23,1.526,2.582-.939,1.056-.587,1.291.939-.352,2.347-.117,1.056,3.521-.235,3.99-1.877-.118.47,1.995a2.871,2.871,0,0,0,.932.558c1.174-1.259,4.3-4.591,5.992-6.191C614.82,206.213,612.121,202.692,609.539,199.993Z" transform="translate(-594.172 -197.769)" fill="#263238" stroke="#263238" stroke-linecap="round" stroke-linejoin="round" stroke-width="1"/>
          <path id="Path_595" data-name="Path 595" d="M605.033,227.758l-2.112-.469-1.408,1.056" transform="translate(-594.829 -213.329)" fill="none" stroke="#263238" stroke-linecap="round" stroke-linejoin="round" stroke-width="1"/>
        </g>
        <path id="Path_596" data-name="Path 596" d="M601.349,235.23l-10.8,2.934-.7,2.23,12.792-2.347Z" transform="translate(-569.664 -206.484)" fill="#c7e7ff" stroke="#263238" stroke-linecap="round" stroke-linejoin="round" stroke-width="1"/>
        <path id="Path_597" data-name="Path 597" d="M553.056,185l-.352-2.465a31.169,31.169,0,0,0,1.056-4.224c0-.822-.821-2.7-.821-3.169s-.7-1.173-.939-.235-.7,4.459-.7,4.459-1.526,2.582-1.408,3.873a19.526,19.526,0,0,0,1.291,3.99l2.112-1.291Z" transform="translate(-548.597 -174.445)" fill="#fff" stroke="#263238" stroke-linecap="round" stroke-linejoin="round" stroke-width="1"/>
        <path id="Path_598" data-name="Path 598" d="M554.982,198.642l-1.526-1.878-2.817,2.23,1.643,2.816Z" transform="translate(-548.996 -186.21)" fill="#fff" stroke="#263238" stroke-linecap="round" stroke-linejoin="round" stroke-width="1"/>
        <path id="Path_599" data-name="Path 599" d="M581.088,223.864a8.875,8.875,0,0,0-4.107-4.577,36.009,36.009,0,0,0-6.22-2.347L554.8,198.75l-3.168,3.168s6.689,13.965,7.98,16.312,16.195,18.425,16.195,18.425" transform="translate(-549.52 -187.256)" fill="#1b9eff" stroke="#263238" stroke-linecap="round" stroke-linejoin="round" stroke-width="1"/>
      </g>
    </g>
    <g id="Character_2" data-name="Character 2" transform="translate(156.831 116.304)">
      <g id="Group_239" data-name="Group 239">
        <path id="Path_600" data-name="Path 600" d="M316.37,414.444a23.175,23.175,0,0,0-2.719,4.965c-.473,1.773-.355,4.138.828,3.9s3.9-3.192,4.138-4.02,1.064-4.611,1.064-4.611l-2.837-.236Z" transform="translate(-313.392 -314.731)" fill="#fff" stroke="#263238" stroke-linecap="round" stroke-linejoin="round" stroke-width="1"/>
        <path id="Path_601" data-name="Path 601" d="M405.44,418.43s0,3.31.709,3.783a31.857,31.857,0,0,0,6.975,2.6c1.419.118,1.892-.118,1.064-1.773s-5.557-4.847-5.557-4.847Z" transform="translate(-361.911 -316.708)" fill="#fff" stroke="#263238" stroke-linecap="round" stroke-linejoin="round" stroke-width="1"/>
        <path id="Path_602" data-name="Path 602" d="M330.762,300.444l-2.719,11.468-1.419,21.517s-5.2,8.985-5.675,12.3-2.01,10.049-2.01,10.049a18.5,18.5,0,0,0,2.483.946c.355,0,4.611-6.148,6.975-8.512s7.685-12.532,7.921-13,4.02-15.487,4.256-15.96,1.655-1.064,1.655-1.064,7.124,10.236,7.984,11.1a40.234,40.234,0,0,1,3.6,4.863s4.847,19.271,5.2,20.216a12.606,12.606,0,0,1,.473,2.719l4.374.946s.355-12.887.118-15.96-1.182-9.694-1.182-9.694-7.212-19.744-7.566-20.216-2.483-5.2-2.483-5.2l-.709-4.493a27.3,27.3,0,0,1-12.768.473C332.181,301.508,330.762,300.444,330.762,300.444Z" transform="translate(-316.316 -254.641)" fill="#263238" stroke="#263238" stroke-linecap="round" stroke-linejoin="round" stroke-width="1"/>
        <path id="Path_603" data-name="Path 603" d="M340.9,231.981a79.467,79.467,0,0,1-7.982,4.63c-3.625,1.734-4.493,3.468-4.493,4.335s-3.152,15.212-2.916,16,2.365,1.971,3.7,2.286a6.033,6.033,0,0,0,3.626-.394c.394-.315,1.655-5.675,1.655-5.675s-.709,9.694-1.025,10.956,2.6,4.493,5.438,5.044,10.483.551,12.453-.079,3.31-.788,3.941-1.971,1.024-9.615,1.1-10.167.709-5.6.709-5.6l2.049,6.936.788,1.419s.394-.867,2.837-2.286a13.908,13.908,0,0,1,3.231-1.576s-1.419-4.65-2.286-7.33-1.734-7.566-2.837-9.537-3.074-2.837-5.754-4.493-6.621-2.6-7.094-2.837A15.5,15.5,0,0,0,340.9,231.981Z" transform="translate(-319.773 -218.237)" fill="#fff" stroke="#263238" stroke-linecap="round" stroke-linejoin="round" stroke-width="1"/>
        <line id="Line_48" data-name="Line 48" y1="5.766" x2="1.664" transform="translate(14.722 29.16)" fill="none" stroke="#263238" stroke-linecap="round" stroke-linejoin="round" stroke-width="1"/>
        <line id="Line_49" data-name="Line 49" y1="1.307" x2="0.281" transform="translate(38.499 26.425)" fill="none" stroke="#263238" stroke-linecap="round" stroke-linejoin="round" stroke-width="1"/>
        <line id="Line_50" data-name="Line 50" y1="4.202" x2="0.903" transform="translate(37.342 28.911)" fill="none" stroke="#263238" stroke-linecap="round" stroke-linejoin="round" stroke-width="1"/>
        <g id="Group_238" data-name="Group 238" transform="translate(19.657)">
          <path id="Path_604" data-name="Path 604" d="M362.44,248.518l1.655,2.365.946,2.128-2.365,19.625,3.31,3.074,2.6-3.428-2.365-19.034,1.419-2.719,1.888-3.091-3.425-1.993Z" transform="translate(-358.903 -225.651)" fill="#872bb4" stroke="#263238" stroke-linecap="round" stroke-linejoin="round" stroke-width="1"/>
          <path id="Path_605" data-name="Path 605" d="M357.617,229.5s-1.645.429-2,1.43.143,7.006.643,8.293a22.792,22.792,0,0,0,1.4,2.8,44.29,44.29,0,0,1,5.174-2.947c.786-.143,5.29,2.216,5.29,2.216a17.517,17.517,0,0,0-1.43-6.72c-1.573-3.932-5.219-6.148-6.792-6.291A2.421,2.421,0,0,0,357.617,229.5Z" transform="translate(-355.242 -216.599)" fill="#fff" stroke="#263238" stroke-linecap="round" stroke-linejoin="round" stroke-width="1"/>
          <g id="Group_236" data-name="Group 236" transform="translate(1.732 11.678)">
            <path id="Path_606" data-name="Path 606" d="M358.622,229s.214,2.5.429,4.218,2.86,7.364,3.789,8.15,2.86-1.787,3.5-2.931a13.114,13.114,0,0,1,.929-1.5s-4.575-2.216-6.005-4.79-1.287-3.789-1.93-3.86S358.622,229,358.622,229Z" transform="translate(-358.622 -228.284)" fill="#fff" stroke="#263238" stroke-linecap="round" stroke-linejoin="round" stroke-width="1"/>
            <path id="Path_607" data-name="Path 607" d="M363.5,242.809l3.515,5.67a8.922,8.922,0,0,0,1.9-2.382C369.2,245.208,363.5,242.809,363.5,242.809Z" transform="translate(-361.193 -235.94)" fill="#263238" stroke="#263238" stroke-linecap="round" stroke-linejoin="round" stroke-width="1"/>
          </g>
          <g id="Group_237" data-name="Group 237">
            <path id="Path_608" data-name="Path 608" d="M355.313,217.211a5.819,5.819,0,0,0-.335,2.569,3.372,3.372,0,0,0,1.452,2.792,6.613,6.613,0,0,0,1.229.112,10.846,10.846,0,0,0,1.34,4.69c1.229,1.9,5.361,4.579,6.589,3.239s2.792-6.7,3.35-9.269a46.8,46.8,0,0,0,.782-5.026s-6.813-1.564-8.264-1.9-3.909-.894-3.909-.894Z" transform="translate(-354.96 -208.826)" fill="#fff" stroke="#263238" stroke-linecap="round" stroke-linejoin="round" stroke-width="1"/>
            <path id="Path_609" data-name="Path 609" d="M360.266,210.857a2.551,2.551,0,0,1-.447,2.346c-.893.893-1.229.893-1.229.893s.224,1.452-.112,1.452a1.1,1.1,0,0,1-1.117-1.117,3.271,3.271,0,0,0-.558-1.675l-1.34-.782a11.278,11.278,0,0,1,.112-4.914c.67-2.569,5.472-3.574,9.493-3.462s5.026,5.249,5.026,5.249a19.278,19.278,0,0,1,2.457,1.34c.335.335.67,1.117-1.228,2.122a10.205,10.205,0,0,1-7.259.559A21.247,21.247,0,0,1,360.266,210.857Z" transform="translate(-355.111 -203.589)" fill="#263238" stroke="#263238" stroke-linecap="round" stroke-linejoin="round" stroke-width="1"/>
            <path id="Path_610" data-name="Path 610" d="M370.675,230.587c-.129.415-.4.7-.609.634s-.271-.453-.142-.867.4-.7.609-.635S370.8,230.171,370.675,230.587Z" transform="translate(-362.812 -217.357)" fill="#263238"/>
            <path id="Path_611" data-name="Path 611" d="M380.5,231.342c-.129.415-.4.7-.609.635s-.271-.453-.142-.867.4-.7.609-.635S380.63,230.927,380.5,231.342Z" transform="translate(-367.992 -217.756)" fill="#263238"/>
            <path id="Path_612" data-name="Path 612" d="M367.995,227.766a2.107,2.107,0,0,1,2.359-.644" transform="translate(-361.831 -215.94)" fill="none" stroke="#263238" stroke-linecap="round" stroke-linejoin="round" stroke-width="1"/>
            <path id="Path_613" data-name="Path 613" d="M378.728,227.842a1.458,1.458,0,0,1,2.145.143" transform="translate(-367.488 -216.159)" fill="none" stroke="#263238" stroke-linecap="round" stroke-linejoin="round" stroke-width="1"/>
            <path id="Path_614" data-name="Path 614" d="M369.458,239.178a7.043,7.043,0,0,0-2,.358c-1.073.358-2.645-.071-1.93.858a4.307,4.307,0,0,0,3.5,1.215c1.43,0,2.717-.071,3.146-.715s1.072-1.287.572-1.358-2.431-.214-2.645-.214A2.94,2.94,0,0,1,369.458,239.178Z" transform="translate(-360.435 -222.348)" fill="#263238" stroke="#263238" stroke-linecap="round" stroke-linejoin="round" stroke-width="1"/>
            <path id="Path_615" data-name="Path 615" d="M374.466,230.41s-.143,3.932-.286,4.647a.956.956,0,0,1-1.716.429,9.784,9.784,0,0,1-1.144-1.93" transform="translate(-363.584 -217.727)" fill="#fff" stroke="#263238" stroke-linecap="round" stroke-linejoin="round" stroke-width="1"/>
          </g>
        </g>
        <path id="Path_616" data-name="Path 616" d="M402.951,279.41a16.727,16.727,0,0,0-4.823,1.5c-1.419.946-1.916,1.77-1.562,2.676a13.414,13.414,0,0,0,1.182,2.561c.591.946,1.655.236,1.655.236a1.043,1.043,0,0,1,.118-1.537,17.418,17.418,0,0,1,3.9-2.01h1.064c.473,0,0-1.3-.355-1.892S403.779,279.173,402.951,279.41Z" transform="translate(-357.176 -243.538)" fill="#fff" stroke="#263238" stroke-linecap="round" stroke-linejoin="round" stroke-width="1"/>
        <path id="Path_617" data-name="Path 617" d="M325.44,291.444s0,3.428.236,6.857,3.074,13,3.074,13l2.837-.709s-.118-8.985-.118-11.823-.118-6.266-.118-6.266Z" transform="translate(-319.743 -249.898)" fill="#fff" stroke="#263238" stroke-linecap="round" stroke-linejoin="round" stroke-width="1"/>
        <path id="Path_618" data-name="Path 618" d="M324.271,285.555a.856.856,0,0,1,1.352-.593,6.165,6.165,0,0,0,2.592.971,12.15,12.15,0,0,0,3.43.109.688.688,0,0,1,.75.88,9.228,9.228,0,0,1-1.106,2.676c-.591.591-3.429.591-4.847.118s-1.773-.828-2.128-2.01A6.2,6.2,0,0,1,324.271,285.555Z" transform="translate(-319.089 -246.397)" fill="#fff" stroke="#263238" stroke-linecap="round" stroke-linejoin="round" stroke-width="1"/>
        <path id="Path_619" data-name="Path 619" d="M440.413,306.984a5.173,5.173,0,0,1,1.419-2.246c1.064-.946,1.537-1.182.473-1.3s-2.365,1.537-2.365,1.537Z" transform="translate(-380.096 -256.216)" fill="#fff" stroke="#263238" stroke-linecap="round" stroke-linejoin="round" stroke-width="1"/>
        <path id="Path_620" data-name="Path 620" d="M402.6,290.241a9.111,9.111,0,0,0,2.483,1.773c1.773.946,10.64,5.793,10.64,5.793l3.192-1.892s-4.965-2.246-7.212-4.611-4.02-4.611-4.02-4.611S401.774,287.049,402.6,290.241Z" transform="translate(-360.373 -247.394)" fill="#fff" stroke="#263238" stroke-linecap="round" stroke-linejoin="round" stroke-width="1"/>
        <path id="Path_621" data-name="Path 621" d="M427.19,305.593s.473,2.483,1.3,2.6,4.847-.236,5.2-.946.591-3.192,0-3.31S427.19,305.593,427.19,305.593Z" transform="translate(-373.375 -256.48)" fill="#fff" stroke="#263238" stroke-linecap="round" stroke-linejoin="round" stroke-width="1"/>
        <path id="Path_622" data-name="Path 622" d="M329.286,336.423a5.173,5.173,0,0,0-2.12-1.6c-1.329-.509-1.856-.563-.9-1.05s2.755.6,2.755.6Z" transform="translate(-319.92 -272.143)" fill="#fff" stroke="#263238" stroke-linecap="round" stroke-linejoin="round" stroke-width="1"/>
        <path id="Path_623" data-name="Path 623" d="M337.246,331.386s.435,2.489-.3,2.892-4.618,1.491-5.2.952-1.68-2.778-1.169-3.1S337.246,331.386,337.246,331.386Z" transform="translate(-322.381 -270.951)" fill="#fff" stroke="#263238" stroke-linecap="round" stroke-linejoin="round" stroke-width="1"/>
      </g>
    </g>
    <g id="Plants" transform="translate(27.568 184.666)">
      <g id="Group_240" data-name="Group 240">
        <path id="Path_624" data-name="Path 624" d="M88.594,364.565c.02.012.407-1.489.421-1.586.157-1.128-.2-3.4-1.352-3.956a1.51,1.51,0,0,0-2.055.91,3.157,3.157,0,0,0,.545,2.6A10.816,10.816,0,0,0,88.594,364.565Z" transform="translate(-64.007 -353.804)" fill="#263238"/>
        <path id="Path_625" data-name="Path 625" d="M41.985,365.656a10.807,10.807,0,0,0,3.157.349c.024,0-.481-1.466-.523-1.555-.492-1.028-2.045-2.725-3.31-2.555a1.51,1.51,0,0,0-1.212,1.893A3.156,3.156,0,0,0,41.985,365.656Z" transform="translate(-40.051 -355.388)" fill="#263238"/>
        <path id="Path_626" data-name="Path 626" d="M42.969,364.9a10.517,10.517,0,0,0,3.107-.488,26.673,26.673,0,0,0,1.212,3.354c.275.637.572,1.27.877,1.9-.183-.267-.348-.5-.374-.535-.745-.862-2.693-2.088-3.867-1.59a1.51,1.51,0,0,0-.669,2.146,3.157,3.157,0,0,0,2.315,1.3,10,10,0,0,0,3.02-.463c.12.241.236.482.357.723.579,1.152,1.161,2.3,1.7,3.443.19.4.361.806.535,1.209-.163-.237-.3-.435-.325-.463-.745-.862-2.692-2.088-3.867-1.589A1.51,1.51,0,0,0,46.319,376a3.156,3.156,0,0,0,2.315,1.3,9.62,9.62,0,0,0,2.939-.441c.165.419.331.837.472,1.249.09.284.2.551.271.842l.237.849c.131.545.269,1.107.383,1.642.082.372.154.727.227,1.085-.184-.4-.56-1.185-.6-1.247-.606-.965-2.345-2.472-3.582-2.157A1.51,1.51,0,0,0,48,381.14a3.156,3.156,0,0,0,2.091,1.638,10.362,10.362,0,0,0,3.127-.009c.119.593.229,1.17.324,1.718.2,1.142.355,2.17.475,3.053h.834c-.143-.915-.327-1.993-.566-3.192-.118-.6-.257-1.244-.4-1.9a16.412,16.412,0,0,0,1.745-.82,11.067,11.067,0,0,0,2.543,1.641c-.227.56-.454,1.1-.677,1.611-.435,1-.848,1.892-1.218,2.662h.9c.315-.7.658-1.5,1.014-2.368.234-.568.472-1.179.711-1.809a10.378,10.378,0,0,0,3.119.243,3.157,3.157,0,0,0,2.207-1.478,1.51,1.51,0,0,0-.833-2.087c-1.209-.406-3.055.967-3.732,1.884-.04.054-.407.689-.633,1.094.1-.258.193-.507.288-.774.193-.526.37-1.057.563-1.627q.126-.418.253-.845c.09-.28.15-.587.227-.884.165-.69.3-1.4.416-2.114a9.915,9.915,0,0,0,2.96.681,3.156,3.156,0,0,0,2.405-1.126,1.51,1.51,0,0,0-.507-2.189c-1.134-.585-3.167.493-3.975,1.3-.051.05-.565.692-.841,1.05.068-.431.138-.861.192-1.3.157-1.265.277-2.551.4-3.832.038-.393.08-.784.122-1.175a10.485,10.485,0,0,0,3.061.718,3.157,3.157,0,0,0,2.405-1.126,1.51,1.51,0,0,0-.507-2.189c-1.134-.585-3.167.493-3.975,1.3-.061.061-.8.986-.977,1.23.091-.862.19-1.72.322-2.562a26.611,26.611,0,0,1,.735-3.37,10.662,10.662,0,0,0,3.078.724,3.155,3.155,0,0,0,2.405-1.126,1.51,1.51,0,0,0-.507-2.189c-1.134-.585-3.167.493-3.975,1.3-.053.053-.617.756-.877,1.1l-.065-.034a19.467,19.467,0,0,1,1.338-3.2c.29-.568.6-1.094.912-1.6a10.166,10.166,0,0,0,2.914,1.025,3.158,3.158,0,0,0,2.514-.855,1.51,1.51,0,0,0-.264-2.232c-1.063-.706-3.2.142-4.093.853-.048.039-.5.486-.82.816.144-.226.289-.462.432-.676.534-.8,1.072-1.507,1.554-2.126.277-.349.534-.66.778-.949a10.094,10.094,0,0,0,3.043-.433,3.157,3.157,0,0,0,1.838-1.918,1.51,1.51,0,0,0-1.263-1.859c-1.269-.137-2.776,1.6-3.24,2.643-.04.09-.505,1.569-.481,1.569h.027c-.24.273-.494.568-.766.9-.5.61-1.051,1.3-1.6,2.1a26.633,26.633,0,0,0-1.664,2.651,19.721,19.721,0,0,0-1.422,3.2c0,.013-.007.027-.011.041.007-.374-.01-1.42-.02-1.5-.147-1.13-1.094-3.227-2.348-3.459a1.51,1.51,0,0,0-1.742,1.42,3.158,3.158,0,0,0,1.212,2.364,10.507,10.507,0,0,0,2.861,1.307,26.723,26.723,0,0,0-.839,3.466c-.122.682-.223,1.374-.316,2.068,0-.323-.011-.612-.017-.653-.147-1.13-1.093-3.227-2.348-3.459a1.51,1.51,0,0,0-1.741,1.42,3.156,3.156,0,0,0,1.212,2.363,10.02,10.02,0,0,0,2.775,1.28c-.033.267-.069.533-.1.8-.153,1.28-.3,2.559-.483,3.808-.064.441-.144.872-.222,1.3,0-.287-.01-.529-.015-.566-.147-1.13-1.094-3.228-2.348-3.459a1.51,1.51,0,0,0-1.742,1.42,3.157,3.157,0,0,0,1.212,2.363,9.642,9.642,0,0,0,2.695,1.254c-.093.44-.185.881-.3,1.3-.082.287-.14.568-.238.851l-.271.839c-.192.527-.386,1.072-.586,1.581-.136.355-.273.691-.409,1.03.069-.437.186-1.3.188-1.37a5.864,5.864,0,0,0-.786-2.853,1.8,1.8,0,0,0-.021-.334,1.51,1.51,0,0,0-1.846-1.281c-1.233.329-2.015,2.493-2.074,3.63,0,.067.041.8.076,1.262-.062-.269-.119-.53-.186-.8-.129-.545-.274-1.086-.428-1.668l-.255-.844c-.079-.283-.2-.573-.3-.863-.244-.666-.523-1.33-.82-1.993a9.935,9.935,0,0,0,2.844-1.065,3.157,3.157,0,0,0,1.385-2.266,1.511,1.511,0,0,0-1.631-1.546c-1.268.138-2.369,2.159-2.6,3.275-.014.07-.089.889-.122,1.34-.182-.4-.36-.794-.557-1.19-.567-1.142-1.177-2.28-1.78-3.418-.185-.349-.365-.7-.547-1.047a10.483,10.483,0,0,0,2.949-1.09,3.156,3.156,0,0,0,1.385-2.266A1.51,1.51,0,0,0,51.5,365.1c-1.268.138-2.369,2.158-2.6,3.274-.017.084-.124,1.263-.136,1.564-.4-.769-.79-1.539-1.145-2.314a26.57,26.57,0,0,1-1.246-3.216,10.664,10.664,0,0,0,2.966-1.094,3.155,3.155,0,0,0,1.385-2.267A1.51,1.51,0,0,0,49.1,359.5c-1.269.138-2.37,2.159-2.6,3.275-.016.073-.1.972-.126,1.4l-.072.008a19.457,19.457,0,0,1-.649-3.407c-.071-.634-.1-1.244-.122-1.838a10.159,10.159,0,0,0,3-.753,3.157,3.157,0,0,0,1.625-2.1,1.51,1.51,0,0,0-1.451-1.716c-1.276,0-2.592,1.885-2.943,2.969-.019.059-.147.68-.234,1.133,0-.268-.013-.545-.012-.8,0-.965.063-1.849.123-2.63.038-.445.081-.846.125-1.221a10.106,10.106,0,0,0,2.3-2.04,3.156,3.156,0,0,0,.474-2.613,1.51,1.51,0,0,0-2.078-.854c-1.134.586-1.432,2.867-1.244,3.991.016.1.445,1.587.464,1.574l.022-.015c-.05.36-.1.746-.145,1.169-.078.782-.158,1.667-.181,2.635a26.767,26.767,0,0,0,.075,3.129,19.707,19.707,0,0,0,.579,3.453c0,.013.009.026.013.04-.2-.315-.791-1.178-.844-1.239-.746-.862-2.693-2.088-3.867-1.589a1.51,1.51,0,0,0-.669,2.145A3.155,3.155,0,0,0,42.969,364.9Z" transform="translate(-40.261 -348.148)" fill="#263238"/>
        <path id="Path_627" data-name="Path 627" d="M41.985,365.656a10.807,10.807,0,0,0,3.157.349c.024,0-.481-1.466-.523-1.555-.492-1.028-2.045-2.725-3.31-2.555a1.51,1.51,0,0,0-1.212,1.893A3.156,3.156,0,0,0,41.985,365.656Z" transform="translate(-40.051 -355.388)" fill="#263238" opacity="0.3"/>
        <path id="Path_628" data-name="Path 628" d="M88.594,364.565c.02.012.407-1.489.421-1.586.157-1.128-.2-3.4-1.352-3.956a1.51,1.51,0,0,0-2.055.91,3.157,3.157,0,0,0,.545,2.6A10.816,10.816,0,0,0,88.594,364.565Z" transform="translate(-64.007 -353.804)" fill="#263238" opacity="0.3"/>
        <path id="Path_629" data-name="Path 629" d="M42.969,364.9a10.517,10.517,0,0,0,3.107-.488,26.673,26.673,0,0,0,1.212,3.354c.275.637.572,1.27.877,1.9-.183-.267-.348-.5-.374-.535-.745-.862-2.693-2.088-3.867-1.59a1.51,1.51,0,0,0-.669,2.146,3.157,3.157,0,0,0,2.315,1.3,10,10,0,0,0,3.02-.463c.12.241.236.482.357.723.579,1.152,1.161,2.3,1.7,3.443.19.4.361.806.535,1.209-.163-.237-.3-.435-.325-.463-.745-.862-2.692-2.088-3.867-1.589A1.51,1.51,0,0,0,46.319,376a3.156,3.156,0,0,0,2.315,1.3,9.62,9.62,0,0,0,2.939-.441c.165.419.331.837.472,1.249.09.284.2.551.271.842l.237.849c.131.545.269,1.107.383,1.642.082.372.154.727.227,1.085-.184-.4-.56-1.185-.6-1.247-.606-.965-2.345-2.472-3.582-2.157A1.51,1.51,0,0,0,48,381.14a3.156,3.156,0,0,0,2.091,1.638,10.362,10.362,0,0,0,3.127-.009c.119.593.229,1.17.324,1.718.2,1.142.355,2.17.475,3.053h.834c-.143-.915-.327-1.993-.566-3.192-.118-.6-.257-1.244-.4-1.9a16.412,16.412,0,0,0,1.745-.82,11.067,11.067,0,0,0,2.543,1.641c-.227.56-.454,1.1-.677,1.611-.435,1-.848,1.892-1.218,2.662h.9c.315-.7.658-1.5,1.014-2.368.234-.568.472-1.179.711-1.809a10.378,10.378,0,0,0,3.119.243,3.157,3.157,0,0,0,2.207-1.478,1.51,1.51,0,0,0-.833-2.087c-1.209-.406-3.055.967-3.732,1.884-.04.054-.407.689-.633,1.094.1-.258.193-.507.288-.774.193-.526.37-1.057.563-1.627q.126-.418.253-.845c.09-.28.15-.587.227-.884.165-.69.3-1.4.416-2.114a9.915,9.915,0,0,0,2.96.681,3.156,3.156,0,0,0,2.405-1.126,1.51,1.51,0,0,0-.507-2.189c-1.134-.585-3.167.493-3.975,1.3-.051.05-.565.692-.841,1.05.068-.431.138-.861.192-1.3.157-1.265.277-2.551.4-3.832.038-.393.08-.784.122-1.175a10.485,10.485,0,0,0,3.061.718,3.157,3.157,0,0,0,2.405-1.126,1.51,1.51,0,0,0-.507-2.189c-1.134-.585-3.167.493-3.975,1.3-.061.061-.8.986-.977,1.23.091-.862.19-1.72.322-2.562a26.611,26.611,0,0,1,.735-3.37,10.662,10.662,0,0,0,3.078.724,3.155,3.155,0,0,0,2.405-1.126,1.51,1.51,0,0,0-.507-2.189c-1.134-.585-3.167.493-3.975,1.3-.053.053-.617.756-.877,1.1l-.065-.034a19.467,19.467,0,0,1,1.338-3.2c.29-.568.6-1.094.912-1.6a10.166,10.166,0,0,0,2.914,1.025,3.158,3.158,0,0,0,2.514-.855,1.51,1.51,0,0,0-.264-2.232c-1.063-.706-3.2.142-4.093.853-.048.039-.5.486-.82.816.144-.226.289-.462.432-.676.534-.8,1.072-1.507,1.554-2.126.277-.349.534-.66.778-.949a10.094,10.094,0,0,0,3.043-.433,3.157,3.157,0,0,0,1.838-1.918,1.51,1.51,0,0,0-1.263-1.859c-1.269-.137-2.776,1.6-3.24,2.643-.04.09-.505,1.569-.481,1.569h.027c-.24.273-.494.568-.766.9-.5.61-1.051,1.3-1.6,2.1a26.633,26.633,0,0,0-1.664,2.651,19.721,19.721,0,0,0-1.422,3.2c0,.013-.007.027-.011.041.007-.374-.01-1.42-.02-1.5-.147-1.13-1.094-3.227-2.348-3.459a1.51,1.51,0,0,0-1.742,1.42,3.158,3.158,0,0,0,1.212,2.364,10.507,10.507,0,0,0,2.861,1.307,26.723,26.723,0,0,0-.839,3.466c-.122.682-.223,1.374-.316,2.068,0-.323-.011-.612-.017-.653-.147-1.13-1.093-3.227-2.348-3.459a1.51,1.51,0,0,0-1.741,1.42,3.156,3.156,0,0,0,1.212,2.363,10.02,10.02,0,0,0,2.775,1.28c-.033.267-.069.533-.1.8-.153,1.28-.3,2.559-.483,3.808-.064.441-.144.872-.222,1.3,0-.287-.01-.529-.015-.566-.147-1.13-1.094-3.228-2.348-3.459a1.51,1.51,0,0,0-1.742,1.42,3.157,3.157,0,0,0,1.212,2.363,9.642,9.642,0,0,0,2.695,1.254c-.093.44-.185.881-.3,1.3-.082.287-.14.568-.238.851l-.271.839c-.192.527-.386,1.072-.586,1.581-.136.355-.273.691-.409,1.03.069-.437.186-1.3.188-1.37a5.864,5.864,0,0,0-.786-2.853,1.8,1.8,0,0,0-.021-.334,1.51,1.51,0,0,0-1.846-1.281c-1.233.329-2.015,2.493-2.074,3.63,0,.067.041.8.076,1.262-.062-.269-.119-.53-.186-.8-.129-.545-.274-1.086-.428-1.668l-.255-.844c-.079-.283-.2-.573-.3-.863-.244-.666-.523-1.33-.82-1.993a9.935,9.935,0,0,0,2.844-1.065,3.157,3.157,0,0,0,1.385-2.266,1.511,1.511,0,0,0-1.631-1.546c-1.268.138-2.369,2.159-2.6,3.275-.014.07-.089.889-.122,1.34-.182-.4-.36-.794-.557-1.19-.567-1.142-1.177-2.28-1.78-3.418-.185-.349-.365-.7-.547-1.047a10.483,10.483,0,0,0,2.949-1.09,3.156,3.156,0,0,0,1.385-2.266A1.51,1.51,0,0,0,51.5,365.1c-1.268.138-2.369,2.158-2.6,3.274-.017.084-.124,1.263-.136,1.564-.4-.769-.79-1.539-1.145-2.314a26.57,26.57,0,0,1-1.246-3.216,10.664,10.664,0,0,0,2.966-1.094,3.155,3.155,0,0,0,1.385-2.267A1.51,1.51,0,0,0,49.1,359.5c-1.269.138-2.37,2.159-2.6,3.275-.016.073-.1.972-.126,1.4l-.072.008a19.457,19.457,0,0,1-.649-3.407c-.071-.634-.1-1.244-.122-1.838a10.159,10.159,0,0,0,3-.753,3.157,3.157,0,0,0,1.625-2.1,1.51,1.51,0,0,0-1.451-1.716c-1.276,0-2.592,1.885-2.943,2.969-.019.059-.147.68-.234,1.133,0-.268-.013-.545-.012-.8,0-.965.063-1.849.123-2.63.038-.445.081-.846.125-1.221a10.106,10.106,0,0,0,2.3-2.04,3.156,3.156,0,0,0,.474-2.613,1.51,1.51,0,0,0-2.078-.854c-1.134.586-1.432,2.867-1.244,3.991.016.1.445,1.587.464,1.574l.022-.015c-.05.36-.1.746-.145,1.169-.078.782-.158,1.667-.181,2.635a26.767,26.767,0,0,0,.075,3.129,19.707,19.707,0,0,0,.579,3.453c0,.013.009.026.013.04-.2-.315-.791-1.178-.844-1.239-.746-.862-2.693-2.088-3.867-1.589a1.51,1.51,0,0,0-.669,2.145A3.155,3.155,0,0,0,42.969,364.9Z" transform="translate(-40.261 -348.148)" fill="#263238" opacity="0.3"/>
      </g>
      <g id="Group_241" data-name="Group 241" transform="translate(287.179)">
        <path id="Path_630" data-name="Path 630" d="M695.866,364.565c.019.012.407-1.489.421-1.586.157-1.128-.2-3.4-1.352-3.956a1.51,1.51,0,0,0-2.055.91,3.155,3.155,0,0,0,.545,2.6A10.815,10.815,0,0,0,695.866,364.565Z" transform="translate(-671.278 -353.804)" fill="#263238"/>
        <path id="Path_631" data-name="Path 631" d="M649.256,365.656a10.81,10.81,0,0,0,3.157.349c.023,0-.481-1.466-.523-1.555-.492-1.028-2.046-2.725-3.31-2.555a1.51,1.51,0,0,0-1.212,1.893A3.155,3.155,0,0,0,649.256,365.656Z" transform="translate(-647.323 -355.388)" fill="#263238"/>
        <path id="Path_632" data-name="Path 632" d="M650.24,364.9a10.517,10.517,0,0,0,3.107-.488,26.677,26.677,0,0,0,1.213,3.354c.275.637.571,1.27.877,1.9-.182-.267-.347-.5-.374-.535-.746-.862-2.693-2.088-3.867-1.59a1.511,1.511,0,0,0-.669,2.146,3.159,3.159,0,0,0,2.315,1.3,10,10,0,0,0,3.02-.463c.12.241.237.482.358.723.579,1.152,1.161,2.3,1.7,3.443.19.4.361.806.534,1.209-.162-.237-.3-.435-.325-.463-.745-.862-2.693-2.088-3.867-1.589a1.51,1.51,0,0,0-.669,2.145,3.156,3.156,0,0,0,2.315,1.3,9.62,9.62,0,0,0,2.939-.441c.165.419.331.837.472,1.249.09.284.2.551.27.842l.237.849c.131.545.269,1.107.384,1.642.082.372.154.727.227,1.085-.184-.4-.56-1.185-.6-1.247-.606-.965-2.345-2.472-3.581-2.157a1.51,1.51,0,0,0-.987,2.019,3.156,3.156,0,0,0,2.091,1.638,10.361,10.361,0,0,0,3.127-.009c.119.593.229,1.17.324,1.718.2,1.142.356,2.17.475,3.053h.834c-.143-.915-.327-1.993-.566-3.192-.118-.6-.257-1.244-.405-1.9a16.368,16.368,0,0,0,1.745-.82,11.058,11.058,0,0,0,2.543,1.641c-.228.56-.455,1.1-.677,1.611-.435,1-.848,1.892-1.218,2.662h.9c.315-.7.658-1.5,1.015-2.368.234-.568.472-1.179.711-1.809a10.383,10.383,0,0,0,3.119.243,3.158,3.158,0,0,0,2.207-1.478,1.51,1.51,0,0,0-.833-2.087c-1.21-.406-3.056.967-3.732,1.884-.04.054-.408.689-.633,1.094.1-.258.193-.507.289-.774.193-.526.37-1.057.563-1.627l.253-.845c.09-.28.15-.587.228-.884.164-.69.3-1.4.416-2.114a9.915,9.915,0,0,0,2.96.681,3.158,3.158,0,0,0,2.406-1.126,1.51,1.51,0,0,0-.507-2.189c-1.134-.585-3.167.493-3.975,1.3-.051.05-.565.692-.841,1.05.068-.431.138-.861.192-1.3.157-1.265.277-2.551.4-3.832.038-.393.081-.784.122-1.175a10.489,10.489,0,0,0,3.061.718,3.156,3.156,0,0,0,2.405-1.126,1.51,1.51,0,0,0-.507-2.189c-1.134-.585-3.167.493-3.974,1.3-.061.061-.8.986-.977,1.23.091-.862.19-1.72.321-2.562a26.615,26.615,0,0,1,.736-3.37,10.659,10.659,0,0,0,3.078.724,3.156,3.156,0,0,0,2.406-1.126,1.51,1.51,0,0,0-.507-2.189c-1.135-.585-3.167.493-3.975,1.3-.053.053-.617.756-.877,1.1l-.065-.034a19.425,19.425,0,0,1,1.338-3.2c.29-.568.6-1.094.912-1.6a10.162,10.162,0,0,0,2.914,1.025,3.159,3.159,0,0,0,2.515-.855,1.51,1.51,0,0,0-.264-2.232c-1.063-.706-3.2.142-4.092.853-.049.039-.5.486-.82.816.145-.226.289-.462.432-.676.534-.8,1.072-1.507,1.554-2.126.277-.349.534-.66.777-.949a10.1,10.1,0,0,0,3.043-.433,3.157,3.157,0,0,0,1.837-1.918,1.51,1.51,0,0,0-1.263-1.859c-1.268-.137-2.776,1.6-3.239,2.643-.04.09-.505,1.569-.481,1.569h.027c-.24.273-.494.568-.766.9-.5.61-1.052,1.3-1.6,2.1a26.783,26.783,0,0,0-1.664,2.651,19.678,19.678,0,0,0-1.421,3.2c0,.013-.008.027-.011.041.006-.374-.01-1.42-.021-1.5-.146-1.13-1.093-3.227-2.348-3.459a1.51,1.51,0,0,0-1.742,1.42,3.156,3.156,0,0,0,1.212,2.364,10.5,10.5,0,0,0,2.861,1.307,26.734,26.734,0,0,0-.839,3.466c-.122.682-.223,1.374-.316,2.068,0-.323-.011-.612-.017-.653-.147-1.13-1.094-3.227-2.348-3.459a1.51,1.51,0,0,0-1.742,1.42,3.156,3.156,0,0,0,1.212,2.363,10.021,10.021,0,0,0,2.775,1.28c-.033.267-.069.533-.1.8-.153,1.28-.3,2.559-.483,3.808-.064.441-.144.872-.221,1.3,0-.287-.011-.529-.016-.566-.147-1.13-1.093-3.228-2.348-3.459a1.51,1.51,0,0,0-1.741,1.42,3.155,3.155,0,0,0,1.212,2.363,9.635,9.635,0,0,0,2.695,1.254c-.093.44-.185.881-.3,1.3-.082.287-.14.568-.238.851l-.271.839c-.192.527-.386,1.072-.586,1.581-.137.355-.273.691-.41,1.03.069-.437.186-1.3.188-1.37a5.862,5.862,0,0,0-.786-2.853,1.8,1.8,0,0,0-.021-.334,1.51,1.51,0,0,0-1.846-1.281c-1.233.329-2.015,2.493-2.074,3.63,0,.067.041.8.076,1.262-.062-.269-.119-.53-.187-.8-.129-.545-.274-1.086-.428-1.668l-.255-.844c-.079-.283-.2-.573-.3-.863-.244-.666-.523-1.33-.82-1.993a9.925,9.925,0,0,0,2.845-1.065,3.158,3.158,0,0,0,1.385-2.266,1.511,1.511,0,0,0-1.631-1.546c-1.268.138-2.37,2.159-2.6,3.275-.015.07-.09.889-.122,1.34-.182-.4-.36-.794-.557-1.19-.567-1.142-1.176-2.28-1.779-3.418-.185-.349-.365-.7-.547-1.047a10.482,10.482,0,0,0,2.949-1.09,3.157,3.157,0,0,0,1.385-2.266,1.51,1.51,0,0,0-1.631-1.546c-1.269.138-2.369,2.158-2.6,3.274-.018.084-.124,1.263-.136,1.564-.4-.769-.791-1.539-1.145-2.314a26.56,26.56,0,0,1-1.245-3.216,10.676,10.676,0,0,0,2.967-1.094A3.158,3.158,0,0,0,658,361.043a1.51,1.51,0,0,0-1.631-1.546c-1.268.138-2.369,2.159-2.6,3.275-.015.073-.1.972-.126,1.4l-.072.008a19.45,19.45,0,0,1-.649-3.407c-.071-.634-.1-1.244-.122-1.838a10.153,10.153,0,0,0,3-.753,3.157,3.157,0,0,0,1.625-2.1,1.51,1.51,0,0,0-1.451-1.716c-1.276,0-2.592,1.885-2.943,2.969-.019.059-.147.68-.234,1.133,0-.268-.013-.545-.012-.8,0-.965.062-1.849.123-2.63.038-.445.081-.846.125-1.221a10.1,10.1,0,0,0,2.3-2.04,3.157,3.157,0,0,0,.475-2.613,1.51,1.51,0,0,0-2.079-.854c-1.134.586-1.431,2.867-1.244,3.991.016.1.444,1.587.463,1.574l.022-.015c-.05.36-.1.746-.144,1.169-.078.782-.158,1.667-.181,2.635a26.752,26.752,0,0,0,.074,3.129,19.714,19.714,0,0,0,.58,3.453c0,.013.009.026.013.04-.2-.315-.792-1.178-.844-1.239-.746-.862-2.693-2.088-3.867-1.589a1.51,1.51,0,0,0-.669,2.145A3.156,3.156,0,0,0,650.24,364.9Z" transform="translate(-647.533 -348.148)" fill="#263238"/>
        <path id="Path_633" data-name="Path 633" d="M649.256,365.656a10.81,10.81,0,0,0,3.157.349c.023,0-.481-1.466-.523-1.555-.492-1.028-2.046-2.725-3.31-2.555a1.51,1.51,0,0,0-1.212,1.893A3.155,3.155,0,0,0,649.256,365.656Z" transform="translate(-647.323 -355.388)" fill="#263238" opacity="0.3"/>
        <path id="Path_634" data-name="Path 634" d="M695.866,364.565c.019.012.407-1.489.421-1.586.157-1.128-.2-3.4-1.352-3.956a1.51,1.51,0,0,0-2.055.91,3.155,3.155,0,0,0,.545,2.6A10.815,10.815,0,0,0,695.866,364.565Z" transform="translate(-671.278 -353.804)" fill="#263238" opacity="0.3"/>
        <path id="Path_635" data-name="Path 635" d="M650.24,364.9a10.517,10.517,0,0,0,3.107-.488,26.677,26.677,0,0,0,1.213,3.354c.275.637.571,1.27.877,1.9-.182-.267-.347-.5-.374-.535-.746-.862-2.693-2.088-3.867-1.59a1.511,1.511,0,0,0-.669,2.146,3.159,3.159,0,0,0,2.315,1.3,10,10,0,0,0,3.02-.463c.12.241.237.482.358.723.579,1.152,1.161,2.3,1.7,3.443.19.4.361.806.534,1.209-.162-.237-.3-.435-.325-.463-.745-.862-2.693-2.088-3.867-1.589a1.51,1.51,0,0,0-.669,2.145,3.156,3.156,0,0,0,2.315,1.3,9.62,9.62,0,0,0,2.939-.441c.165.419.331.837.472,1.249.09.284.2.551.27.842l.237.849c.131.545.269,1.107.384,1.642.082.372.154.727.227,1.085-.184-.4-.56-1.185-.6-1.247-.606-.965-2.345-2.472-3.581-2.157a1.51,1.51,0,0,0-.987,2.019,3.156,3.156,0,0,0,2.091,1.638,10.361,10.361,0,0,0,3.127-.009c.119.593.229,1.17.324,1.718.2,1.142.356,2.17.475,3.053h.834c-.143-.915-.327-1.993-.566-3.192-.118-.6-.257-1.244-.405-1.9a16.368,16.368,0,0,0,1.745-.82,11.058,11.058,0,0,0,2.543,1.641c-.228.56-.455,1.1-.677,1.611-.435,1-.848,1.892-1.218,2.662h.9c.315-.7.658-1.5,1.015-2.368.234-.568.472-1.179.711-1.809a10.383,10.383,0,0,0,3.119.243,3.158,3.158,0,0,0,2.207-1.478,1.51,1.51,0,0,0-.833-2.087c-1.21-.406-3.056.967-3.732,1.884-.04.054-.408.689-.633,1.094.1-.258.193-.507.289-.774.193-.526.37-1.057.563-1.627l.253-.845c.09-.28.15-.587.228-.884.164-.69.3-1.4.416-2.114a9.915,9.915,0,0,0,2.96.681,3.158,3.158,0,0,0,2.406-1.126,1.51,1.51,0,0,0-.507-2.189c-1.134-.585-3.167.493-3.975,1.3-.051.05-.565.692-.841,1.05.068-.431.138-.861.192-1.3.157-1.265.277-2.551.4-3.832.038-.393.081-.784.122-1.175a10.489,10.489,0,0,0,3.061.718,3.156,3.156,0,0,0,2.405-1.126,1.51,1.51,0,0,0-.507-2.189c-1.134-.585-3.167.493-3.974,1.3-.061.061-.8.986-.977,1.23.091-.862.19-1.72.321-2.562a26.615,26.615,0,0,1,.736-3.37,10.659,10.659,0,0,0,3.078.724,3.156,3.156,0,0,0,2.406-1.126,1.51,1.51,0,0,0-.507-2.189c-1.135-.585-3.167.493-3.975,1.3-.053.053-.617.756-.877,1.1l-.065-.034a19.425,19.425,0,0,1,1.338-3.2c.29-.568.6-1.094.912-1.6a10.162,10.162,0,0,0,2.914,1.025,3.159,3.159,0,0,0,2.515-.855,1.51,1.51,0,0,0-.264-2.232c-1.063-.706-3.2.142-4.092.853-.049.039-.5.486-.82.816.145-.226.289-.462.432-.676.534-.8,1.072-1.507,1.554-2.126.277-.349.534-.66.777-.949a10.1,10.1,0,0,0,3.043-.433,3.157,3.157,0,0,0,1.837-1.918,1.51,1.51,0,0,0-1.263-1.859c-1.268-.137-2.776,1.6-3.239,2.643-.04.09-.505,1.569-.481,1.569h.027c-.24.273-.494.568-.766.9-.5.61-1.052,1.3-1.6,2.1a26.783,26.783,0,0,0-1.664,2.651,19.678,19.678,0,0,0-1.421,3.2c0,.013-.008.027-.011.041.006-.374-.01-1.42-.021-1.5-.146-1.13-1.093-3.227-2.348-3.459a1.51,1.51,0,0,0-1.742,1.42,3.156,3.156,0,0,0,1.212,2.364,10.5,10.5,0,0,0,2.861,1.307,26.734,26.734,0,0,0-.839,3.466c-.122.682-.223,1.374-.316,2.068,0-.323-.011-.612-.017-.653-.147-1.13-1.094-3.227-2.348-3.459a1.51,1.51,0,0,0-1.742,1.42,3.156,3.156,0,0,0,1.212,2.363,10.021,10.021,0,0,0,2.775,1.28c-.033.267-.069.533-.1.8-.153,1.28-.3,2.559-.483,3.808-.064.441-.144.872-.221,1.3,0-.287-.011-.529-.016-.566-.147-1.13-1.093-3.228-2.348-3.459a1.51,1.51,0,0,0-1.741,1.42,3.155,3.155,0,0,0,1.212,2.363,9.635,9.635,0,0,0,2.695,1.254c-.093.44-.185.881-.3,1.3-.082.287-.14.568-.238.851l-.271.839c-.192.527-.386,1.072-.586,1.581-.137.355-.273.691-.41,1.03.069-.437.186-1.3.188-1.37a5.862,5.862,0,0,0-.786-2.853,1.8,1.8,0,0,0-.021-.334,1.51,1.51,0,0,0-1.846-1.281c-1.233.329-2.015,2.493-2.074,3.63,0,.067.041.8.076,1.262-.062-.269-.119-.53-.187-.8-.129-.545-.274-1.086-.428-1.668l-.255-.844c-.079-.283-.2-.573-.3-.863-.244-.666-.523-1.33-.82-1.993a9.925,9.925,0,0,0,2.845-1.065,3.158,3.158,0,0,0,1.385-2.266,1.511,1.511,0,0,0-1.631-1.546c-1.268.138-2.37,2.159-2.6,3.275-.015.07-.09.889-.122,1.34-.182-.4-.36-.794-.557-1.19-.567-1.142-1.176-2.28-1.779-3.418-.185-.349-.365-.7-.547-1.047a10.482,10.482,0,0,0,2.949-1.09,3.157,3.157,0,0,0,1.385-2.266,1.51,1.51,0,0,0-1.631-1.546c-1.269.138-2.369,2.158-2.6,3.274-.018.084-.124,1.263-.136,1.564-.4-.769-.791-1.539-1.145-2.314a26.56,26.56,0,0,1-1.245-3.216,10.676,10.676,0,0,0,2.967-1.094A3.158,3.158,0,0,0,658,361.043a1.51,1.51,0,0,0-1.631-1.546c-1.268.138-2.369,2.159-2.6,3.275-.015.073-.1.972-.126,1.4l-.072.008a19.45,19.45,0,0,1-.649-3.407c-.071-.634-.1-1.244-.122-1.838a10.153,10.153,0,0,0,3-.753,3.157,3.157,0,0,0,1.625-2.1,1.51,1.51,0,0,0-1.451-1.716c-1.276,0-2.592,1.885-2.943,2.969-.019.059-.147.68-.234,1.133,0-.268-.013-.545-.012-.8,0-.965.062-1.849.123-2.63.038-.445.081-.846.125-1.221a10.1,10.1,0,0,0,2.3-2.04,3.157,3.157,0,0,0,.475-2.613,1.51,1.51,0,0,0-2.079-.854c-1.134.586-1.431,2.867-1.244,3.991.016.1.444,1.587.463,1.574l.022-.015c-.05.36-.1.746-.144,1.169-.078.782-.158,1.667-.181,2.635a26.752,26.752,0,0,0,.074,3.129,19.714,19.714,0,0,0,.58,3.453c0,.013.009.026.013.04-.2-.315-.792-1.178-.844-1.239-.746-.862-2.693-2.088-3.867-1.589a1.51,1.51,0,0,0-.669,2.145A3.156,3.156,0,0,0,650.24,364.9Z" transform="translate(-647.533 -348.148)" fill="#263238" opacity="0.3"/>
      </g>
    </g>
    <g id="Character_1" data-name="Character 1" transform="translate(35.2 58.543)">
      <g id="Group_247" data-name="Group 247" transform="translate(0)">
        <g id="Group_244" data-name="Group 244" transform="translate(30.616 56.392)">
          <path id="Path_636" data-name="Path 636" d="M177.94,323.391s.591-.118,5.438-1.537a21.121,21.121,0,0,0,8.276-4.965l-1.537-9.694-9.813,1.419Z" transform="translate(-150.981 -256.83)" fill="#1b9eff" stroke="#263238" stroke-linecap="round" stroke-linejoin="round" stroke-width="1"/>
          <path id="Path_637" data-name="Path 637" d="M124.808,410.944a20.376,20.376,0,0,0-1.892,6.384c-.236,3.074,1.537,4.138,2.128,3.31a16.067,16.067,0,0,0,1.655-5.084l.355-3.9Z" transform="translate(-121.966 -311.517)" fill="#fff" stroke="#263238" stroke-linecap="round" stroke-linejoin="round" stroke-width="1"/>
          <path id="Path_638" data-name="Path 638" d="M218.282,415.439s-.479,4.256-.6,6.265,2.359,3.9,2.714,4.023.709,0,1.3-1.417a12.671,12.671,0,0,0,.245-5.911c-.353-1.065-1.06-2.721-1.06-2.721Z" transform="translate(-171.927 -313.886)" fill="#fff" stroke="#263238" stroke-linecap="round" stroke-linejoin="round" stroke-width="1"/>
          <path id="Path_639" data-name="Path 639" d="M153.5,283.694s-4.772,5.691-6.427,10.42-2.976,10.582-4.095,13.7a77.983,77.983,0,0,0-2.365,8.158s-3.074,3.074-3.9,5.793S126.19,344.58,126.19,344.58s.591.828,1.064.946,1.537-.473,1.537-.473S145.934,322.59,147,320.935s4.422-5.489,4.776-6.081,3.027-8.816,3.972-10a19.524,19.524,0,0,0,1.835-3l.709.473.828.118a112.973,112.973,0,0,1,4.668,10.566c.946,3.074,3.665,19.862,4.374,22.936s1.655,11.113,1.655,11.113a12.978,12.978,0,0,0,1.3.355,7.021,7.021,0,0,0,2.128-.355s2.719-12.3,2.837-16.551-.709-13.714-.709-15.133-2.128-20.926-3.192-23.527-4.611-7.212-4.611-7.212Z" transform="translate(-123.703 -244.443)" fill="#263238" stroke="#263238" stroke-linecap="round" stroke-linejoin="round" stroke-width="1"/>
          <path id="Path_640" data-name="Path 640" d="M190.433,236.444l-7.093,2.246s0,13.714.118,15.487-.828,4.729-.236,5.438a11.74,11.74,0,0,0,8.63,3.665c5.2.118,6.621-1.537,6.621-1.537l1.064-4.611s3.429-9.222,3.429-10.64-3.429-5.557-5.438-7.212S190.433,236.444,190.433,236.444Z" transform="translate(-153.661 -219.538)" fill="#fff" stroke="#263238" stroke-linecap="round" stroke-linejoin="round" stroke-width="1"/>
          <path id="Path_641" data-name="Path 641" d="M144.127,270.694a38.646,38.646,0,0,1-4.729,2.719l-9.458,4.729L131,280.388a60.05,60.05,0,0,1,6.975-.828c3.074-.118,8.276-2.128,8.63-2.719s1.537-3.783,1.537-3.783Z" transform="translate(-125.68 -237.591)" fill="#fff" stroke="#263238" stroke-linecap="round" stroke-linejoin="round" stroke-width="1"/>
          <path id="Path_642" data-name="Path 642" d="M177.319,236.694s-5.084,13.951-5.32,15.96-2.246,7.094-2.365,7.8-3.429,7.921-3.429,7.921,3.547-11.113,3.9-13.359a8.827,8.827,0,0,0-.473-4.256s-2.4,5.086-2.753,5.44-2.76,4.415-2.76,4.415l-4.181-7.846s4.611-8.039,5.557-9.34,2.956-4.847,4.374-5.557S177.319,236.694,177.319,236.694Z" transform="translate(-141.493 -219.67)" fill="#1470b2" stroke="#263238" stroke-linecap="round" stroke-linejoin="round" stroke-width="1"/>
          <path id="Path_643" data-name="Path 643" d="M205.378,240.444s-3.665,15.369-3.665,17.852-.355,10.167-.709,14.423-1.064,17.852-1.064,17.852a29.257,29.257,0,0,0,6.857.236c3.31-.355,8.985-2.6,8.985-2.6s-2.956-14.9-4.138-18.443a89.916,89.916,0,0,1-2.483-9.34c0-.12.367-1.4.936-3.375a82.54,82.54,0,0,0,2.257-8.8C212.354,246.828,206.679,240.8,205.378,240.444Z" transform="translate(-162.577 -221.646)" fill="#1470b2" stroke="#263238" stroke-linecap="round" stroke-linejoin="round" stroke-width="1"/>
          <path id="Path_644" data-name="Path 644" d="M122.041,283.778a5.172,5.172,0,0,0-.494-2.61c-.642-1.271-1-1.664.038-1.383s1.635,2.3,1.635,2.3Z" transform="translate(-120.932 -242.337)" fill="#fff" stroke="#263238" stroke-linecap="round" stroke-linejoin="round" stroke-width="1"/>
          <path id="Path_645" data-name="Path 645" d="M129.928,285.738s-1.352,2.136-2.165,1.941-4.422-2-4.491-2.79.623-3.186,1.216-3.079S129.928,285.738,129.928,285.738Z" transform="translate(-122.163 -243.449)" fill="#fff" stroke="#263238" stroke-linecap="round" stroke-linejoin="round" stroke-width="1"/>
          <g id="Group_243" data-name="Group 243" transform="translate(30.166)">
            <g id="Group_242" data-name="Group 242" transform="translate(4.378 3.411)">
              <path id="Path_646" data-name="Path 646" d="M207.213,208.788a17.671,17.671,0,0,1,.694,2.813,7.981,7.981,0,0,1-.322,1.719,13.332,13.332,0,0,1,2.042,2.149c.107.43-1.074,1.074-1.074,1.074s.107,4.513.107,4.835-5.265.537-5.265.537l-5.48,6.447-2.579-6.34,1.182-3.546s-3.546-2.042-2.257-5.157a8.922,8.922,0,0,1,7.092-5.265,17.045,17.045,0,0,1,5.652.212Z" transform="translate(-193.979 -207.907)" fill="#fff" stroke="#263238" stroke-linecap="round" stroke-linejoin="round" stroke-width="1"/>
              <path id="Path_647" data-name="Path 647" d="M210.71,236.958l-2.7-.514-.158,3.626Z" transform="translate(-201.294 -222.949)" fill="#263238" stroke="#263238" stroke-linecap="round" stroke-linejoin="round" stroke-width="1"/>
              <path id="Path_648" data-name="Path 648" d="M219.726,219.48c0,.374-.14.677-.313.677s-.312-.3-.312-.677.14-.677.312-.677S219.726,219.106,219.726,219.48Z" transform="translate(-207.221 -213.65)" fill="#263238"/>
              <path id="Path_649" data-name="Path 649" d="M218.219,217.476s.313-.625,1.458-.313" transform="translate(-206.756 -212.74)" fill="none" stroke="#263238" stroke-linecap="round" stroke-linejoin="round" stroke-width="1"/>
              <path id="Path_650" data-name="Path 650" d="M221.637,227.915s-1.354.208-1.876-.521" transform="translate(-207.569 -218.178)" fill="none" stroke="#263238" stroke-linecap="round" stroke-linejoin="round" stroke-width="1"/>
            </g>
            <path id="Path_651" data-name="Path 651" d="M202.6,206.295s-3.546-.859-4.191.43-.107,1.934-.645,3.116a10.161,10.161,0,0,1-2.579,2.687s-1.934-2.149-2.579-1.074a2.855,2.855,0,0,0,.215,3.223c.645.537,2.471.215,2.471.215L192.5,216.18s.107,1.612-2.471,2.257-5.7-1.075-5.265-3.224,3.976-3.438,3.976-3.438-3.761-4.62-.645-8.059,9.24-1.826,9.24-1.826.86-.967,3.331-1.182,3.546,2.257,3.546,3.654S202.6,206.295,202.6,206.295Z" transform="translate(-184.721 -200.694)" fill="#263238" stroke="#263238" stroke-linecap="round" stroke-linejoin="round" stroke-width="1"/>
          </g>
        </g>
        <g id="Group_245" data-name="Group 245">
          <path id="Path_652" data-name="Path 652" d="M313.82,109.838l-1.263-24.392-20.968,11.4.473,1.892,7.93,4.047L262.673,175.9,144.24,208.1,62.366,152.227a3.31,3.31,0,1,0-3.732,5.468l83.134,56.735a3.311,3.311,0,0,0,2.734.46L265.824,181.9a3.314,3.314,0,0,0,2.08-1.689l37.985-74.425Z" transform="translate(-56.717 -83.554)" fill="#263238" stroke="#263238" stroke-linecap="round" stroke-linejoin="round" stroke-width="1"/>
          <path id="Path_653" data-name="Path 653" d="M312.82,105.838l-1.263-24.392L291.062,94.733l7.93,4.047L261.673,171.9,143.24,204.1,61.366,148.227a3.31,3.31,0,0,0-3.732,5.468l83.134,56.735a3.311,3.311,0,0,0,2.734.46L264.824,177.9a3.314,3.314,0,0,0,2.08-1.689l37.985-74.425Z" transform="translate(-56.19 -81.446)" fill="#bf3efe" stroke="#263238" stroke-linecap="round" stroke-linejoin="round" stroke-width="1"/>
          <path id="Path_654" data-name="Path 654" d="M312.043,90.351l-13.622,8.832,6.388,3.26L265.94,178.6l-120.5,32.762L62.669,154.874a.926.926,0,0,0-.53-.165.946.946,0,0,0-.536,1.727l83.134,56.735a.942.942,0,0,0,.533.165.93.93,0,0,0,.248-.033l121.322-32.986a.948.948,0,0,0,.594-.483l39.06-76.531,6.389,3.261Z" transform="translate(-58.826 -86.14)" fill="#fff"/>
        </g>
        <g id="Group_246" data-name="Group 246" transform="translate(63.836 80.228)">
          <path id="Path_655" data-name="Path 655" d="M203.3,294.649l-.646,2.511a28.9,28.9,0,0,1-2.543,4.038c-1.563,2.069-7.167,7.834-7.167,7.834l-1.583,1.953-.184,1.711,1.285.5s.643.249,1.169.519a3.245,3.245,0,0,0,2.314.2,14.025,14.025,0,0,0,1.422-2.884l.378-1.985s6.657-5.227,8.184-6.809a21,21,0,0,0,3.282-3.925c.442-.916.076-3.732.076-3.732Z" transform="translate(-191.179 -274.015)" fill="#fff" stroke="#263238" stroke-linecap="round" stroke-linejoin="round" stroke-width="1"/>
          <path id="Path_656" data-name="Path 656" d="M215.141,259.642,213.947,272.2a26.944,26.944,0,0,0,3.407.972c1.868.4,5.769-.635,5.769-.635s-.6-10.453-1.381-14.278-2.953-6.689-4.355-7.168" transform="translate(-203.18 -251.097)" fill="#1470b2" stroke="#263238" stroke-linecap="round" stroke-linejoin="round" stroke-width="1"/>
        </g>
      </g>
    </g>
    <g id="Flor" transform="translate(24.324 224.057)">
      <g id="Group_248" data-name="Group 248">
        <line id="Line_51" data-name="Line 51" x2="85.595" transform="translate(236.45)" fill="none" stroke="#263238" stroke-linecap="round" stroke-linejoin="round" stroke-width="1"/>
        <line id="Line_52" data-name="Line 52" x2="6.148" transform="translate(226.046)" fill="none" stroke="#263238" stroke-linecap="round" stroke-linejoin="round" stroke-width="1"/>
        <line id="Line_53" data-name="Line 53" x2="149.436" transform="translate(71.408)" fill="none" stroke="#263238" stroke-linecap="round" stroke-linejoin="round" stroke-width="1"/>
        <line id="Line_54" data-name="Line 54" x2="67.152" fill="none" stroke="#263238" stroke-linecap="round" stroke-linejoin="round" stroke-width="1"/>
      </g>
    </g>
  </g>
</svg>
