<svg xmlns="http://www.w3.org/2000/svg" xmlns:xlink="http://www.w3.org/1999/xlink" width="290.27" height="193.464" viewBox="0 0 290.27 193.464">
  <defs>
    <clipPath id="clip-path">
      <path id="Path_262" data-name="Path 262" d="M324.505,142.031s-.774,1.728-1.862,3.959l-.006.012c-1.887,3.864-5.839,9.06-13.384,8.68-12.267-.971-15.855-14.768-15.855-14.768s.237-5.473-2.448-7.3-5.844-20.922-5.844-20.922l9.229-15.57,9.189,3.358,12.765,4.671,4.323,3.159.231,6.818-4.906,5.353s1.5,12.06.937,16.058C316.359,139.187,324.505,142.031,324.505,142.031Z" transform="translate(-285.107 -96.122)" fill="#263238" opacity="0.2"/>
    </clipPath>
  </defs>
  <g id="Group_67" data-name="Group 67" transform="translate(-44.762 -28.744)">
    <g id="Plants" transform="translate(44.762 145.397)">
      <g id="freepik--Plants--inject-32">
        <path id="Path_215" data-name="Path 215" d="M439.363,399.758c-.029,0,.522-1.768.569-1.874.551-1.244,2.357-3.325,3.861-3.165a1.8,1.8,0,0,1,1.547,2.028,1.758,1.758,0,0,1-.036.189,3.766,3.766,0,0,1-2.187,2.3A13,13,0,0,1,439.363,399.758Z" transform="translate(-267.31 -351.796)" fill="#263238"/>
        <g id="Group_24" data-name="Group 24" transform="translate(251.562)">
          <path id="Path_216" data-name="Path 216" d="M697.285,355.3a12.932,12.932,0,0,1-2.873-2.478s1.673-.765,1.785-.8c1.3-.406,4.045-.421,4.925.818a1.8,1.8,0,0,1-.671,2.6A3.763,3.763,0,0,1,697.285,355.3Z" transform="translate(-662.716 -327.581)" fill="#263238"/>
          <path id="Path_217" data-name="Path 217" d="M628.162,335.157c-.674.488-1.293.951-1.851,1.382l-1.035-.283c.7-.526,1.526-1.111,2.427-1.747.528-.366,1.1-.75,1.692-1.135a17.542,17.542,0,0,1-.705-1.888,11.7,11.7,0,0,1-3.115-.623c-.238.589-.462,1.163-.666,1.709-.465,1.233-.844,2.336-1.151,3.269l-.853-.233c.332-.948.747-2.072,1.248-3.325.24-.6.506-1.233.787-1.881a10.947,10.947,0,0,1-2.529-2.094,3.305,3.305,0,0,1-.583-2.726,1.585,1.585,0,0,1,2-1.023,1.538,1.538,0,0,1,.156.06c1.208.578,1.595,2.96,1.436,4.145-.018.065-.2.818-.321,1.284.118-.274.225-.522.345-.792.241-.545.494-1.069.755-1.642q.211-.4.426-.818c.135-.269.316-.552.475-.832.38-.642.8-1.27,1.231-1.9a10.512,10.512,0,0,1-2.73-1.648,3.3,3.3,0,0,1-.989-2.605,1.586,1.586,0,0,1,1.807-1.328,1.547,1.547,0,0,1,.177.038c1.281.387,2.014,2.69,2.05,3.879,0,.074-.082.934-.134,1.406.264-.374.525-.749.8-1.118.806-1.069,1.654-2.126,2.5-3.182q.385-.486.764-.974a11.184,11.184,0,0,1-2.831-1.691,3.327,3.327,0,0,1-.989-2.605,1.585,1.585,0,0,1,1.807-1.328,1.652,1.652,0,0,1,.178.037c1.281.387,2.014,2.69,2.047,3.878,0,.089-.116,1.328-.161,1.639.562-.714,1.113-1.434,1.628-2.164a28.259,28.259,0,0,0,1.908-3.078,10.848,10.848,0,0,1-2.851-1.7,3.313,3.313,0,0,1-.989-2.6,1.588,1.588,0,0,1,1.813-1.327,1.524,1.524,0,0,1,.172.036c1.281.387,2.014,2.69,2.046,3.881,0,.077-.087,1.021-.139,1.469l.074.02a20.341,20.341,0,0,0,1.327-3.386c.2-.64.346-1.265.482-1.873a10.717,10.717,0,0,1-2.944-1.356,3.244,3.244,0,0,1-1.27-2.486,1.586,1.586,0,0,1,1.662-1.506,1.484,1.484,0,0,1,.17.017c1.314.243,2.307,2.446,2.46,3.631.01.064.021.729.023,1.213.057-.275.119-.56.167-.825.184-.995.293-1.918.381-2.734.048-.467.082-.894.107-1.285a10.6,10.6,0,0,1-1.976-2.548,3.275,3.275,0,0,1,.016-2.785,1.586,1.586,0,0,1,2.168-.573,1.5,1.5,0,0,1,.142.093c1.055.823.921,3.234.51,4.356-.027.1-.766,1.55-.783,1.534l-.023-.007c-.018.38-.041.787-.077,1.232-.072.824-.172,1.747-.322,2.753a28.315,28.315,0,0,1-.683,3.211,20.874,20.874,0,0,1-1.25,3.453l-.012.043c.268-.287,1.045-1.062,1.111-1.114.934-.747,3.182-1.635,4.3-.894a1.586,1.586,0,0,1,.381,2.21,1.563,1.563,0,0,1-.105.133,3.311,3.311,0,0,1-2.64.894,11.105,11.105,0,0,1-3.111-1.1,28.207,28.207,0,0,1-1.9,3.224c-.406.6-.835,1.2-1.272,1.791.24-.24.454-.453.488-.478.934-.746,3.179-1.636,4.3-.893a1.583,1.583,0,0,1,.385,2.2,1.52,1.52,0,0,1-.109.138,3.306,3.306,0,0,1-2.638.9,10.659,10.659,0,0,1-3.025-1.06c-.172.225-.337.452-.508.674-.82,1.077-1.642,2.148-2.41,3.225-.272.381-.518.775-.784,1.145.215-.213.394-.39.42-.417.934-.744,3.178-1.633,4.3-.89a1.583,1.583,0,0,1,.385,2.2,1.628,1.628,0,0,1-.109.137,3.314,3.314,0,0,1-2.637.9,9.9,9.9,0,0,1-2.947-1.023c-.249.4-.5.8-.728,1.2-.143.266-.306.527-.439.814l-.411.832c-.241.545-.49,1.088-.711,1.617-.159.369-.3.722-.444,1.077.266-.38.806-1.115.858-1.171a6.154,6.154,0,0,1,2.677-1.575,1.723,1.723,0,0,1,.26-.235,1.58,1.58,0,0,1,2.324.382c.691,1.148-.3,3.348-1.089,4.249-.046.055-.612.572-.978.894.245-.156.476-.31.739-.467.5-.317,1-.617,1.538-.942l.811-.45c.266-.157.567-.285.852-.433.672-.324,1.367-.619,2.08-.9a10.176,10.176,0,0,1-1.353-2.876,3.351,3.351,0,0,1,.613-2.72,1.583,1.583,0,0,1,2.237-.09,1.672,1.672,0,0,1,.12.123c.855,1.029.21,3.354-.433,4.364-.039.063-.58.736-.885,1.1.425-.168.85-.336,1.287-.491,1.262-.446,2.551-.858,3.838-1.275l1.176-.39a10.623,10.623,0,0,1-1.426-2.975,3.3,3.3,0,0,1,.612-2.717,1.586,1.586,0,0,1,2.241-.085,1.624,1.624,0,0,1,.115.118c.855,1.031.209,3.357-.433,4.367-.048.075-.829,1.041-1.04,1.277.864-.286,1.721-.583,2.552-.906a28.5,28.5,0,0,0,3.29-1.514,11.019,11.019,0,0,1-1.437-2.991,3.319,3.319,0,0,1,.61-2.721,1.586,1.586,0,0,1,2.241-.085c.04.038.078.077.115.119.857,1.032.209,3.357-.431,4.368-.042.065-.638.8-.924,1.147l.048.059a20.171,20.171,0,0,0,2.978-2.095c.516-.424.987-.86,1.433-1.295a10.624,10.624,0,0,1-1.706-2.755,3.261,3.261,0,0,1,.308-2.77,1.586,1.586,0,0,1,2.217-.338,1.5,1.5,0,0,1,.129.106c.968.931.576,3.314.05,4.386-.017.063-.386.619-.65,1.026.2-.2.415-.4.594-.6.7-.725,1.31-1.438,1.829-2.073.295-.362.557-.7.794-1a10.588,10.588,0,0,1-.242-3.216,3.312,3.312,0,0,1,1.553-2.325,1.588,1.588,0,0,1,2.126.726,1.537,1.537,0,0,1,.064.149c.425,1.271-1.015,3.206-1.987,3.914-.081.061-1.492.872-1.5.847l-.008-.027c-.225.308-.479.633-.743.985-.514.648-1.1,1.374-1.8,2.117a27.9,27.9,0,0,1-2.341,2.3,20.655,20.655,0,0,1-2.958,2.179.276.276,0,0,0-.036.021c.379-.092,1.457-.31,1.541-.317,1.19-.105,3.559.393,4.075,1.625a1.579,1.579,0,0,1-1.065,2.1,3.307,3.307,0,0,1-2.694-.706,11.164,11.164,0,0,1-1.986-2.636,28.2,28.2,0,0,1-3.361,1.641c-.686.274-1.37.542-2.049.79a4.809,4.809,0,0,1,.672-.122c1.19-.105,3.558.4,4.074,1.628a1.584,1.584,0,0,1-1.064,2.1,3.308,3.308,0,0,1-2.694-.709,10.551,10.551,0,0,1-1.938-2.556l-.8.286c-1.277.445-2.555.884-3.795,1.351-.437.168-.859.346-1.286.522l.584-.112c1.19-.105,3.558.4,4.074,1.628a1.582,1.582,0,0,1-.9,2.051,1.69,1.69,0,0,1-.165.055,3.326,3.326,0,0,1-2.7-.71,9.544,9.544,0,0,1-1.892-2.479c-.427.189-.862.391-1.266.6-.276.148-.551.271-.819.436l-.8.466c-.5.317-1.009.641-1.485.96-.331.215-.647.434-.964.653.439-.186,1.288-.485,1.36-.5,1.165-.293,3.571-.151,4.273.991a1.586,1.586,0,0,1-.577,2.167,1.673,1.673,0,0,1-.153.078,3.312,3.312,0,0,1-2.773-.294,10.961,10.961,0,0,1-2.35-2.29C629.138,334.462,628.632,334.815,628.162,335.157Z" transform="translate(-621.716 -296.287)" fill="#263238"/>
        </g>
        <g id="Group_25" data-name="Group 25" transform="translate(0 6.092)">
          <path id="Path_218" data-name="Path 218" d="M48.395,361.114a11.46,11.46,0,0,0,2.636-2.1s-1.458-.742-1.557-.779c-1.138-.4-3.575-.517-4.409.56a1.6,1.6,0,0,0,.362,2.234,1.626,1.626,0,0,0,.145.093A3.364,3.364,0,0,0,48.395,361.114Z" transform="translate(-44.762 -337.155)" fill="#263238"/>
          <path id="Path_219" data-name="Path 219" d="M83.914,328.03c.023-.005-.808-1.422-.87-1.508-.726-.963-2.7-2.4-3.977-1.961a1.6,1.6,0,0,0-.864,2.222,3.347,3.347,0,0,0,2.355,1.544A11.413,11.413,0,0,0,83.914,328.03Z" transform="translate(-63.524 -318.279)" fill="#263238"/>
          <path id="Path_220" data-name="Path 220" d="M73.861,345.088c.581.455,1.114.888,1.595,1.291l.93-.216c-.607-.491-1.31-1.045-2.094-1.632-.458-.344-.953-.7-1.458-1.069a15.454,15.454,0,0,0,.7-1.654,9.888,9.888,0,0,0,2.787-.444c.19.531.368,1.049.53,1.541.369,1.11.669,2.1.91,2.942l.752-.175c-.26-.847-.59-1.866-1-3-.192-.539-.407-1.116-.63-1.7a9.536,9.536,0,0,0,2.312-1.771,2.959,2.959,0,0,0,.614-2.4,1.406,1.406,0,0,0-1.731-.978,1.432,1.432,0,0,0-.146.049c-1.1.47-1.521,2.574-1.421,3.631.014.06.146.732.243,1.154-.095-.238-.182-.472-.281-.716-.194-.484-.4-.963-.622-1.48-.117-.245-.233-.494-.351-.742s-.262-.5-.393-.756c-.314-.584-.662-1.156-1.027-1.728a9.03,9.03,0,0,0,2.478-1.368,3.037,3.037,0,0,0,.983-2.282,1.409,1.409,0,0,0-1.569-1.229,1.384,1.384,0,0,0-.147.026c-1.141.3-1.884,2.31-1.941,3.37,0,.067.039.832.07,1.252-.222-.342-.44-.682-.676-1.02-.678-.978-1.394-1.942-2.1-2.913-.219-.294-.44-.591-.648-.89a9.594,9.594,0,0,0,2.573-1.4,3.012,3.012,0,0,0,.983-2.283,1.413,1.413,0,0,0-1.714-1.206c-1.141.3-1.884,2.313-1.941,3.373-.006.08.057,1.182.088,1.459-.476-.655-.939-1.31-1.367-1.98a24.661,24.661,0,0,1-1.584-2.8,9.641,9.641,0,0,0,2.586-1.411,3.009,3.009,0,0,0,.983-2.283,1.409,1.409,0,0,0-1.566-1.231,1.314,1.314,0,0,0-.148.026c-1.141.3-1.884,2.313-1.94,3.373-.006.068.039.9.073,1.308l-.066.016a18.2,18.2,0,0,1-1.152-3.037c-.15-.57-.262-1.131-.362-1.677a9.031,9.031,0,0,0,2.661-1.1,2.9,2.9,0,0,0,1.215-2.158,1.412,1.412,0,0,0-1.427-1.4,1.31,1.31,0,0,0-.144.009c-1.171.171-2.135,2.092-2.3,3.135-.008.057-.043.648-.053,1.077-.039-.248-.086-.5-.12-.741-.128-.878-.195-1.713-.243-2.443-.027-.414-.041-.789-.05-1.141a9.435,9.435,0,0,0,1.842-2.194,2.914,2.914,0,0,0,.083-2.473,1.408,1.408,0,0,0-1.905-.582,1.341,1.341,0,0,0-.127.076c-.968.693-.932,2.839-.619,3.853.021.089.628,1.4.626,1.392l.023-.006c0,.338.008.7.025,1.1.033.73.08,1.558.191,2.455a24.967,24.967,0,0,0,.494,2.875,18.458,18.458,0,0,0,1,3.1l.008.034c-.225-.251-.889-.977-.947-1.027-.805-.693-2.781-1.557-3.782-.938a1.406,1.406,0,0,0-.416,1.944,1.5,1.5,0,0,0,.091.125,2.929,2.929,0,0,0,2.323.883,9.821,9.821,0,0,0,2.8-.87,24.739,24.739,0,0,0,1.586,2.924c.339.55.7,1.094,1.066,1.635-.206-.222-.4-.416-.406-.445-.805-.694-2.767-1.561-3.782-.938a1.406,1.406,0,0,0-.416,1.944,1.5,1.5,0,0,0,.091.125,2.929,2.929,0,0,0,2.323.883,9.514,9.514,0,0,0,2.722-.837c.142.206.283.412.428.618.691.983,1.384,1.963,2.033,2.944.232.346.443.7.663,1.056-.182-.2-.338-.36-.364-.382-.805-.693-2.782-1.557-3.782-.938a1.406,1.406,0,0,0-.416,1.944,1.437,1.437,0,0,0,.091.125,2.933,2.933,0,0,0,2.323.883,8.773,8.773,0,0,0,2.651-.806c.208.363.42.726.6,1.088.122.25.257.482.365.739s.223.5.334.751c.194.484.4.985.576,1.464.128.33.242.649.358.97-.226-.347-.678-1.017-.723-1.07a5.461,5.461,0,0,0-2.365-1.506,1.653,1.653,0,0,0-.22-.218,1.409,1.409,0,0,0-1.987.141c-.033.038-.063.077-.092.118-.652,1,.152,2.991.818,3.813.041.048.525.529.839.828-.213-.147-.413-.294-.636-.458-.429-.3-.864-.583-1.337-.9l-.7-.426c-.231-.149-.493-.273-.743-.414-.583-.31-1.192-.6-1.809-.872a8.983,8.983,0,0,0,1.312-2.51,2.933,2.933,0,0,0-.447-2.435,1.408,1.408,0,0,0-1.986-.162,1.44,1.44,0,0,0-.109.1c-.8.884-.3,2.972.228,3.881.034.055.492.672.751,1.005-.374-.164-.745-.329-1.128-.48-1.1-.439-2.234-.852-3.362-1.268l-1.025-.349a9.8,9.8,0,0,0,1.368-2.593,2.942,2.942,0,0,0-.447-2.435,1.409,1.409,0,0,0-1.986-.162,1.361,1.361,0,0,0-.109.1c-.794.883-.3,2.971.232,3.879.04.069.7.954.876,1.17-.756-.284-1.5-.577-2.235-.894a24.28,24.28,0,0,1-2.863-1.454,9.886,9.886,0,0,0,1.377-2.6,2.933,2.933,0,0,0-.447-2.435,1.409,1.409,0,0,0-1.986-.162,1.366,1.366,0,0,0-.109.1c-.794.883-.3,2.972.232,3.879.034.059.536.735.782,1.05l-.046.05a18.28,18.28,0,0,1-2.573-1.962c-.443-.394-.845-.8-1.228-1.2A9.746,9.746,0,0,0,54,329.933a2.893,2.893,0,0,0-.18-2.47,1.406,1.406,0,0,0-1.952-.379c-.042.028-.082.059-.121.091-.887.793-.629,2.923-.2,3.894.013.055.321.561.543.93-.169-.181-.349-.37-.508-.548-.6-.672-1.106-1.323-1.549-1.9-.252-.332-.472-.638-.674-.924a9.484,9.484,0,0,0,.329-2.848,2.949,2.949,0,0,0-1.3-2.119,1.409,1.409,0,0,0-1.91.566,1.386,1.386,0,0,0-.064.133c-.422,1.114.79,2.882,1.621,3.557.074.058,1.3.825,1.3.8a.082.082,0,0,0-.006-.023c.19.283.4.579.63.9.44.591.927,1.258,1.513,1.942a24.829,24.829,0,0,0,2.006,2.124,18.309,18.309,0,0,0,2.548,2.038l.035.019c-.325-.1-1.286-.325-1.358-.335-1.053-.134-3.167.226-3.673,1.3a1.406,1.406,0,0,0,.712,1.857,1.478,1.478,0,0,0,.159.059,2.976,2.976,0,0,0,2.418-.534,9.824,9.824,0,0,0,1.854-2.273,24.85,24.85,0,0,0,2.931,1.574c.586.272,1.184.527,1.789.774l-.592-.141c-1.054-.133-3.17.227-3.673,1.3a1.409,1.409,0,0,0,.718,1.858,1.345,1.345,0,0,0,.153.058,2.974,2.974,0,0,0,2.417-.537,9.258,9.258,0,0,0,1.81-2.2l.7.28c1.118.44,2.236.876,3.337,1.344.382.159.752.334,1.124.5-.26-.064-.48-.113-.514-.117-1.054-.136-3.167.224-3.674,1.3a1.409,1.409,0,0,0,.72,1.858,1.387,1.387,0,0,0,.154.057,2.974,2.974,0,0,0,2.417-.536,8.609,8.609,0,0,0,1.765-2.134c.376.188.749.374,1.1.573.241.141.481.261.7.418l.708.441c.429.3.874.6,1.288.911.29.208.561.409.831.612-.377-.164-1.126-.471-1.191-.492-1.021-.293-3.164-.259-3.827.73a1.409,1.409,0,0,0,.44,1.943,1.447,1.447,0,0,0,.13.073,2.949,2.949,0,0,0,2.47-.162,9.809,9.809,0,0,0,2.167-1.955C73.032,344.436,73.457,344.77,73.861,345.088Z" transform="translate(-45.646 -310.258)" fill="#263238"/>
        </g>
      </g>
    </g>
    <g id="Background_Simple" data-name="Background Simple" transform="translate(73.99 28.744)">
      <g id="Group_26" data-name="Group 26">
        <path id="Path_221" data-name="Path 221" d="M305.437,37.636c-25.754-15.245-60.023-9.879-84.158,8.422C204.014,59.149,187.994,74.4,168.291,83.415c-15.139,6.925-32.441,10.251-43.734,23.394-17.684,20.58-15.326,49.592-3.044,72.251,14.25,26.292,40.109,38.109,68.94,41.868,28.72,3.745,58.972-.559,84.171-15.342,33.58-19.7,51.576-57.353,57.974-94.612C337.42,82.887,331.52,53.077,305.437,37.636Z" transform="translate(-111.796 -28.744)" fill="#c7e7ff"/>
        <path id="Path_222" data-name="Path 222" d="M274.623,205.587c33.58-19.7,51.576-57.353,57.974-94.612C337.42,82.887,249.424,220.371,274.623,205.587Z" transform="translate(-111.796 -28.744)" fill="#1b9eff" opacity="0.7"/>
      </g>
    </g>
    <g id="Interface" transform="translate(74.664 51.587)">
      <g id="Capa_6" data-name="Capa 6" transform="translate(0)">
        <g id="Group_27" data-name="Group 27">
          <path id="Path_223" data-name="Path 223" d="M339.55,87.816V230.683a6.682,6.682,0,0,1-6.682,6.681H120.023a6.681,6.681,0,0,1-6.681-6.681V87.816c0-.1,0-.191.007-.282a6.679,6.679,0,0,1,6.33-6.391c.115,0,.229-.008.344-.008H332.868c.115,0,.229,0,.344.008a6.679,6.679,0,0,1,6.33,6.391C339.546,87.626,339.55,87.721,339.55,87.816Z" transform="translate(-113.342 -81.135)" fill="#fff" stroke="#263238" stroke-linecap="round" stroke-linejoin="round" stroke-width="1"/>
          <path id="Path_224" data-name="Path 224" d="M339.552,87.534H113.359a6.679,6.679,0,0,1,6.33-6.391c.115,0,.229-.008.344-.008H332.878c.115,0,.229,0,.344.008A6.679,6.679,0,0,1,339.552,87.534Z" transform="translate(-113.352 -81.135)" fill="#1470b2" stroke="#263238" stroke-miterlimit="10" stroke-width="1"/>
          <path id="Path_225" data-name="Path 225" d="M137.2,87.118a1.047,1.047,0,1,1-1.047-1.047A1.047,1.047,0,0,1,137.2,87.118Z" transform="translate(-125.614 -83.919)" fill="#263238"/>
          <path id="Path_226" data-name="Path 226" d="M146.656,87.118a1.047,1.047,0,1,1-1.047-1.047A1.047,1.047,0,0,1,146.656,87.118Z" transform="translate(-130.95 -83.919)" fill="#263238"/>
          <path id="Path_227" data-name="Path 227" d="M156.116,87.118a1.047,1.047,0,1,1-1.047-1.047A1.047,1.047,0,0,1,156.116,87.118Z" transform="translate(-136.285 -83.919)" fill="#263238"/>
        </g>
      </g>
      <g id="Group_28" data-name="Group 28" transform="translate(6.044 65.091)">
        <circle id="Ellipse_2" data-name="Ellipse 2" cx="5.368" cy="5.368" r="5.368" fill="#fff" stroke="#263238" stroke-linecap="round" stroke-linejoin="round" stroke-width="1"/>
        <path id="Path_228" data-name="Path 228" d="M138.392,235.464l-2.654,3.168,2.654,2.573" transform="translate(-132.017 -233.265)" fill="#fff" stroke="#263238" stroke-linecap="round" stroke-linejoin="round" stroke-width="1"/>
      </g>
    </g>
    <g id="Progress_bar" data-name="Progress bar" transform="translate(97.968 179.653)">
      <g id="Group_45" data-name="Group 45">
        <g id="Group_34" data-name="Group 34" transform="translate(93.498 11.869)">
          <g id="Group_31" data-name="Group 31">
            <g id="Group_29" data-name="Group 29">
              <path id="Path_229" data-name="Path 229" d="M384.858,402.124a3.134,3.134,0,0,0,2.007,3.3V410s-4.078.8-5.049.214c-.66-.4-.632-2.467-.546-3.753a1.205,1.205,0,0,1,1.1-1.122l1.319-.11S383.369,401.607,384.858,402.124Z" transform="translate(-381.224 -402.074)" fill="#263238"/>
              <rect id="Rectangle_699" data-name="Rectangle 699" width="1.489" height="4.855" transform="translate(6.245 3.158)" fill="#263238"/>
            </g>
            <g id="Group_30" data-name="Group 30" transform="translate(9.923 3.329)">
              <path id="Path_230" data-name="Path 230" d="M405.989,412.579v.386a1,1,0,1,1-2.007,0v-.124l.606-.059v.136c0,.333.142.476.386.476a.363.363,0,0,0,.386-.416v-.434c0-.332-.143-.475-.475-.475h-.25v-.594h.208c.332,0,.475-.143.475-.475v-.32a.331.331,0,0,0-.357-.375c-.225,0-.356.131-.356.434v.095H404v-.142a.974.974,0,1,1,1.948,0v.273a.933.933,0,0,0,.041,1.615Z" transform="translate(-403.982 -409.71)" fill="#263238"/>
              <path id="Path_231" data-name="Path 231" d="M409.747,412.983v-2.269a1.01,1.01,0,0,1,2.02,0v2.269a1.01,1.01,0,0,1-2.02,0Zm1.39,0v-2.269a.381.381,0,1,0-.76,0v2.269a.381.381,0,1,0,.76,0Z" transform="translate(-407.233 -409.71)" fill="#263238"/>
              <path id="Path_232" data-name="Path 232" d="M419.405,412.293l-.237.457V414h-.63v-4.158h.63v1.687l.831-1.687h.678l-.885,1.765.95,2.393h-.677Z" transform="translate(-412.191 -409.787)" fill="#263238"/>
            </g>
          </g>
          <g id="Group_33" data-name="Group 33" transform="translate(24.695 2.349)">
            <path id="Path_233" data-name="Path 233" d="M441.495,415.767a3.135,3.135,0,0,1,2.007-3.3v-4.576s-4.078-.8-5.049-.214c-.66.4-.632,2.467-.546,3.753a1.205,1.205,0,0,0,1.1,1.121l1.319.11S440.006,416.284,441.495,415.767Z" transform="translate(-437.861 -407.462)" fill="#263238"/>
            <rect id="Rectangle_700" data-name="Rectangle 700" width="1.489" height="4.855" transform="translate(6.463 0.343)" fill="#263238"/>
            <g id="Group_32" data-name="Group 32" transform="translate(11.002 0.983)">
              <path id="Path_234" data-name="Path 234" d="M463.807,410.736h-.713v-.44a1.06,1.06,0,0,0,.9-.457h.439V414h-.629Z" transform="translate(-463.094 -409.786)" fill="#263238"/>
              <path id="Path_235" data-name="Path 235" d="M468.094,413.334h1.247v.594h-2v-.546l.921-1.467a2.082,2.082,0,0,0,.446-1.152c0-.291-.136-.451-.38-.451s-.38.16-.38.451v.244h-.606v-.2a.963.963,0,0,1,.992-1.093.937.937,0,0,1,1,1.027,2.651,2.651,0,0,1-.558,1.491Z" transform="translate(-465.492 -409.717)" fill="#263238"/>
              <path id="Path_236" data-name="Path 236" d="M472.975,413.046v-.125l.606-.059V413c0,.332.143.463.374.463s.374-.131.374-.4V412.1c0-.244-.131-.362-.332-.362a.379.379,0,0,0-.392.409v.072H473v-2.376h1.8v.594H473.6v1.034a.686.686,0,0,1,.6-.3.745.745,0,0,1,.754.838v1.045a.992.992,0,1,1-1.984,0Z" transform="translate(-468.667 -409.786)" fill="#263238"/>
            </g>
          </g>
        </g>
        <g id="Group_35" data-name="Group 35" transform="translate(44.469 14.123)">
          <path id="Path_237" data-name="Path 237" d="M268.777,412.871v-3.2h1.634l2.483-2.418v7.581l-2.059-2.091Z" transform="translate(-268.777 -407.248)" fill="#263238"/>
          <path id="Path_238" data-name="Path 238" d="M281.82,413.053a2.411,2.411,0,0,1-1.508,2.239v-4.479A2.412,2.412,0,0,1,281.82,413.053Z" transform="translate(-275.282 -409.257)" fill="#263238"/>
          <path id="Path_239" data-name="Path 239" d="M279.744,407.244a3.854,3.854,0,0,1,.238,7.543" transform="translate(-274.962 -407.244)" fill="none" stroke="#263238" stroke-miterlimit="10" stroke-width="1"/>
        </g>
        <g id="Group_44" data-name="Group 44">
          <g id="Group_39" data-name="Group 39" transform="translate(2.529 14.586)">
            <g id="Group_36" data-name="Group 36" transform="translate(14.154 0.215)">
              <path id="Path_240" data-name="Path 240" d="M205.759,415.493h0a.71.71,0,0,1-.71-.71V409.51a.71.71,0,0,1,.71-.71h0a.71.71,0,0,1,.71.71v5.273A.71.71,0,0,1,205.759,415.493Z" transform="translate(-205.049 -408.8)" fill="#263238"/>
              <path id="Path_241" data-name="Path 241" d="M212.271,415.493h0a.71.71,0,0,1-.71-.71V409.51a.71.71,0,0,1,.71-.71h0a.71.71,0,0,1,.71.71v5.273A.71.71,0,0,1,212.271,415.493Z" transform="translate(-208.722 -408.8)" fill="#263238"/>
            </g>
            <g id="Group_37" data-name="Group 37" transform="translate(0 0.281)">
              <path id="Path_242" data-name="Path 242" d="M173.3,408.952h0a.716.716,0,0,1,.715.716v5.315a.716.716,0,0,1-.715.716h0a.715.715,0,0,1-.716-.716v-5.315A.715.715,0,0,1,173.3,408.952Z" transform="translate(-172.588 -408.952)" fill="#263238"/>
              <path id="Path_243" data-name="Path 243" d="M180.889,409.885v5.571a.292.292,0,0,1-.473.229l-3.678-2.909a.292.292,0,0,1,.01-.466l3.678-2.661A.292.292,0,0,1,180.889,409.885Z" transform="translate(-174.866 -409.313)" fill="#263238"/>
            </g>
            <g id="Group_38" data-name="Group 38" transform="translate(26.475)">
              <path id="Path_244" data-name="Path 244" d="M244.551,415.053h0a.716.716,0,0,1-.707-.724l.064-5.315a.715.715,0,0,1,.724-.707h0a.715.715,0,0,1,.707.724l-.064,5.314A.715.715,0,0,1,244.551,415.053Z" transform="translate(-239.25 -408.307)" fill="#263238"/>
              <path id="Path_245" data-name="Path 245" d="M233.308,414.742l.067-5.571a.292.292,0,0,1,.476-.223l3.643,2.954a.292.292,0,0,1-.016.465l-3.71,2.617A.292.292,0,0,1,233.308,414.742Z" transform="translate(-233.308 -408.631)" fill="#263238"/>
            </g>
          </g>
          <g id="Group_43" data-name="Group 43">
            <rect id="Rectangle_701" data-name="Rectangle 701" width="132.082" height="9.055" rx="4.528" fill="#fff" stroke="#263238" stroke-linecap="round" stroke-linejoin="round" stroke-width="1"/>
            <g id="Group_42" data-name="Group 42" transform="translate(4.774 1.539)">
              <g id="Group_40" data-name="Group 40" transform="translate(0 1.957)">
                <path id="Path_246" data-name="Path 246" d="M300.762,383.888a1.013,1.013,0,0,1-1.016,1.016H178.753a1.016,1.016,0,0,1,0-2.033H299.745A1.016,1.016,0,0,1,300.762,383.888Z" transform="translate(-177.737 -382.872)" fill="#263238"/>
              </g>
              <path id="Path_247" data-name="Path 247" d="M209.346,382.872l-.071,2.033H178.753a1.016,1.016,0,0,1,0-2.033Z" transform="translate(-177.737 -380.915)" fill="#1b9eff"/>
              <g id="Group_41" data-name="Group 41" transform="translate(28.271)">
                <path id="Path_248" data-name="Path 248" d="M248.114,381.152a2.769,2.769,0,1,1-2.769-2.769A2.769,2.769,0,0,1,248.114,381.152Z" transform="translate(-242.577 -378.383)" fill="#263238"/>
                <path id="Path_249" data-name="Path 249" d="M248.578,383.2a1.125,1.125,0,1,1-1.124-1.125A1.125,1.125,0,0,1,248.578,383.2Z" transform="translate(-244.693 -380.465)" fill="#fff"/>
              </g>
            </g>
          </g>
        </g>
      </g>
    </g>
    <g id="Window" transform="translate(97.967 63.312)">
      <g id="Group_47" data-name="Group 47" transform="translate(0)">
        <g id="Group_46" data-name="Group 46" transform="translate(0 10.301)">
          <path id="Path_250" data-name="Path 250" d="M303.767,138.083v85.527a6.434,6.434,0,0,1-6.431,6.431H173.22a6.43,6.43,0,0,1-6.432-6.431V138.083a6.078,6.078,0,0,1,.078-1,6.435,6.435,0,0,1,6.353-5.431H297.336a6.44,6.44,0,0,1,6.353,5.431A6.078,6.078,0,0,1,303.767,138.083Z" transform="translate(-166.788 -131.651)" fill="#fff" stroke="#263238" stroke-linecap="round" stroke-linejoin="round" stroke-width="1"/>
        </g>
        <rect id="Rectangle_702" data-name="Rectangle 702" width="44.078" height="4.668" transform="translate(2.34)" fill="#263238"/>
      </g>
    </g>
    <g id="Character" transform="translate(104.262 50.406)">
      <g id="Group_56" data-name="Group 56" transform="translate(0)">
        <g id="Group_55" data-name="Group 55">
          <g id="Group_48" data-name="Group 48" transform="translate(0.212 36.583)">
            <path id="Path_251" data-name="Path 251" d="M203.894,204.387s2.166,8.528,5.943,13.789c5.133,4.784,8.375,5.066,12.292,5.066a8.27,8.27,0,0,0,5.809-1.97l.675-4.644-2.026-7.176s-7.159-8.161-9.726-10.272a31.55,31.55,0,0,1-9.725-16.6c-1.621-8.161-4.187-11.96-4.187-11.96s-.907-8.029-2.1-7.925-2.489,4.563-2.191,7.416c0,0-3.136-2.282-4.082-3.163s-4.63-5.134-5.277-4.564,1.544,6.327,4.729,9.024a7.986,7.986,0,0,1-3.983-1.919c-1.543-1.556-4.48-4.771-5.825-4.2a1.652,1.652,0,0,0-1.046,1.867s-1.444.415-1,2.645c0,0-1.344,1.97.548,4.771a23.91,23.91,0,0,0,8.862,7.209c3.285,1.556,4.63,2.489,5.825,5.238S203.894,204.387,203.894,204.387Z" transform="translate(-181.712 -162.329)" fill="#fff"/>
            <path id="Path_252" data-name="Path 252" d="M228.61,216.633l-.434,2.96-.243,1.682a8.247,8.247,0,0,1-5.8,1.971c-3.917,0-7.163-.283-12.3-5.069-3.772-5.262-5.942-13.786-5.942-13.786s-5.288-14.623-6.48-17.372-2.54-3.683-5.827-5.238a23.992,23.992,0,0,1-8.859-7.209,4.649,4.649,0,0,1-.816-4.2,2.643,2.643,0,0,1,.266-.579c-.446-2.23,1-2.646,1-2.646a1.652,1.652,0,0,1,1.047-1.863c1.342-.572,4.282,2.64,5.821,4.2a7.967,7.967,0,0,0,3.987,1.923c-3.188-2.7-5.376-8.457-4.733-9.023s4.334,3.683,5.277,4.563,4.085,3.165,4.085,3.165c-.3-2.851,1-7.312,2.193-7.42s2.1,7.926,2.1,7.926,2.563,3.8,4.184,11.959a31.6,31.6,0,0,0,9.727,16.606c2.569,2.11,9.727,10.271,9.727,10.271Z" transform="translate(-181.71 -162.33)" fill="#263238" opacity="0.2"/>
          </g>
          <path id="Path_253" data-name="Path 253" d="M259.159,214.992s5.282-7.42,6.163-9.588,4.883-8.838,9.2-9.338a29.7,29.7,0,0,0,8.084-2.251l22.971,1.334s4.85,1.813,9.252,3.486c4.152,1.578,8.772,4.222,8.917,8.353.126,3.615,7.019,16.787,11.846,20.927l-18.942,5.766s-.661,5.5-3.589,7.7c0,0,6.413,14.994,3.772,23.915l-52.155-.191s-2.048-20.45,7-27.62a31.25,31.25,0,0,1-2.514-9.819S267.563,223.33,259.159,214.992Z" transform="translate(-225.178 -143.504)" fill="#92e3a9"/>
          <path id="Path_254" data-name="Path 254" d="M228.175,230l-2,2.13s-.828,1.3-4.326,1.412c-3.915.127-6.88-.173-12.013-4.958-3.772-5.262-5.942-13.786-5.942-13.786s-5.288-14.623-6.48-17.372-2.54-3.683-5.827-5.238a23.991,23.991,0,0,1-8.859-7.209,4.649,4.649,0,0,1-.816-4.2,50.342,50.342,0,0,1,4.785,3.406c2.7,1.628,4.583,2.893,7.337,4.394,5.468,2.984,8.332,9.343,10.409,15.4s3.923,12.556,8.413,16.968a21.063,21.063,0,0,0,9.247,5.118c2.054.561,4.392,1.031,5.584,2.857A4.052,4.052,0,0,1,228.175,230Z" transform="translate(-181.498 -136.154)" fill="#263238" opacity="0.1"/>
          <path id="Path_255" data-name="Path 255" d="M313.073,241.009c.38.134,7.067,15.224,3.772,23.915l-29.149-.191-23.458-.288s-1.394-20.217,7.65-27.384c0,0-2.616-5.25-2.777-9.837,0,0-1.528-3.942-9.936-12.279,0,0,5.2-7.836,6.082-10.006s4.652-8.6,8.975-9.1a22.122,22.122,0,0,0,7.933-2.688l22.972,1.338a30.183,30.183,0,0,0,4.7,2.205c1.423.518,2.959.817,4.478,1.393,5.772,2.19,8.509,4.654,8.989,8.24s7.019,16.787,11.845,20.928l-19.13,6.582S315.232,239.255,313.073,241.009Z" transform="translate(-225.187 -143.132)" fill="#872bb4"/>
          <path id="Path_256" data-name="Path 256" d="M343.319,245.685s6.895,13.01,3.772,23.915l-29.149-.191a15.769,15.769,0,0,1-.422-5.871c-.59-1.115-.15-2.484-.1-3.755a10.306,10.306,0,0,0-1.817-5.491,20.112,20.112,0,0,1-2.6-5.214c-.475-1.9-.122-4.2,1.4-5.365,1.7-1.3,4.045-.753,6.1-.271a24.942,24.942,0,0,0,10.282.627,12.578,12.578,0,0,0,8.541-5.552,6.3,6.3,0,0,0,.886-2.224,9.045,9.045,0,0,0-.168-2.947,33.068,33.068,0,0,1-.822-8.74c.191-1.923.758-3.786,1.007-5.7a17.31,17.31,0,0,0-2.72-11.73c1.221-1.609,1.534-4.051,2.633-5.726,1.423.518,3.032,1.055,4.606,1.459,4.566,1.163,8.835,4.579,9.315,8.166s5.417,15.2,11.516,21.085l-18.647,5.638S346.418,243.51,343.319,245.685Z" transform="translate(-255.433 -147.808)" opacity="0.1"/>
          <g id="Group_49" data-name="Group 49" transform="translate(86.302 58.433)">
            <path id="Path_257" data-name="Path 257" d="M399.556,238.347s1.351-1.656,2.623-1.325c0,0,3.021,4.057,4.292,5.548a9.526,9.526,0,0,1,1.679,6.417,3.247,3.247,0,0,1-1.436,2.34c-1.631,1.075-4.934,2.954-7.952,2.835-4.213-.166-11.287-3.478-13.751-8.694a40.623,40.623,0,0,1-3.021-12.006s-3.259-3.56-2.782-7.038,2.648-8.215,3.152-9.573,1.14-3.261,2.014-3.013,2.033,3.318.285,8.452a3.334,3.334,0,0,0,2.577-1.828c1.113-1.822,4.548-9.909,6.7-7.4,0,0,1.98-1.375,2.812-.03,0,0,1.492-.986,1.537.308a58.114,58.114,0,0,1-.562,6.477s1.578-1.185,1.578,1.465-.915,7.444-4.333,10.341C394.969,231.624,396.775,236.028,399.556,238.347Z" transform="translate(-379.159 -212.443)" fill="#fff"/>
            <path id="Path_258" data-name="Path 258" d="M408.147,248.988a3.265,3.265,0,0,1-1.456,2.354c-1.535,1.009-4.52,2.708-7.363,2.818-.191.006-.382.006-.567,0-4.213-.163-11.289-3.478-13.755-8.692a40.585,40.585,0,0,1-3.02-12.007s-3.258-3.562-2.784-7.04,2.651-8.21,3.154-9.572,1.14-3.261,2.014-3.008,2.037,3.315.283,8.451a3.342,3.342,0,0,0,2.581-1.833c1.111-1.82,4.548-9.909,6.7-7.4,0,0,1.979-1.374,2.812-.03,0,0,1.487-.988,1.533.307a53.2,53.2,0,0,1-.538,6.3v.006c-.017.115-.023.175-.023.175s1.58-1.187,1.58,1.465-.914,7.444-4.334,10.337c0,0,1.805,4.406,4.589,6.727a3.205,3.205,0,0,1,2.263-1.37s3.378,4.1,4.651,5.589A9.529,9.529,0,0,1,408.147,248.988Z" transform="translate(-379.156 -212.443)" fill="#263238" opacity="0.2"/>
          </g>
          <g id="Group_52" data-name="Group 52" transform="translate(45.295 7.715)">
            <path id="Path_259" data-name="Path 259" d="M315.942,119.826l4.9-5.353-.234-6.812-4.321-3.163-21.954-8.029-9.225,15.571s3.153,19.1,5.839,20.923,2.453,7.3,2.453,7.3,3.521,13.608,15.783,14.581c11.35.751,15.222-12.631,15.222-12.631s-6.731-2.385-8.133-6.156S315.942,119.826,315.942,119.826Z" transform="translate(-285.11 -96.318)" fill="#fff"/>
            <g id="Group_51" data-name="Group 51">
              <path id="Path_260" data-name="Path 260" d="M324.505,142.031s-.774,1.728-1.862,3.959l-.006.012c-1.887,3.864-5.839,9.06-13.384,8.68-12.267-.971-15.855-14.768-15.855-14.768s.237-5.473-2.448-7.3-5.844-20.922-5.844-20.922l9.229-15.57,9.189,3.358,12.765,4.671,4.323,3.159.231,6.818-4.906,5.353s1.5,12.06.937,16.058C316.359,139.187,324.505,142.031,324.505,142.031Z" transform="translate(-285.107 -96.122)" fill="#263238" opacity="0.2"/>
              <g id="Group_50" data-name="Group 50" clip-path="url(#clip-path)">
                <path id="Path_261" data-name="Path 261" d="M335.874,145.938s-.7,1.7-1.791,3.93l-.006.012-.421.835c-7.534-5.449-11.062-13.853-11.374-23.431-.034-.971.8-13.029,1.195-13.024C312.159,114.09,305.391,103,305.391,103l9.574.359,12.765,4.671,4.323,3.159.231,6.818-4.906,5.353s.092,12.109.937,16.058C329.078,143,335.874,145.938,335.874,145.938Z" transform="translate(-296.547 -100.001)" fill="#263238" opacity="0.1"/>
              </g>
            </g>
          </g>
          <path id="Path_263" data-name="Path 263" d="M348.23,126.264s1.6-4.3,4.873-3.473,1.767,9.619-1.155,10.449-3.1-1.753-3.1-1.753" transform="translate(-275.413 -103.387)" fill="none" stroke="#263238" stroke-linecap="round" stroke-linejoin="round" stroke-width="0.98"/>
          <path id="Path_264" data-name="Path 264" d="M310.78,132.387c0-.088-.007-.175-.01-.263.053.991.273,1.969.283,2.962a3.684,3.684,0,0,1-.935,2.721c-.466.443-1.153.765-1.247,1.415a1.726,1.726,0,0,0,.26,1.012,4.193,4.193,0,0,0,.986,1.331,1.846,1.846,0,0,0,1.514.45" transform="translate(-253.208 -108.711)" fill="none" stroke="#263238" stroke-linecap="round" stroke-linejoin="round" stroke-width="0.98"/>
          <path id="Path_265" data-name="Path 265" d="M312.773,155.779s6.853-1.493,8.417-6.358c0,0,1.1,5.172-2,7.327C315.708,159.166,312.773,155.779,312.773,155.779Z" transform="translate(-255.415 -118.466)" fill="#fff" stroke="#263238" stroke-linecap="round" stroke-linejoin="round" stroke-width="0.98"/>
          <path id="Path_266" data-name="Path 266" d="M289.971,120.57c.786,6.219,1.388,12.41,3.274,18.413,1.3,4.126,4.12,8.186,8.8,7.912,5.657-.331,9.99-1.318,13.7-5.884" transform="translate(-242.556 -102.195)" fill="none" stroke="#263238" stroke-linecap="round" stroke-linejoin="round" stroke-width="0.98"/>
          <path id="Path_267" data-name="Path 267" d="M319.895,123.5a3.523,3.523,0,0,1,4.667-.109" transform="translate(-259.432 -103.313)" fill="none" stroke="#263238" stroke-linecap="round" stroke-linejoin="round" stroke-width="0.98"/>
          <path id="Path_268" data-name="Path 268" d="M301.121,126.016c-1.027-.442-2.759-.671-4.347,1.561" transform="translate(-246.392 -105.103)" fill="none" stroke="#263238" stroke-linecap="round" stroke-linejoin="round" stroke-width="0.98"/>
          <path id="Path_269" data-name="Path 269" d="M285.983,180.668s.225,6.491-1.757,7.523-9.8-1.376-13.982,2.753-8.883,15.082-11.2,16.687" transform="translate(-225.116 -136.089)" fill="none" stroke="#263238" stroke-linecap="round" stroke-linejoin="round" stroke-width="0.98"/>
          <path id="Path_270" data-name="Path 270" d="M324.92,133.049c0,.927-.335,1.681-.748,1.681s-.748-.753-.748-1.681.335-1.686.748-1.686S324.92,132.116,324.92,133.049Z" transform="translate(-261.422 -108.282)" fill="#263238"/>
          <path id="Path_271" data-name="Path 271" d="M302.928,135.161c0,.928-.334,1.681-.748,1.681s-.748-.753-.748-1.681.334-1.686.748-1.686S302.928,134.228,302.928,135.161Z" transform="translate(-249.019 -109.473)" fill="#263238"/>
          <path id="Path_272" data-name="Path 272" d="M276.113,99.4s3-.787,6.281-10.256c0,0,9.3,12.028,19.3,10.5,0,0,2.77-3.367,5.2-.863,2.034,2.1.009,8.735-1.7,9.328s-2.269.033-2.269.033-4.781,9.125-.038,16.832,14.8,3.557,18.022-2.371A10.7,10.7,0,0,0,321,111.926a4.475,4.475,0,0,1,2.372,4.051s1.9-3.36-.949-8.1c-2.88-4.8-5.931-9.488-8.8-14.294-2.778-4.647-4.851-10.812-10-13.295-6.028-2.906-13.554-2.108-19.572.343-4.965,2.022-7.52,6.872-9.51,11.813-1.413,3.506-2.214,7.248-3.707,10.724-1.3,3.036-3.632,5.432-4.958,8.487-3.56,8.2-.266,17.769,7.319,21.627,0,0,.668-1.69,3.8-1.987a39.993,39.993,0,0,1,6.735-.494c2.94.1,3.889-.2,4.553-1.976a26.678,26.678,0,0,0,.873-5.644s-3.842.826-6.572-1.563c-2.75-3.261-3.73-4.987-4.394-9.038S276.113,99.4,276.113,99.4Z" transform="translate(-228.155 -78.427)" fill="#263238"/>
          <path id="Path_273" data-name="Path 273" d="M321.08,174.085s-.565,3.725,3.495,2.645,8.459-8.04,8.459-8.04A21.179,21.179,0,0,1,321.08,174.085Z" transform="translate(-260.086 -129.334)" fill="#263238"/>
          <path id="Path_274" data-name="Path 274" d="M270.762,321.377s-2.81-18.2,7.39-27.661" transform="translate(-231.522 -199.846)" fill="none" stroke="#263238" stroke-linecap="round" stroke-linejoin="round" stroke-width="0.98"/>
          <path id="Path_275" data-name="Path 275" d="M285.3,269.025c-3.586-5.565-4.928-15.14.278-20.153" transform="translate(-238.134 -174.555)" fill="none" stroke="#263238" stroke-linecap="round" stroke-linejoin="round" stroke-width="0.98"/>
          <path id="Path_276" data-name="Path 276" d="M349.516,172.586s.893,9.613,12.354,12.869c9.205,2.615,11.3,5.589,11.886,6.753" transform="translate(-276.138 -131.531)" fill="none" stroke="#263238" stroke-linecap="round" stroke-linejoin="round" stroke-width="0.98"/>
          <path id="Path_277" data-name="Path 277" d="M304.642,197.994s4.66,14.134,17.081,14.322c9.07.137,13.748-12.694,13.748-12.694" transform="translate(-250.83 -145.861)" fill="none" stroke="#263238" stroke-linecap="round" stroke-linejoin="round" stroke-width="0.98"/>
          <path id="Path_278" data-name="Path 278" d="M307.735,297.982c6.484,2.782,13.679,3,20.69,3.183" transform="translate(-252.574 -202.252)" fill="none" stroke="#263238" stroke-linecap="round" stroke-linejoin="round" stroke-width="0.98"/>
          <path id="Path_279" data-name="Path 279" d="M225.565,232.755a6.088,6.088,0,0,1-2.228.764,14.329,14.329,0,0,1-14.613-5.832c-1.958-2.731-2.925-5.813-3.957-9.017-2.287-7.1-4.681-14.115-7.4-21.039a8.556,8.556,0,0,0-1.625-2.476,22.153,22.153,0,0,0-6.563-3.9c-3.16-.908-8.825-7.832-7.845-9.761s6.1,4.653,8.281,5.221" transform="translate(-181.224 -136.356)" fill="none" stroke="#263238" stroke-linecap="round" stroke-linejoin="round" stroke-width="0.98"/>
          <path id="Path_280" data-name="Path 280" d="M286,225.284a27.948,27.948,0,0,1,1.441-11.086" transform="translate(-240.276 -154.999)" fill="none" stroke="#263238" stroke-linecap="round" stroke-linejoin="round" stroke-width="0.98"/>
          <g id="Group_53" data-name="Group 53" transform="translate(43.542 3.559)" opacity="0.42">
            <path id="Path_281" data-name="Path 281" d="M318.432,92.917s5.14,8.924,14.135,9.816" transform="translate(-302.149 -90.158)" fill="none" stroke="#fff" stroke-linecap="round" stroke-linejoin="round" stroke-width="0.98"/>
            <path id="Path_282" data-name="Path 282" d="M362.094,148.194a28.269,28.269,0,0,0,2.447,17.453" transform="translate(-326.523 -121.334)" fill="none" stroke="#fff" stroke-linecap="round" stroke-linejoin="round" stroke-width="0.98"/>
            <path id="Path_283" data-name="Path 283" d="M357.767,107.172c2.921,2.666,5.752,5.505,7.152,9.23,1.3,3.459,1.2,7.286,1.3,11s.462,7.619,2.5,10.67" transform="translate(-324.334 -98.198)" fill="none" stroke="#fff" stroke-linecap="round" stroke-linejoin="round" stroke-width="0.98"/>
            <path id="Path_284" data-name="Path 284" d="M336.268,86.59q3.065,3.188,6.306,6.187" transform="translate(-312.209 -86.59)" fill="none" stroke="#fff" stroke-linecap="round" stroke-linejoin="round" stroke-width="0.98"/>
            <path id="Path_285" data-name="Path 285" d="M283.991,142.572A23.515,23.515,0,0,0,282,160.389" transform="translate(-281.088 -118.163)" fill="none" stroke="#fff" stroke-linecap="round" stroke-linejoin="round" stroke-width="0.98"/>
          </g>
          <path id="Path_286" data-name="Path 286" d="M359.05,228a11.018,11.018,0,0,0,2.359-2.438" transform="translate(-281.515 -161.411)" fill="none" stroke="#263238" stroke-linecap="round" stroke-linejoin="round" stroke-width="0.98"/>
          <path id="Path_287" data-name="Path 287" d="M334.632,234.07a12.6,12.6,0,0,0,8.386-.013" transform="translate(-267.744 -166.2)" fill="none" stroke="#263238" stroke-linecap="round" stroke-linejoin="round" stroke-width="0.98"/>
          <path id="Path_288" data-name="Path 288" d="M391.049,226.526s-3.162-2.232-6.529-1.7c0,0,2.652-8.5.612-9.139-1.389-.434-2.1,2.024-2.439,2.965-.664,1.837-1.471,3.562-2.178,5.38-1.294,3.326-1.072,8.051,1.659,10.571" transform="translate(-293.19 -155.81)" fill="none" stroke="#263238" stroke-linecap="round" stroke-linejoin="round" stroke-width="0.98"/>
          <path id="Path_289" data-name="Path 289" d="M414.036,241.425a13.6,13.6,0,0,0,3.78-4.536,13.029,13.029,0,0,0,.787-3.223q.24-1.621.413-3.251a1.383,1.383,0,0,0-.212-1.127.819.819,0,0,0-.923-.108,2.108,2.108,0,0,0-.733.674,8.9,8.9,0,0,0-1.324,2.5,13.642,13.642,0,0,1-1,2.786c-.044.073-.092.144-.14.214" transform="translate(-312.526 -163.397)" fill="none" stroke="#263238" stroke-linecap="round" stroke-linejoin="round" stroke-width="0.98"/>
          <path id="Path_290" data-name="Path 290" d="M413.908,221.089a25.269,25.269,0,0,0,1.115-8.058,1.83,1.83,0,0,0-1.627.606,5.4,5.4,0,0,0-.956,1.576c-1.213,2.68-2.211,5.494-3.621,8.052" transform="translate(-309.584 -154.325)" fill="none" stroke="#263238" stroke-linecap="round" stroke-linejoin="round" stroke-width="0.98"/>
          <path id="Path_291" data-name="Path 291" d="M410.991,212.563a1.256,1.256,0,0,0-1.7-.564,3.37,3.37,0,0,0-1.357,1.483c-1.489,2.59-2.385,5.508-3.768,8.156" transform="translate(-306.959 -153.689)" fill="none" stroke="#263238" stroke-linecap="round" stroke-linejoin="round" stroke-width="0.98"/>
          <path id="Path_292" data-name="Path 292" d="M400.658,213.471c.12-.618-.587-1.137-1.184-1.033a2.458,2.458,0,0,0-1.42,1.105c-1.215,1.659-1.983,3.622-3.055,5.384s-2.021,3.2-3.985,3.608" transform="translate(-299.543 -154)" fill="none" stroke="#263238" stroke-linecap="round" stroke-linejoin="round" stroke-width="0.98"/>
          <path id="Path_293" data-name="Path 293" d="M385.259,254.678s1.176,6.982,2.234,10.78c1.029,3.693,9.4,15.845,22.515,8.507a3.245,3.245,0,0,0,1.6-2.243,8.147,8.147,0,0,0-1.419-6.264c-2.822-4.042-8.7-9.8-9.995-13.474" transform="translate(-296.296 -176.31)" fill="none" stroke="#263238" stroke-linecap="round" stroke-linejoin="round" stroke-width="0.98"/>
          <path id="Path_294" data-name="Path 294" d="M415.1,256.828a14.009,14.009,0,0,0,2.548,4.307c1.328,1.528,2.965,2.728,4.384,4.165a9.023,9.023,0,0,1,2.856,5.275" transform="translate(-313.123 -179.042)" fill="none" stroke="#263238" stroke-linecap="round" stroke-linejoin="round" stroke-width="0.98"/>
          <path id="Path_295" data-name="Path 295" d="M383.432,284.942s-.316,7.072-5.684,9.21" transform="translate(-292.061 -194.898)" fill="none" stroke="#263238" stroke-linecap="round" stroke-linejoin="round" stroke-width="0.98"/>
          <path id="Path_296" data-name="Path 296" d="M382.79,302.906s6.929,11.91,3.772,23.915" transform="translate(-294.904 -205.029)" fill="none" stroke="#263238" stroke-linecap="round" stroke-linejoin="round" stroke-width="0.98"/>
          <path id="Path_297" data-name="Path 297" d="M216.967,215.272" transform="translate(-201.382 -155.605)" fill="none" stroke="#263238" stroke-linecap="round" stroke-linejoin="round" stroke-width="0.98"/>
          <path id="Path_298" data-name="Path 298" d="M182.761,176.631s-.772-2.118.427-2.913,7.3,5.789,8.935,5.675" transform="translate(-181.953 -132.132)" fill="none" stroke="#263238" stroke-linecap="round" stroke-linejoin="round" stroke-width="0.98"/>
          <path id="Path_299" data-name="Path 299" d="M185.095,171.3a1.413,1.413,0,0,1,.715-1.756,2.133,2.133,0,0,1,1.956.189,7.151,7.151,0,0,1,1.547,1.372c2.062,2.192,4.143,4.074,7.074,4.387" transform="translate(-183.35 -129.725)" fill="none" stroke="#263238" stroke-linecap="round" stroke-linejoin="round" stroke-width="0.98"/>
          <path id="Path_300" data-name="Path 300" d="M203.714,171.406s-5.578-5.4-5.186-8.359,4.1,4.38,7.721,5.807" transform="translate(-190.972 -125.759)" fill="none" stroke="#263238" stroke-linecap="round" stroke-linejoin="round" stroke-width="0.98"/>
          <g id="Group_54" data-name="Group 54" transform="translate(13.835 37.096)">
            <path id="Path_301" data-name="Path 301" d="M220.8,172.332c-.2-.647-.473-1.362-.62-2.053-.239-1.118-.354-2.259-.5-3.393-.1-.792-.274-4.046-1.738-3.131-2.319,1.449-1.623,9.664-1.623,9.664-2.784,1.691-3.363,5.678-3.363,5.678" transform="translate(-212.955 -163.556)" fill="#fff"/>
            <path id="Path_302" data-name="Path 302" d="M220.8,172.311a11.515,11.515,0,0,1-.62-2.122c-.239-1.118-.354-2.259-.5-3.393-.1-.792-.274-4.046-1.738-3.131-2.319,1.45-1.623,9.665-1.623,9.665-2.784,1.691-3.363,5.678-3.363,5.678" transform="translate(-212.955 -163.505)" fill="#263238" opacity="0.2"/>
          </g>
          <path id="Path_303" data-name="Path 303" d="M220.889,171.621a9.214,9.214,0,0,1-.664-1.884c-.238-1.117-.354-2.259-.5-3.393-.1-.791-.273-4.046-1.738-3.131-2.32,1.45-1.624,9.665-1.624,9.665-2.783,1.691-3.363,5.678-3.363,5.678" transform="translate(-199.146 -126.155)" fill="none" stroke="#263238" stroke-linecap="round" stroke-linejoin="round" stroke-width="0.98"/>
          <path id="Path_304" data-name="Path 304" d="M253.163,220.821c-1.113-4.057-12.519-12.263-16.221-20.685a55.55,55.55,0,0,1-2.277-7.389,87.273,87.273,0,0,0-3.039-8.822c-.17-.428-.357-.825-.535-1.222" transform="translate(-209.348 -137.237)" fill="none" stroke="#263238" stroke-linecap="round" stroke-linejoin="round" stroke-width="0.98"/>
          <path id="Path_305" data-name="Path 305" d="M419.008,260.542c-1.535,1.009-4.52,2.708-7.363,2.818a23.228,23.228,0,0,1-2.482-1.809c-4.976-4.159-8.471-10.59-8.147-17.233a8.415,8.415,0,0,1,1.111-4.135c1.21-1.893,3.385-2.767,4.7-4.545,1.51-2.037,1.5-4.8,3.229-6.793-.017.115-.023.175-.023.175s1.58-1.187,1.58,1.465-.914,7.444-4.334,10.338c0,0,1.805,4.406,4.589,6.727a3.617,3.617,0,0,1,2.207-1.412s3.435,4.143,4.708,5.631a9.53,9.53,0,0,1,1.679,6.419A3.265,3.265,0,0,1,419.008,260.542Z" transform="translate(-305.171 -163.209)" fill="#263238" opacity="0.1"/>
          <path id="Path_306" data-name="Path 306" d="M269.214,237.007c0-.3,5.98-6.657,7.535-13.339,0,0-.149,6.61-.235,7.7,0,0-.015.236-.012.315.128,3.583.487,4.211.487,4.211s-2.235,5.163-2.235,7.087Z" transform="translate(-230.849 -160.34)" opacity="0.1"/>
        </g>
      </g>
    </g>
    <g id="Videos" transform="translate(210.614 68.1)">
      <g id="Group_66" data-name="Group 66">
        <g id="Group_59" data-name="Group 59">
          <rect id="Rectangle_703" data-name="Rectangle 703" width="27.174" height="2.699" transform="translate(54.538 7.381)" fill="#263238"/>
          <rect id="Rectangle_704" data-name="Rectangle 704" width="27.174" height="2.699" transform="translate(54.538 12.6)" fill="#263238"/>
          <rect id="Rectangle_705" data-name="Rectangle 705" width="27.174" height="2.699" transform="translate(54.538 17.819)" fill="#263238"/>
          <g id="Group_58" data-name="Group 58">
            <rect id="Rectangle_706" data-name="Rectangle 706" width="47.606" height="29.784" rx="8.91" transform="translate(0 2.293)" opacity="0.1"/>
            <g id="Group_57" data-name="Group 57" transform="translate(3.171)">
              <rect id="Rectangle_707" data-name="Rectangle 707" width="47.606" height="29.784" rx="8.91" fill="#1b9eff" stroke="#263238" stroke-miterlimit="10" stroke-width="1"/>
              <circle id="Ellipse_3" data-name="Ellipse 3" cx="10.078" cy="10.078" r="10.078" transform="translate(13.745 4.951)" fill="#fff"/>
              <path id="Path_307" data-name="Path 307" d="M480.487,152.434V141.306l8.845,5.564Z" transform="translate(-459.526 -131.584)" fill="#263238"/>
            </g>
          </g>
        </g>
        <g id="Group_62" data-name="Group 62" transform="translate(0 38.817)">
          <rect id="Rectangle_708" data-name="Rectangle 708" width="27.174" height="2.699" transform="translate(54.538 7.997)" fill="#263238"/>
          <rect id="Rectangle_709" data-name="Rectangle 709" width="27.174" height="2.699" transform="translate(54.538 13.216)" fill="#263238"/>
          <rect id="Rectangle_710" data-name="Rectangle 710" width="27.174" height="2.699" transform="translate(54.538 18.434)" fill="#263238"/>
          <g id="Group_61" data-name="Group 61">
            <rect id="Rectangle_711" data-name="Rectangle 711" width="47.606" height="29.784" rx="8.91" transform="translate(0 2.125)" opacity="0.1"/>
            <g id="Group_60" data-name="Group 60" transform="translate(3.171)">
              <rect id="Rectangle_712" data-name="Rectangle 712" width="47.606" height="29.784" rx="8.91" fill="#1b9eff" stroke="#263238" stroke-miterlimit="10" stroke-width="1"/>
              <circle id="Ellipse_4" data-name="Ellipse 4" cx="10.078" cy="10.078" r="10.078" transform="translate(10.687 9.598) rotate(-22.169)" fill="#fff"/>
              <path id="Path_308" data-name="Path 308" d="M480.487,241.688V230.56l8.845,5.564Z" transform="translate(-459.526 -220.738)" fill="#263238"/>
            </g>
          </g>
        </g>
        <g id="Group_65" data-name="Group 65" transform="translate(0 77.634)">
          <rect id="Rectangle_713" data-name="Rectangle 713" width="27.174" height="2.699" transform="translate(54.538 7.703)" fill="#263238"/>
          <rect id="Rectangle_714" data-name="Rectangle 714" width="27.174" height="2.699" transform="translate(54.538 12.922)" fill="#263238"/>
          <rect id="Rectangle_715" data-name="Rectangle 715" width="27.174" height="2.699" transform="translate(54.538 18.141)" fill="#263238"/>
          <g id="Group_64" data-name="Group 64">
            <rect id="Rectangle_716" data-name="Rectangle 716" width="47.606" height="29.784" rx="8.91" transform="translate(0 1.731)" opacity="0.1"/>
            <g id="Group_63" data-name="Group 63" transform="translate(3.171)">
              <rect id="Rectangle_717" data-name="Rectangle 717" width="47.606" height="29.784" rx="8.91" fill="#1b9eff" stroke="#263238" stroke-miterlimit="10" stroke-width="1"/>
              <circle id="Ellipse_5" data-name="Ellipse 5" cx="10.078" cy="10.078" r="10.078" transform="translate(10.672 9.734) rotate(-22.334)" fill="#fff"/>
              <path id="Path_309" data-name="Path 309" d="M480.487,330.941V319.813l8.845,5.564Z" transform="translate(-459.526 -309.893)" fill="#263238"/>
            </g>
          </g>
        </g>
      </g>
    </g>
  </g>
</svg>
