<svg id="Logo" xmlns="http://www.w3.org/2000/svg" xmlns:xlink="http://www.w3.org/1999/xlink" width="183.86" height="29" viewBox="0 0 183.86 29">
  <defs>
    <clipPath id="clip-path">
      <rect id="Rectangle_2" data-name="Rectangle 2" width="105.288" height="29"/>
    </clipPath>
  </defs>
  <rect id="Rectangle_1" data-name="Rectangle 1" width="105.288" height="29" fill="red"/>
  <g id="Group_6" data-name="Group 6">
    <g id="Group_1" data-name="Group 1" clip-path="url(#clip-path)">
      <path id="Path_1" data-name="Path 1" d="M105.217,24.955a2.531,2.531,0,0,0,.916.47,4.491,4.491,0,0,0,1.107.116,6.409,6.409,0,0,0,2.772-.637v1.73a7.973,7.973,0,0,1-2.93.549,4.4,4.4,0,0,1-3.451-1.321,5.571,5.571,0,0,1-1.181-3.828,5.563,5.563,0,0,1,1.181-3.828,4.395,4.395,0,0,1,3.451-1.321,7.923,7.923,0,0,1,2.93.558v1.74a6.216,6.216,0,0,0-2.735-.656h-.037a3.057,3.057,0,0,0-2.149.712,3.767,3.767,0,0,0-.777,2.8,6.215,6.215,0,0,0,.228,1.837,2.1,2.1,0,0,0,.674,1.084m12.488,2.074V21.071a2.412,2.412,0,0,0-.619-1.958,2.528,2.528,0,0,0-1.614-.488,6.719,6.719,0,0,0-2.456.479v7.926H111.2V13.22h1.819v4.158a7.222,7.222,0,0,1,2.633-.493,3.767,3.767,0,0,1,2.888,1.107,4.477,4.477,0,0,1,1.028,3.153v5.884Zm11.177-2.442a3.621,3.621,0,0,1-.3.814,2.722,2.722,0,0,1-.651.87,3.478,3.478,0,0,1-1.233.642,6.8,6.8,0,0,1-3.823-.009,3.636,3.636,0,0,1-1.247-.651,2.819,2.819,0,0,1-.665-.884,3.206,3.206,0,0,1-.307-.842,4,4,0,0,1-.06-.656,2.627,2.627,0,0,1,1.247-2.312,6.148,6.148,0,0,1,3.437-.833,13.371,13.371,0,0,1,1.8.116,2.445,2.445,0,0,0-.684-1.809,3.111,3.111,0,0,0-2.051-.549,8.594,8.594,0,0,0-2.753.5V17.42a8.374,8.374,0,0,1,3-.535,4.457,4.457,0,0,1,3.209,1.079,4.092,4.092,0,0,1,1.135,3.1V23.95a2.931,2.931,0,0,1-.06.637m-1.8-2.279a11.294,11.294,0,0,0-1.73-.126,4.861,4.861,0,0,0-.837.074,7.017,7.017,0,0,0-.94.228,1.851,1.851,0,0,0-.837.516,1.226,1.226,0,0,0-.33.856c0,1.126.8,1.693,2.386,1.693h.028q2.253,0,2.251-1.623V22.308Zm5.023-3.326v8.042h-1.819V17.88a12.98,12.98,0,0,1,4.846-1v1.679a12.789,12.789,0,0,0-3.028.419m8.358,6.558h.019a2.163,2.163,0,0,0,1.158-.293V26.9a3.572,3.572,0,0,1-1.363.279h-.047a3.5,3.5,0,0,1-.767-.088,4.982,4.982,0,0,1-.977-.344,2.072,2.072,0,0,1-.94-.9,3.126,3.126,0,0,1-.367-1.586V18.6h-1.73V17.039h1.73V14.076H139v2.963h2.647V18.6H139v5.772c0,.781.484,1.167,1.465,1.167m4.4-5.042a6.422,6.422,0,0,0,1.265.488,14.256,14.256,0,0,1,1.479.507,2.974,2.974,0,0,1,1.27,1,2.959,2.959,0,0,1-.372,3.819,3.9,3.9,0,0,1-2.8.874,5.829,5.829,0,0,1-2.87-.7v-1.67a5.509,5.509,0,0,0,2.753.73h.037A2.579,2.579,0,0,0,147.1,25.2a1.04,1.04,0,0,0,.5-.884,1.164,1.164,0,0,0-.521-.991,4,4,0,0,0-1.27-.586c-.5-.14-1-.3-1.493-.47a2.908,2.908,0,0,1-1.265-.856,2.274,2.274,0,0,1-.521-1.553,2.845,2.845,0,0,1,.879-2.107,3.7,3.7,0,0,1,2.688-.87,5.9,5.9,0,0,1,2.66.656v1.581a5.864,5.864,0,0,0-2.437-.6q-1.974,0-1.977,1.279a.828.828,0,0,0,.53.693" transform="translate(-54.799 -7.071)" fill="#fff"/>
    </g>
    <g id="Group_2" data-name="Group 2" clip-path="url(#clip-path)">
      <path id="Path_2" data-name="Path 2" d="M50.759,36.227a4.062,4.062,0,0,1-4.042,4.042s0-4.079,0-4.079c.037.042,4.042.023,4.042.037" transform="translate(-24.987 -19.357)" fill="#fff"/>
    </g>
    <g id="Group_3" data-name="Group 3" clip-path="url(#clip-path)">
      <path id="Path_3" data-name="Path 3" d="M54.8,27.893V21.345a2.159,2.159,0,0,0-.419-1.386,2.01,2.01,0,0,0-1.637-.526,6.961,6.961,0,0,0-2.67.558,4.16,4.16,0,0,1,.233,1.428V27.9H48.486V21.363a1.96,1.96,0,0,0-.465-1.386,2.478,2.478,0,0,0-1.837-.507,8.314,8.314,0,0,0-2.172.3v8.121H42.193V23.875a5.4,5.4,0,0,1-4.507,1.87A6.494,6.494,0,0,1,25.551,27.9H18.16V26.2l5.06-6.6H18.276V17.912h7.279v1.651l-5.042,6.591H24.9l-.014-.056a6.557,6.557,0,0,1,5.028-7.763,6.454,6.454,0,0,1,3.088.1,5.4,5.4,0,0,1,10.14-.126,8.992,8.992,0,0,1,3.177-.581,4.434,4.434,0,0,1,2.66.753,9.751,9.751,0,0,1,3.647-.753,4.144,4.144,0,0,1,2.94.986A3.592,3.592,0,0,1,56.62,21.47v6.419l-1.823,0ZM38.183,16.512a3.843,3.843,0,0,0-3.842,3.842,4.042,4.042,0,0,0,.042.586,4.862,4.862,0,1,0,1.767,2.674,3.841,3.841,0,1,0,2.033-7.1" transform="translate(-9.713 -7.935)" fill="#fff"/>
    </g>
    <g id="Group_4" data-name="Group 4" clip-path="url(#clip-path)">
      <path id="Path_4" data-name="Path 4" d="M204.586,21.57a1.186,1.186,0,1,0,1.186,1.186,1.188,1.188,0,0,0-1.186-1.186m0,2.13a.944.944,0,1,1,.944-.944.945.945,0,0,1-.944.944" transform="translate(-108.795 -11.537)" fill="#fff"/>
    </g>
    <g id="Group_5" data-name="Group 5" clip-path="url(#clip-path)">
      <path id="Path_5" data-name="Path 5" d="M205.672,23.455a.3.3,0,0,0-.116-.07.329.329,0,0,0,.177-.116.315.315,0,0,0,.06-.2.292.292,0,0,0-.116-.26.607.607,0,0,0-.358-.084h-.488v1.242h.321v-.47h.088a.25.25,0,0,1,.126.033.314.314,0,0,1,.093.126l.153.307h.34l-.177-.349a.517.517,0,0,0-.1-.153m-.242-.219a.233.233,0,0,1-.144.037h-.135v-.321h.135a.233.233,0,0,1,.144.037.153.153,0,0,1,.047.121.157.157,0,0,1-.047.126" transform="translate(-109.56 -12.153)" fill="#fff"/>
    </g>
  </g>
  <path id="Path_998" data-name="Path 998" d="M8.6-7.844h2.517L6.941-18.676H4.05L-.14-7.844H2.393l.682-1.868h4.84ZM5.5-16.678l1.786,4.969H3.693Zm6.48,4.9a3.983,3.983,0,0,0,4.157,4.125,3.615,3.615,0,0,0,3.1-1.429l-1.348-1.25a1.98,1.98,0,0,1-1.656.844,2.11,2.11,0,0,1-2.127-2.29,2.1,2.1,0,0,1,2.127-2.274,1.9,1.9,0,0,1,1.656.844l1.348-1.267a3.65,3.65,0,0,0-3.1-1.413A3.979,3.979,0,0,0,11.975-11.774ZM25.7-7.844H27.76v-5.067c0-2.257-1.64-2.972-3.427-2.972a5.145,5.145,0,0,0-3.427,1.234l.78,1.38a3.3,3.3,0,0,1,2.29-.926c1.039,0,1.721.52,1.721,1.315v1.088a3.17,3.17,0,0,0-2.485-.958,2.484,2.484,0,0,0-2.728,2.5,2.613,2.613,0,0,0,2.728,2.6A3.246,3.246,0,0,0,25.7-8.656Zm0-1.884a2.063,2.063,0,0,1-1.656.682c-.812,0-1.478-.422-1.478-1.153,0-.763.666-1.186,1.478-1.186A2.063,2.063,0,0,1,25.7-10.7ZM35.6-7.844h2.079V-18.676H35.6v4a3.021,3.021,0,0,0-2.42-1.2c-2,0-3.475,1.559-3.475,4.125,0,2.615,1.494,4.109,3.475,4.109a3.045,3.045,0,0,0,2.42-1.2Zm0-2.533a2.244,2.244,0,0,1-1.786.893,2.043,2.043,0,0,1-1.981-2.274,2.048,2.048,0,0,1,1.981-2.29,2.244,2.244,0,0,1,1.786.893Zm4.028-1.4a3.972,3.972,0,0,0,4.19,4.125,4.889,4.889,0,0,0,3.232-1.088l-.909-1.332a3.208,3.208,0,0,1-2.095.78,2.114,2.114,0,0,1-2.257-1.819h5.83v-.455c0-2.566-1.592-4.32-3.93-4.32A3.992,3.992,0,0,0,39.632-11.774Zm4.06-2.468A1.817,1.817,0,0,1,45.624-12.5H41.759A1.885,1.885,0,0,1,43.692-14.242Zm15.558,6.4h2.079v-5.668a2.094,2.094,0,0,0-2.306-2.371,3.329,3.329,0,0,0-2.7,1.429,2.076,2.076,0,0,0-2.176-1.429,3.431,3.431,0,0,0-2.566,1.218v-1.023H49.522v7.844h2.062v-5.278a2.105,2.105,0,0,1,1.624-.926c.844,0,1.169.52,1.169,1.25v4.953h2.079v-5.294a2.082,2.082,0,0,1,1.624-.909c.844,0,1.169.52,1.169,1.25ZM63.8-6.626l-.309,1.851a5.638,5.638,0,0,0,1.023.114,2.85,2.85,0,0,0,2.972-1.9l3.686-9.127H68.945L66.9-10.231l-2.046-5.457H62.644L65.827-7.73l-.292.666a1.04,1.04,0,0,1-1.088.568A1.782,1.782,0,0,1,63.8-6.626Z" transform="translate(112.69 28.144)" fill="#414141"/>
</svg>
