<svg id="logo" xmlns="http://www.w3.org/2000/svg" xmlns:xlink="http://www.w3.org/1999/xlink" width="221.052" height="35.256" viewBox="0 0 221.052 35.256">
  <defs>
    <clipPath id="clip-path">
      <rect id="Rectangle_2" data-name="Rectangle 2" width="128" height="35.256"/>
    </clipPath>
  </defs>
  <g id="Logo-2" data-name="Logo">
    <rect id="Rectangle_1" data-name="Rectangle 1" width="128" height="35.256" fill="red"/>
    <g id="Group_6" data-name="Group 6">
      <g id="Group_1" data-name="Group 1" clip-path="url(#clip-path)">
        <path id="Path_1" data-name="Path 1" d="M105.814,27.486a3.077,3.077,0,0,0,1.114.571,5.459,5.459,0,0,0,1.346.141,7.792,7.792,0,0,0,3.37-.775v2.1a9.693,9.693,0,0,1-3.562.667,5.351,5.351,0,0,1-4.2-1.606,6.772,6.772,0,0,1-1.436-4.654,6.763,6.763,0,0,1,1.436-4.654,5.343,5.343,0,0,1,4.2-1.606,9.632,9.632,0,0,1,3.562.679v2.115a7.557,7.557,0,0,0-3.325-.8h-.045a3.716,3.716,0,0,0-2.612.865c-.633.577-.944,1.708-.944,3.4a7.557,7.557,0,0,0,.277,2.234,2.556,2.556,0,0,0,.82,1.317M121,30.008V22.765a2.933,2.933,0,0,0-.752-2.381,3.073,3.073,0,0,0-1.962-.594,8.168,8.168,0,0,0-2.986.582v9.635h-2.211V13.22H115.3v5.055a8.779,8.779,0,0,1,3.2-.6,4.58,4.58,0,0,1,3.511,1.346,5.443,5.443,0,0,1,1.25,3.834v7.153Zm13.588-2.969a4.4,4.4,0,0,1-.368.99,3.309,3.309,0,0,1-.792,1.057,4.229,4.229,0,0,1-1.5.78,8.262,8.262,0,0,1-4.648-.011,4.42,4.42,0,0,1-1.515-.792,3.427,3.427,0,0,1-.809-1.074,3.9,3.9,0,0,1-.373-1.023,4.862,4.862,0,0,1-.074-.8,3.193,3.193,0,0,1,1.515-2.81,7.474,7.474,0,0,1,4.179-1.012,16.256,16.256,0,0,1,2.194.141,2.972,2.972,0,0,0-.831-2.2,3.782,3.782,0,0,0-2.494-.667,10.447,10.447,0,0,0-3.347.605v-1.9a10.181,10.181,0,0,1,3.653-.65,5.419,5.419,0,0,1,3.9,1.312,4.975,4.975,0,0,1,1.38,3.772v3.506a3.564,3.564,0,0,1-.074.775M132.4,24.269a13.73,13.73,0,0,0-2.1-.153,5.91,5.91,0,0,0-1.018.09,8.53,8.53,0,0,0-1.142.277,2.25,2.25,0,0,0-1.018.628,1.49,1.49,0,0,0-.4,1.04c0,1.368.967,2.058,2.9,2.058h.034q2.74,0,2.737-1.973V24.269Zm6.107-4.043V30H136.3V18.886a15.781,15.781,0,0,1,5.892-1.21v2.041a15.548,15.548,0,0,0-3.681.509M148.67,28.2h.023a2.63,2.63,0,0,0,1.408-.356v2.013a4.342,4.342,0,0,1-1.657.339h-.057a4.26,4.26,0,0,1-.933-.107,6.058,6.058,0,0,1-1.187-.418,2.519,2.519,0,0,1-1.142-1.091,3.8,3.8,0,0,1-.447-1.928V19.762h-2.1v-1.9h2.1v-3.6h2.211v3.6h3.217v1.9h-3.217v7.017c-.006.95.588,1.419,1.781,1.419m5.355-6.129a7.808,7.808,0,0,0,1.538.594,17.331,17.331,0,0,1,1.8.616,3.615,3.615,0,0,1,1.544,1.216,3.6,3.6,0,0,1-.452,4.642,4.735,4.735,0,0,1-3.4,1.063,7.086,7.086,0,0,1-3.489-.854v-2.03a6.7,6.7,0,0,0,3.347.888h.045a3.135,3.135,0,0,0,1.77-.418,1.264,1.264,0,0,0,.611-1.074,1.415,1.415,0,0,0-.633-1.2,4.868,4.868,0,0,0-1.544-.712c-.605-.17-1.216-.362-1.815-.571a3.536,3.536,0,0,1-1.538-1.04,2.764,2.764,0,0,1-.633-1.889,3.458,3.458,0,0,1,1.069-2.561,4.5,4.5,0,0,1,3.268-1.057,7.169,7.169,0,0,1,3.234.8V20.4a7.129,7.129,0,0,0-2.963-.724q-2.4,0-2.4,1.555a1.006,1.006,0,0,0,.645.843" transform="translate(-44.52 -5.745)" fill="#fff"/>
      </g>
      <g id="Group_2" data-name="Group 2" clip-path="url(#clip-path)">
        <path id="Path_2" data-name="Path 2" d="M51.632,36.235a4.939,4.939,0,0,1-4.914,4.914c-.006,0,0-4.959,0-4.959.045.051,4.914.028,4.914.045" transform="translate(-20.3 -15.727)" fill="#fff"/>
      </g>
      <g id="Group_3" data-name="Group 3" clip-path="url(#clip-path)">
        <path id="Path_3" data-name="Path 3" d="M62.7,30.71V22.749a2.625,2.625,0,0,0-.509-1.685,2.443,2.443,0,0,0-1.99-.639,8.462,8.462,0,0,0-3.246.679,5.058,5.058,0,0,1,.283,1.736v7.877H55.027V22.771a2.382,2.382,0,0,0-.565-1.685,3.013,3.013,0,0,0-2.234-.616,10.107,10.107,0,0,0-2.641.368V30.71H47.377V25.825A6.561,6.561,0,0,1,41.9,28.1a7.895,7.895,0,0,1-14.752,2.618H18.16v-2.07l6.152-8.029H18.3V18.576h8.849v2.007L21.021,28.6h5.332l-.017-.068a7.971,7.971,0,0,1,6.112-9.437,7.846,7.846,0,0,1,3.755.119,6.571,6.571,0,0,1,12.327-.153,10.932,10.932,0,0,1,3.862-.707,5.39,5.39,0,0,1,3.234.916,11.854,11.854,0,0,1,4.433-.916,5.038,5.038,0,0,1,3.574,1.2A4.367,4.367,0,0,1,64.917,22.9v7.8L62.7,30.71ZM42.5,16.874a4.672,4.672,0,0,0-4.671,4.671,4.915,4.915,0,0,0,.051.712,5.911,5.911,0,1,0,2.149,3.251A4.669,4.669,0,1,0,42.5,16.874" transform="translate(-7.892 -6.447)" fill="#fff"/>
      </g>
      <g id="Group_4" data-name="Group 4" clip-path="url(#clip-path)">
        <path id="Path_4" data-name="Path 4" d="M204.842,21.57a1.442,1.442,0,1,0,1.442,1.442,1.444,1.444,0,0,0-1.442-1.442m0,2.59a1.148,1.148,0,1,1,1.148-1.148,1.149,1.149,0,0,1-1.148,1.148" transform="translate(-88.388 -9.373)" fill="#fff"/>
      </g>
      <g id="Group_5" data-name="Group 5" clip-path="url(#clip-path)">
        <path id="Path_5" data-name="Path 5" d="M205.853,23.613a.364.364,0,0,0-.141-.085.4.4,0,0,0,.215-.141.383.383,0,0,0,.074-.249.355.355,0,0,0-.141-.317.737.737,0,0,0-.435-.1h-.594v1.51h.39v-.571h.107a.3.3,0,0,1,.153.04.382.382,0,0,1,.113.153l.187.373h.413l-.215-.424a.628.628,0,0,0-.124-.187m-.294-.266a.283.283,0,0,1-.175.045h-.164V23h.164a.283.283,0,0,1,.175.045.187.187,0,0,1,.057.147.191.191,0,0,1-.057.153" transform="translate(-89.01 -9.873)" fill="#fff"/>
      </g>
    </g>
  </g>
  <path id="Path_998" data-name="Path 998" d="M10.4-5.537h3.036L8.4-18.676H4.913L-.14-5.537H2.915L3.738-7.8H9.574ZM6.656-16.253l2.154,6.028H4.482ZM14.471-10.3a4.817,4.817,0,0,0,5.014,5,4.351,4.351,0,0,0,3.741-1.733L21.6-8.551a2.383,2.383,0,0,1-2,1.024A2.553,2.553,0,0,1,17.036-10.3,2.536,2.536,0,0,1,19.6-13.062a2.29,2.29,0,0,1,2,1.024l1.626-1.537a4.393,4.393,0,0,0-3.741-1.714A4.812,4.812,0,0,0,14.471-10.3Zm16.55,4.767h2.487v-6.146c0-2.738-1.978-3.6-4.133-3.6a6.184,6.184,0,0,0-4.133,1.5l.94,1.674a3.968,3.968,0,0,1,2.762-1.123c1.253,0,2.076.63,2.076,1.6v1.32a3.812,3.812,0,0,0-3-1.162,3,3,0,0,0-3.29,3.034A3.159,3.159,0,0,0,28.024-5.3a3.9,3.9,0,0,0,3-1.221Zm0-2.285a2.481,2.481,0,0,1-2,.827c-.979,0-1.782-.512-1.782-1.4,0-.926.8-1.438,1.782-1.438a2.481,2.481,0,0,1,2,.827ZM42.968-5.537h2.507V-18.676H42.968v4.846a3.636,3.636,0,0,0-2.918-1.458c-2.409,0-4.191,1.891-4.191,5,0,3.171,1.8,4.984,4.191,4.984a3.665,3.665,0,0,0,2.918-1.458Zm0-3.073a2.7,2.7,0,0,1-2.154,1.083,2.472,2.472,0,0,1-2.389-2.758,2.479,2.479,0,0,1,2.389-2.778,2.7,2.7,0,0,1,2.154,1.083ZM47.825-10.3a4.8,4.8,0,0,0,5.053,5,5.875,5.875,0,0,0,3.9-1.32l-1.1-1.615a3.856,3.856,0,0,1-2.527.946A2.553,2.553,0,0,1,50.43-9.5h7.031v-.552c0-3.112-1.919-5.24-4.74-5.24A4.829,4.829,0,0,0,47.825-10.3Zm4.9-2.994a2.2,2.2,0,0,1,2.331,2.108H50.391A2.279,2.279,0,0,1,52.721-13.3ZM71.484-5.537h2.507v-6.875a2.533,2.533,0,0,0-2.781-2.876,4.009,4.009,0,0,0-3.251,1.733,2.5,2.5,0,0,0-2.624-1.733A4.13,4.13,0,0,0,62.24-13.81v-1.241H59.753v9.514H62.24v-6.4A2.536,2.536,0,0,1,64.2-13.062c1.018,0,1.41.63,1.41,1.517v6.008h2.507v-6.422a2.508,2.508,0,0,1,1.959-1.1c1.018,0,1.41.63,1.41,1.517ZM76.968-4.06,76.6-1.814a6.762,6.762,0,0,0,1.234.138,3.436,3.436,0,0,0,3.584-2.3L85.86-15.051H83.177L80.709-8.433l-2.468-6.619H75.578L79.416-5.4l-.353.808a1.253,1.253,0,0,1-1.312.689A2.138,2.138,0,0,1,76.968-4.06Z" transform="translate(135.192 27.666)" fill="#414141"/>
</svg>
