<svg xmlns="http://www.w3.org/2000/svg" xmlns:xlink="http://www.w3.org/1999/xlink" width="233.234" height="214.178" viewBox="0 0 233.234 214.178">
  <defs>
    <clipPath id="clip-path">
      <path id="Path_448" data-name="Path 448" d="M241.543,386.882a9.555,9.555,0,1,1-2.423-13.3A9.56,9.56,0,0,1,241.543,386.882Z" transform="translate(-224.121 -371.887)" fill="#1b9eff" stroke="#263238" stroke-linecap="round" stroke-linejoin="round" stroke-width="1"/>
    </clipPath>
    <clipPath id="clip-path-2">
      <path id="Path_480" data-name="Path 480" d="M349.525,86.914l-7.331,71.535-4.509,44.006L274.68,196l-12.26-1.256-7.85-.8,6.957-67.914L266.41,78.4Z" transform="translate(-254.57 -78.4)" fill="#fff" stroke="#263238" stroke-linecap="round" stroke-linejoin="round" stroke-width="1"/>
    </clipPath>
    <clipPath id="clip-path-3">
      <circle id="Ellipse_20" data-name="Ellipse 20" cx="15.198" cy="15.198" r="15.198" transform="matrix(0.768, -0.64, 0.64, 0.768, 0, 19.456)" fill="#92e3a9" stroke="#263238" stroke-miterlimit="10" stroke-width="1"/>
    </clipPath>
    <clipPath id="clip-path-4">
      <path id="Path_505" data-name="Path 505" d="M352.689,200.488l-1.719,3.9L304.69,266.1l-5.154-3.286,7-8.779L348.1,201.891l3.667-2.329A1.3,1.3,0,0,1,352.689,200.488Z" transform="translate(-299.536 -199.562)" fill="#92e3a9" stroke="#263238" stroke-linecap="round" stroke-linejoin="round" stroke-width="1"/>
    </clipPath>
    <clipPath id="clip-path-5">
      <path id="Path_509" data-name="Path 509" d="M311.457,292a182.734,182.734,0,0,1-10.135,17.505l-3.551.918s-8.144,8.094-13.114,12.133a11.144,11.144,0,0,1-2.429-2.039s7.057-13.55,14.863-22.127a9.961,9.961,0,0,1,2.561,1.36,12.579,12.579,0,0,1,2.674,2.566l8.7-10.948Z" transform="translate(-282.228 -291.371)" fill="#92e3a9" stroke="#263238" stroke-linecap="round" stroke-linejoin="round" stroke-width="1"/>
    </clipPath>
    <clipPath id="clip-path-6">
      <path id="Path_543" data-name="Path 543" d="M185.163,174.354,115.35,203.734l-7.2,3.03L94.592,174.54,63.1,99.711,140.109,67.3Z" transform="translate(-63.1 -67.3)" fill="#fff" stroke="#263238" stroke-linecap="round" stroke-linejoin="round" stroke-width="1"/>
    </clipPath>
  </defs>
  <g id="Group_221" data-name="Group 221" transform="translate(-25.059 -50.162)">
    <g id="Background_Simple" data-name="Background Simple" transform="translate(25.059 50.162)">
      <g id="Group_112" data-name="Group 112">
        <path id="Path_439" data-name="Path 439" d="M130.48,50.763c64.352-5.731,64.461,30.576,93.456,64.4s35.2,49.16,24.27,88.152-47.765,69.558-93.332,52.239-71.67-.687-100.412-16.066S15.049,194.4,36.087,159.377,51.131,57.83,130.48,50.763Z" transform="translate(-25.059 -50.162)" fill="#c7e7ff"/>
      </g>
    </g>
    <g id="Doodles" transform="translate(26.495 52.598)">
      <g id="Group_118" data-name="Group 118" transform="translate(0 0)">
        <g id="Group_113" data-name="Group 113" transform="translate(105.425)">
          <rect id="Rectangle_718" data-name="Rectangle 718" width="16.1" height="16.1" rx="5.09" transform="translate(0 3.318) rotate(-11.893)" fill="none" stroke="#263238" stroke-linecap="round" stroke-linejoin="round" stroke-width="1"/>
          <line id="Line_41" data-name="Line 41" x2="1.353" y2="6.424" transform="translate(8.86 6.324)" fill="none" stroke="#263238" stroke-linecap="round" stroke-linejoin="round" stroke-width="1"/>
          <line id="Line_42" data-name="Line 42" x1="6.424" y2="1.353" transform="translate(6.324 8.86)" fill="none" stroke="#263238" stroke-linecap="round" stroke-linejoin="round" stroke-width="1"/>
        </g>
        <g id="Group_114" data-name="Group 114" transform="translate(212.133 113.172)">
          <rect id="Rectangle_719" data-name="Rectangle 719" width="16.1" height="16.1" rx="5.09" transform="translate(0 3.318) rotate(-11.893)" fill="none" stroke="#263238" stroke-linecap="round" stroke-linejoin="round" stroke-width="1"/>
          <line id="Line_43" data-name="Line 43" x1="3.586" y2="5.499" transform="translate(7.743 6.787)" fill="none" stroke="#263238" stroke-linecap="round" stroke-linejoin="round" stroke-width="1"/>
          <line id="Line_44" data-name="Line 44" x1="5.499" y1="3.586" transform="translate(6.787 7.743)" fill="none" stroke="#263238" stroke-linecap="round" stroke-linejoin="round" stroke-width="1"/>
        </g>
        <g id="Group_115" data-name="Group 115" transform="translate(68.354 181.277)">
          <rect id="Rectangle_720" data-name="Rectangle 720" width="16.1" height="16.1" rx="5.09" transform="translate(0.928 0) rotate(3.304)" fill="none" stroke="#263238" stroke-linecap="round" stroke-linejoin="round" stroke-width="1"/>
          <line id="Line_45" data-name="Line 45" x1="6.554" y1="0.378" transform="translate(5.224 8.312)" fill="none" stroke="#263238" stroke-linecap="round" stroke-linejoin="round" stroke-width="1"/>
        </g>
        <g id="Group_117" data-name="Group 117" transform="translate(0 103.104)">
          <rect id="Rectangle_721" data-name="Rectangle 721" width="16.1" height="16.1" rx="5.09" transform="translate(5.063) rotate(18.329)" fill="none" stroke="#263238" stroke-linecap="round" stroke-linejoin="round" stroke-width="1"/>
          <line id="Line_46" data-name="Line 46" x1="8.214" y2="4.126" transform="translate(6.066 8.11)" fill="none" stroke="#263238" stroke-linecap="round" stroke-linejoin="round" stroke-width="1"/>
          <g id="Group_116" data-name="Group 116" transform="translate(7.397 5.782)">
            <path id="Path_441" data-name="Path 441" d="M44.254,265.361a1.146,1.146,0,1,1-1.538-.509A1.146,1.146,0,0,1,44.254,265.361Z" transform="translate(-42.084 -264.729)" fill="none" stroke="#263238" stroke-linecap="round" stroke-linejoin="round" stroke-width="1"/>
            <path id="Path_442" data-name="Path 442" d="M50.538,277.872a1.146,1.146,0,1,1-1.538-.51A1.146,1.146,0,0,1,50.538,277.872Z" transform="translate(-45.108 -270.749)" fill="none" stroke="#263238" stroke-linecap="round" stroke-linejoin="round" stroke-width="1"/>
          </g>
        </g>
      </g>
    </g>
    <g id="Coins" transform="translate(114.688 208.267)">
      <g id="Group_121" data-name="Group 121" transform="translate(13.648 8.812)">
        <path id="Path_443" data-name="Path 443" d="M241.543,386.882a9.555,9.555,0,1,1-2.423-13.3A9.56,9.56,0,0,1,241.543,386.882Z" transform="translate(-224.121 -371.887)" fill="#1b9eff"/>
        <g id="Group_120" data-name="Group 120" clip-path="url(#clip-path)">
          <path id="Path_444" data-name="Path 444" d="M241.7,387.425a8.042,8.042,0,1,1-2.041-11.189A8.043,8.043,0,0,1,241.7,387.425Z" transform="translate(-225.528 -373.292)" fill="rgba(0,0,0,0.7)" opacity="0.3"/>
          <path id="Path_445" data-name="Path 445" d="M241.7,387.425a8.042,8.042,0,1,1-2.041-11.189A8.043,8.043,0,0,1,241.7,387.425Z" transform="translate(-225.528 -373.292)" fill="none" stroke="#263238" stroke-linecap="round" stroke-linejoin="round" stroke-width="1"/>
          <g id="Group_119" data-name="Group 119" transform="translate(5.987 4.987)">
            <path id="Path_446" data-name="Path 446" d="M241.3,382.056l.386-.558.966.667-.386.558a1.981,1.981,0,0,1,0,2.71l-.163.237-1.116-.772.215-.311c.371-.537.3-.889-.078-1.149s-.732-.2-1.1.332-.416,1.06-.06,2.242a3.218,3.218,0,0,1-.237,3.119,2,2,0,0,1-2.553.962l-.378.548-.966-.668.378-.547a1.992,1.992,0,0,1,0-2.728l.356-.515,1.116.771-.408.59c-.371.537-.269.893.107,1.152s.745.23,1.116-.307.423-1.071.06-2.242a3.2,3.2,0,0,1,.238-3.119A1.989,1.989,0,0,1,241.3,382.056Z" transform="translate(-235.661 -381.498)" fill="#c7e7ff" stroke="#263238" stroke-linecap="round" stroke-linejoin="round" stroke-width="1"/>
          </g>
          <path id="Path_447" data-name="Path 447" d="M231.016,374.076a12.876,12.876,0,0,1-6.3,11.077,9.552,9.552,0,0,1,6.221-12.483A12.561,12.561,0,0,1,231.016,374.076Z" transform="translate(-224.121 -372.264)" fill="rgba(0,0,0,0.7)" opacity="0.2"/>
        </g>
        <path id="Path_449" data-name="Path 449" d="M241.543,386.882a9.555,9.555,0,1,1-2.423-13.3A9.56,9.56,0,0,1,241.543,386.882Z" transform="translate(-224.121 -371.887)" fill="none" stroke="#263238" stroke-linecap="round" stroke-linejoin="round" stroke-width="1"/>
      </g>
      <g id="Group_123" data-name="Group 123" transform="translate(0 0.769)">
        <path id="Path_662" data-name="Path 662" d="M9.559,0A9.559,9.559,0,1,1,0,9.559,9.559,9.559,0,0,1,9.559,0Z" fill="#1b9eff" stroke="#263238" stroke-linecap="round" stroke-width="1"/>
        <circle id="Ellipse_15" data-name="Ellipse 15" cx="8.042" cy="8.042" r="8.042" transform="translate(1.517 1.517)" fill="rgba(0,0,0,0.7)" opacity="0.3"/>
        <circle id="Ellipse_16" data-name="Ellipse 16" cx="8.042" cy="8.042" r="8.042" transform="translate(1.517 1.517)" fill="none" stroke="#263238" stroke-linecap="round" stroke-linejoin="round" stroke-width="1"/>
        <g id="Group_122" data-name="Group 122" transform="translate(7.42 4.406)">
          <path id="Path_450" data-name="Path 450" d="M213.669,365.555v-.679h1.174v.679a1.98,1.98,0,0,1,1.54,2.23v.287h-1.357v-.378c0-.653-.261-.9-.718-.9s-.718.247-.718.9.261,1.109,1.227,1.878a3.219,3.219,0,0,1,1.579,2.7,2,2,0,0,1-1.553,2.243v.666h-1.174v-.666a1.992,1.992,0,0,1-1.552-2.243v-.626h1.357v.717c0,.653.287.887.743.887s.743-.235.743-.887-.261-1.122-1.227-1.878a3.2,3.2,0,0,1-1.578-2.7A1.99,1.99,0,0,1,213.669,365.555Z" transform="translate(-212.117 -364.876)" fill="#c7e7ff" stroke="#263238" stroke-linecap="round" stroke-linejoin="round" stroke-width="1"/>
        </g>
      </g>
      <g id="Group_125" data-name="Group 125" transform="translate(41.965)">
        <path id="Path_661" data-name="Path 661" d="M9.559,0A9.559,9.559,0,1,1,0,9.559,9.559,9.559,0,0,1,9.559,0Z" transform="translate(0 16.097) rotate(-57.348)" fill="#1b9eff" stroke="#263238" stroke-linecap="round" stroke-width="1"/>
        <path id="Path_451" data-name="Path 451" d="M302.589,367.424a8.042,8.042,0,1,1-11.366-.42A8.042,8.042,0,0,1,302.589,367.424Z" transform="translate(-283.49 -359.691)" fill="rgba(0,0,0,0.7)" opacity="0.3"/>
        <path id="Path_452" data-name="Path 452" d="M302.589,367.424a8.042,8.042,0,1,1-11.366-.42A8.042,8.042,0,0,1,302.589,367.424Z" transform="translate(-283.49 -359.691)" fill="none" stroke="#263238" stroke-linecap="round" stroke-linejoin="round" stroke-width="1"/>
        <g id="Group_124" data-name="Group 124" transform="translate(9.269 9.031)">
          <path id="Path_453" data-name="Path 453" d="M297.028,373.605l-.462-.5.86-.8.462.5a1.98,1.98,0,0,1,2.645.587l.2.211-.994.923-.257-.277c-.444-.478-.8-.482-1.138-.171s-.357.67.087,1.148.946.635,2.176.542a3.218,3.218,0,0,1,2.995.9,2,2,0,0,1,.389,2.7l.453.488-.86.8-.453-.488a1.993,1.993,0,0,1-2.664-.587l-.426-.459.994-.924.488.526c.444.478.814.455,1.148.144s.385-.678-.059-1.156-.954-.644-2.176-.542a3.2,3.2,0,0,1-2.994-.9A1.99,1.99,0,0,1,297.028,373.605Z" transform="translate(-296.566 -372.309)" fill="#c7e7ff" stroke="#263238" stroke-linecap="round" stroke-linejoin="round" stroke-width="1"/>
        </g>
      </g>
    </g>
    <g id="Right_hand" data-name="Right hand" transform="translate(144.134 64.812)">
      <g id="Group_191" data-name="Group 191">
        <path id="Path_454" data-name="Path 454" d="M293.528,300.254s-.039,19.838,0,21,1.541,8.125,1.541,8.125l-4.817,8.88L294.4,341.6l8.068-7.931s6.87,4.244,8.126,10.313,8.73,10.49,16.487,27.3,16.6-37.612,16.6-37.612l-23.932-30.131Z" transform="translate(-271.739 -185.151)" fill="rgba(0,0,0,0.7)" opacity="0.2"/>
        <g id="Group_179" data-name="Group 179">
          <path id="Path_455" data-name="Path 455" d="M349.525,86.914l-7.331,71.535-4.509,44.006L274.68,196l-12.26-1.256-7.85-.8,6.957-67.914L266.41,78.4Z" transform="translate(-254.57 -78.4)" fill="#fff"/>
          <g id="Group_178" data-name="Group 178" clip-path="url(#clip-path-2)">
            <path id="Path_456" data-name="Path 456" d="M356.535,96.542l-35.878-3.677a1.226,1.226,0,0,0-.25,2.439l35.878,3.676a1.226,1.226,0,1,0,.25-2.438Z" transform="translate(-285.72 -85.357)" fill="#263238"/>
            <path id="Path_457" data-name="Path 457" d="M355.521,106.138,337.582,104.3a.613.613,0,0,0-.125,1.22l17.939,1.838a.613.613,0,1,0,.125-1.219Z" transform="translate(-294.189 -90.861)" fill="#263238"/>
            <g id="Group_126" data-name="Group 126" transform="translate(11.784 62.103)">
              <path id="Path_458" data-name="Path 458" d="M356.2,204.071,297.964,198.1a.613.613,0,0,0-.125,1.219l58.231,5.967a.613.613,0,0,0,.125-1.219Z" transform="translate(-286.91 -198.101)" fill="#263238"/>
              <path id="Path_459" data-name="Path 459" d="M346.536,211.621l-67.711-6.938a.613.613,0,1,0-.125,1.219l67.711,6.939a.613.613,0,0,0,.125-1.22Z" transform="translate(-277.7 -201.266)" fill="#263238"/>
              <path id="Path_460" data-name="Path 460" d="M326.709,218.13l-48.751-5a.613.613,0,0,0-.125,1.219l48.751,5a.613.613,0,1,0,.125-1.219Z" transform="translate(-277.284 -205.333)" fill="#263238"/>
            </g>
            <rect id="Rectangle_722" data-name="Rectangle 722" width="19.437" height="68.618" transform="translate(9.716 93.971) rotate(-84.149)" fill="#bfbfbf" stroke="#263238" stroke-miterlimit="10" stroke-width="1"/>
            <g id="Group_152" data-name="Group 152" transform="translate(11.868 19.195)">
              <g id="Group_130" data-name="Group 130">
                <g id="Group_128" data-name="Group 128">
                  <path id="Path_660" data-name="Path 660" d="M15.2,0A15.2,15.2,0,1,1,0,15.2,15.2,15.2,0,0,1,15.2,0Z" transform="matrix(0.768, -0.64, 0.64, 0.768, 0, 19.456)" fill="#c7e7ff"/>
                  <g id="Group_127" data-name="Group 127" clip-path="url(#clip-path-3)">
                    <path id="Path_659" data-name="Path 659" d="M15.2,0A15.2,15.2,0,1,1,0,15.2,15.2,15.2,0,0,1,15.2,0Z" transform="matrix(0.768, -0.64, 0.64, 0.768, 0, 19.456)" fill="none" opacity="0.5"/>
                  </g>
                  <circle id="Ellipse_21" data-name="Ellipse 21" cx="15.198" cy="15.198" r="15.198" transform="matrix(0.768, -0.64, 0.64, 0.768, 0, 19.456)" fill="none" stroke="#263238" stroke-miterlimit="10" stroke-width="1"/>
                </g>
                <g id="Group_129" data-name="Group 129" transform="translate(6.89 6.89)">
                  <path id="Path_461" data-name="Path 461" d="M319.543,148.276l12.639,6.359a14.522,14.522,0,0,0-1.672-15.287Z" transform="translate(-304.591 -133.812)" fill="#fff"/>
                  <path id="Path_462" data-name="Path 462" d="M319.7,143.346l10.582-8.615a14.492,14.492,0,0,0-5.911-4.21l-1.909,5.241Z" transform="translate(-304.669 -129.564)" fill="#bf3efe"/>
                  <path id="Path_463" data-name="Path 463" d="M320.821,128.876,319.537,141.4l4.31-11.833A14.519,14.519,0,0,0,320.821,128.876Z" transform="translate(-304.589 -128.773)" fill="#757575"/>
                  <path id="Path_464" data-name="Path 464" d="M305.017,143.029l1.465-14.3a14.51,14.51,0,0,0-14.553,20.242Z" transform="translate(-290.725 -128.677)" fill="#999"/>
                  <path id="Path_465" data-name="Path 465" d="M305.058,171.333a14.518,14.518,0,0,0,14.337-7.7l-12.863-6.471-13.112,5.956A14.507,14.507,0,0,0,305.058,171.333Z" transform="translate(-292.022 -142.382)" fill="#bfbfbf"/>
                </g>
              </g>
              <g id="Group_151" data-name="Group 151" transform="translate(41.305 11.326)">
                <g id="Group_134" data-name="Group 134" transform="translate(2.185)">
                  <path id="Path_658" data-name="Path 658" d="M.626,0H1.766a.626.626,0,0,1,.626.626V1.766a.626.626,0,0,1-.626.626H.626A.626.626,0,0,1,0,1.766V.626A.626.626,0,0,1,.626,0Z" transform="translate(0.244) rotate(5.851)" fill="#bf3efe" stroke="#263238" stroke-width="1"/>
                  <g id="Group_133" data-name="Group 133" transform="translate(3.68 0.719)">
                    <g id="Group_131" data-name="Group 131" transform="translate(0.122)">
                      <path id="Path_466" data-name="Path 466" d="M391.182,141.45l-22.338-2.289a.275.275,0,1,1,.056-.547l22.338,2.289a.275.275,0,1,1-.056.547Z" transform="translate(-368.597 -138.612)" fill="#263238"/>
                    </g>
                    <g id="Group_132" data-name="Group 132" transform="translate(0 1.19)">
                      <path id="Path_467" data-name="Path 467" d="M388.76,143.519l-20.15-2.065a.275.275,0,0,1,.056-.547l20.15,2.065a.275.275,0,1,1-.056.547Z" transform="translate(-368.362 -140.906)" fill="#263238"/>
                    </g>
                  </g>
                </g>
                <g id="Group_138" data-name="Group 138" transform="translate(1.638 5.33)">
                  <rect id="Rectangle_724" data-name="Rectangle 724" width="2.392" height="2.392" rx="0.626" transform="matrix(0.995, 0.102, -0.102, 0.995, 0.244, 0)" fill="#757575" stroke="#263238" stroke-linecap="round" stroke-linejoin="round" stroke-width="1"/>
                  <g id="Group_137" data-name="Group 137" transform="translate(3.68 0.719)">
                    <g id="Group_135" data-name="Group 135" transform="translate(0.122)">
                      <path id="Path_468" data-name="Path 468" d="M390.129,151.723l-22.338-2.289a.275.275,0,1,1,.056-.547l22.338,2.289a.275.275,0,0,1-.056.547Z" transform="translate(-367.544 -148.885)" fill="#263238"/>
                    </g>
                    <g id="Group_136" data-name="Group 136" transform="translate(0 1.19)">
                      <path id="Path_469" data-name="Path 469" d="M387.707,153.791l-20.15-2.065a.275.275,0,1,1,.057-.547l20.15,2.065a.275.275,0,1,1-.056.547Z" transform="translate(-367.309 -151.178)" fill="#263238"/>
                    </g>
                  </g>
                </g>
                <g id="Group_142" data-name="Group 142" transform="translate(1.092 10.659)">
                  <rect id="Rectangle_725" data-name="Rectangle 725" width="2.392" height="2.392" rx="0.626" transform="matrix(0.995, 0.102, -0.102, 0.995, 0.244, 0)" fill="#999" stroke="#263238" stroke-linecap="round" stroke-linejoin="round" stroke-width="1"/>
                  <g id="Group_141" data-name="Group 141" transform="translate(3.68 0.719)">
                    <g id="Group_139" data-name="Group 139" transform="translate(0.122)">
                      <path id="Path_470" data-name="Path 470" d="M389.077,162l-22.338-2.289a.275.275,0,0,1,.056-.547l22.338,2.289a.275.275,0,0,1-.056.547Z" transform="translate(-366.492 -159.158)" fill="#263238"/>
                    </g>
                    <g id="Group_140" data-name="Group 140" transform="translate(0 1.19)">
                      <path id="Path_471" data-name="Path 471" d="M386.655,164.064,366.5,162a.275.275,0,0,1,.056-.547l20.151,2.065a.275.275,0,1,1-.056.547Z" transform="translate(-366.257 -161.451)" fill="#263238"/>
                    </g>
                  </g>
                </g>
                <g id="Group_146" data-name="Group 146" transform="translate(0.546 15.989)">
                  <rect id="Rectangle_726" data-name="Rectangle 726" width="2.392" height="2.392" rx="0.626" transform="matrix(0.995, 0.102, -0.102, 0.995, 0.244, 0)" fill="#bfbfbf" stroke="#263238" stroke-miterlimit="10" stroke-width="1"/>
                  <g id="Group_145" data-name="Group 145" transform="translate(3.68 0.719)">
                    <g id="Group_143" data-name="Group 143" transform="translate(0.122)">
                      <path id="Path_472" data-name="Path 472" d="M388.024,172.269l-22.338-2.289a.275.275,0,1,1,.056-.547l22.338,2.289a.275.275,0,0,1-.056.547Z" transform="translate(-365.439 -169.431)" fill="#263238"/>
                    </g>
                    <g id="Group_144" data-name="Group 144" transform="translate(0 1.19)">
                      <path id="Path_473" data-name="Path 473" d="M385.6,174.337l-20.151-2.065a.275.275,0,1,1,.056-.547l20.151,2.065a.275.275,0,0,1-.056.547Z" transform="translate(-365.204 -171.724)" fill="#263238"/>
                    </g>
                  </g>
                </g>
                <g id="Group_150" data-name="Group 150" transform="translate(0 21.319)">
                  <rect id="Rectangle_727" data-name="Rectangle 727" width="2.392" height="2.392" rx="0.626" transform="translate(0.244) rotate(5.85)" fill="#fff" stroke="#263238" stroke-linecap="round" stroke-linejoin="round" stroke-width="1"/>
                  <g id="Group_149" data-name="Group 149" transform="translate(3.68 0.719)">
                    <g id="Group_147" data-name="Group 147" transform="translate(0.122)">
                      <path id="Path_474" data-name="Path 474" d="M386.971,182.541l-22.338-2.289a.275.275,0,0,1,.056-.547l22.338,2.289a.275.275,0,0,1-.056.547Z" transform="translate(-364.386 -179.703)" fill="#263238"/>
                    </g>
                    <g id="Group_148" data-name="Group 148" transform="translate(0 1.19)">
                      <path id="Path_475" data-name="Path 475" d="M384.549,184.61,364.4,182.545a.275.275,0,1,1,.056-.547l20.151,2.065a.275.275,0,0,1-.056.547Z" transform="translate(-364.151 -181.997)" fill="#263238"/>
                    </g>
                  </g>
                </g>
              </g>
            </g>
            <g id="Group_176" data-name="Group 176" transform="translate(12.298 79.967)">
              <g id="Group_153" data-name="Group 153" transform="translate(57.326 7.177)">
                <rect id="Rectangle_728" data-name="Rectangle 728" width="1.282" height="7.33" transform="translate(1.276 7.423) rotate(-174.148)" fill="#757575" stroke="#263238" stroke-linecap="round" stroke-linejoin="round" stroke-width="1"/>
                <rect id="Rectangle_729" data-name="Rectangle 729" width="1.282" height="3.45" transform="translate(1.388 6.324) rotate(-174.15)" fill="#92e3a9" stroke="#263238" stroke-miterlimit="10" stroke-width="1"/>
              </g>
              <g id="Group_154" data-name="Group 154" transform="translate(60.386 5.63)">
                <rect id="Rectangle_730" data-name="Rectangle 730" width="1.282" height="7.33" transform="translate(1.276 7.423) rotate(-174.15)" fill="#757575" stroke="#263238" stroke-linecap="round" stroke-linejoin="round" stroke-width="1"/>
                <rect id="Rectangle_731" data-name="Rectangle 731" width="3.45" height="1.282" transform="translate(0.197 5.37) rotate(-84.148)" fill="#92e3a9" stroke="#263238" stroke-miterlimit="10" stroke-width="1"/>
              </g>
              <g id="Group_155" data-name="Group 155" transform="translate(63.114 7.324)">
                <rect id="Rectangle_732" data-name="Rectangle 732" width="1.282" height="7.33" transform="translate(1.276 7.423) rotate(-174.15)" fill="#757575" stroke="#263238" stroke-linecap="round" stroke-linejoin="round" stroke-width="1"/>
                <rect id="Rectangle_733" data-name="Rectangle 733" width="1.282" height="3.45" transform="translate(1.557 4.676) rotate(-174.148)" fill="#92e3a9" stroke="#263238" stroke-miterlimit="10" stroke-width="1"/>
              </g>
              <g id="Group_156" data-name="Group 156" transform="translate(54.603 5.442)">
                <rect id="Rectangle_734" data-name="Rectangle 734" width="1.282" height="7.33" transform="translate(1.276 7.423) rotate(-174.148)" fill="#757575" stroke="#263238" stroke-linecap="round" stroke-linejoin="round" stroke-width="1"/>
                <rect id="Rectangle_735" data-name="Rectangle 735" width="1.282" height="3.45" transform="translate(1.388 6.324) rotate(-174.15)" fill="#92e3a9" stroke="#263238" stroke-miterlimit="10" stroke-width="1"/>
              </g>
              <g id="Group_157" data-name="Group 157" transform="translate(51.511 7.305)">
                <rect id="Rectangle_736" data-name="Rectangle 736" width="1.282" height="7.33" transform="translate(1.276 7.423) rotate(-174.15)" fill="#757575" stroke="#263238" stroke-linecap="round" stroke-linejoin="round" stroke-width="1"/>
                <rect id="Rectangle_737" data-name="Rectangle 737" width="1.282" height="3.45" transform="translate(1.36 6.599) rotate(-174.148)" fill="#92e3a9" stroke="#263238" stroke-miterlimit="10" stroke-width="1"/>
              </g>
              <g id="Group_158" data-name="Group 158" transform="translate(48.832 5.128)">
                <rect id="Rectangle_738" data-name="Rectangle 738" width="1.282" height="7.33" transform="translate(1.276 7.423) rotate(-174.15)" fill="#757575" stroke="#263238" stroke-linecap="round" stroke-linejoin="round" stroke-width="1"/>
                <rect id="Rectangle_739" data-name="Rectangle 739" width="1.282" height="3.45" transform="translate(1.304 7.148) rotate(-174.148)" fill="#92e3a9" stroke="#263238" stroke-miterlimit="10" stroke-width="1"/>
              </g>
              <g id="Group_159" data-name="Group 159" transform="translate(45.57 8.646)">
                <rect id="Rectangle_740" data-name="Rectangle 740" width="1.282" height="7.33" transform="translate(1.276 7.423) rotate(-174.148)" fill="#757575" stroke="#263238" stroke-linecap="round" stroke-linejoin="round" stroke-width="1"/>
                <rect id="Rectangle_741" data-name="Rectangle 741" width="1.282" height="3.45" transform="translate(1.304 7.148) rotate(-174.148)" fill="#92e3a9" stroke="#263238" stroke-miterlimit="10" stroke-width="1"/>
              </g>
              <g id="Group_160" data-name="Group 160" transform="translate(43.17 3.76)">
                <rect id="Rectangle_742" data-name="Rectangle 742" width="1.282" height="7.33" transform="translate(1.276 7.423) rotate(-174.15)" fill="#757575" stroke="#263238" stroke-linecap="round" stroke-linejoin="round" stroke-width="1"/>
                <rect id="Rectangle_743" data-name="Rectangle 743" width="1.282" height="3.45" transform="translate(1.388 6.324) rotate(-174.15)" fill="#92e3a9" stroke="#263238" stroke-miterlimit="10" stroke-width="1"/>
              </g>
              <g id="Group_161" data-name="Group 161" transform="translate(40.342 3.04)">
                <rect id="Rectangle_744" data-name="Rectangle 744" width="1.282" height="7.33" transform="translate(1.276 7.423) rotate(-174.148)" fill="#757575" stroke="#263238" stroke-linecap="round" stroke-linejoin="round" stroke-width="1"/>
                <rect id="Rectangle_745" data-name="Rectangle 745" width="1.282" height="3.45" transform="translate(1.557 4.676) rotate(-174.15)" fill="#92e3a9" stroke="#263238" stroke-miterlimit="10" stroke-width="1"/>
              </g>
              <g id="Group_162" data-name="Group 162" transform="translate(37.002 7.322)">
                <rect id="Rectangle_746" data-name="Rectangle 746" width="1.282" height="7.33" transform="translate(1.276 7.423) rotate(-174.15)" fill="#757575" stroke="#263238" stroke-linecap="round" stroke-linejoin="round" stroke-width="1"/>
                <rect id="Rectangle_747" data-name="Rectangle 747" width="1.282" height="3.45" transform="translate(1.585 4.402) rotate(-174.15)" fill="#92e3a9" stroke="#263238" stroke-miterlimit="10" stroke-width="1"/>
              </g>
              <g id="Group_163" data-name="Group 163" transform="translate(34.459 3.823)">
                <rect id="Rectangle_748" data-name="Rectangle 748" width="1.282" height="7.33" transform="translate(1.276 7.423) rotate(-174.15)" fill="#757575" stroke="#263238" stroke-linecap="round" stroke-linejoin="round" stroke-width="1"/>
                <rect id="Rectangle_749" data-name="Rectangle 749" width="1.282" height="3.45" transform="translate(1.416 6.049) rotate(-174.15)" fill="#92e3a9" stroke="#263238" stroke-miterlimit="10" stroke-width="1"/>
              </g>
              <g id="Group_164" data-name="Group 164" transform="translate(31.393 5.431)">
                <rect id="Rectangle_750" data-name="Rectangle 750" width="1.282" height="7.33" transform="translate(1.276 7.423) rotate(-174.148)" fill="#757575" stroke="#263238" stroke-linecap="round" stroke-linejoin="round" stroke-width="1"/>
                <rect id="Rectangle_751" data-name="Rectangle 751" width="1.282" height="3.45" transform="matrix(-0.995, -0.102, 0.102, -0.995, 1.388, 6.324)" fill="#92e3a9" stroke="#263238" stroke-miterlimit="10" stroke-width="1"/>
              </g>
              <g id="Group_165" data-name="Group 165" transform="translate(28.186 8.411)">
                <rect id="Rectangle_752" data-name="Rectangle 752" width="1.282" height="7.33" transform="translate(1.276 7.423) rotate(-174.148)" fill="#757575" stroke="#263238" stroke-linecap="round" stroke-linejoin="round" stroke-width="1"/>
                <rect id="Rectangle_753" data-name="Rectangle 753" width="1.282" height="3.45" transform="translate(1.276 7.423) rotate(-174.15)" fill="#92e3a9" stroke="#263238" stroke-miterlimit="10" stroke-width="1"/>
              </g>
              <g id="Group_166" data-name="Group 166" transform="translate(25.788 3.499)">
                <rect id="Rectangle_754" data-name="Rectangle 754" width="1.282" height="7.33" transform="translate(1.276 7.423) rotate(-174.15)" fill="#757575" stroke="#263238" stroke-linecap="round" stroke-linejoin="round" stroke-width="1"/>
                <rect id="Rectangle_755" data-name="Rectangle 755" width="1.282" height="3.45" transform="translate(1.36 6.599) rotate(-174.15)" fill="#92e3a9" stroke="#263238" stroke-miterlimit="10" stroke-width="1"/>
              </g>
              <g id="Group_167" data-name="Group 167" transform="translate(23.245)">
                <rect id="Rectangle_756" data-name="Rectangle 756" width="1.282" height="7.33" transform="matrix(-0.995, -0.102, 0.102, -0.995, 1.276, 7.423)" fill="#757575" stroke="#263238" stroke-linecap="round" stroke-linejoin="round" stroke-width="1"/>
                <path id="Path_664" data-name="Path 664" d="M0,0H1.282V3.45H0Z" transform="translate(1.36 6.599) rotate(-174.15)" fill="#1b9eff" stroke="#263238" stroke-width="1"/>
              </g>
              <g id="Group_168" data-name="Group 168" transform="translate(19.979 3.565)">
                <rect id="Rectangle_758" data-name="Rectangle 758" width="1.282" height="7.33" transform="translate(1.276 7.423) rotate(-174.15)" fill="#757575" stroke="#263238" stroke-linecap="round" stroke-linejoin="round" stroke-width="1"/>
                <rect id="Rectangle_759" data-name="Rectangle 759" width="1.282" height="3.45" transform="translate(1.557 4.676) rotate(-174.148)" fill="#1b9eff" stroke="#263238" stroke-miterlimit="10" stroke-width="1"/>
              </g>
              <g id="Group_169" data-name="Group 169" transform="translate(16.685 7.393)">
                <rect id="Rectangle_760" data-name="Rectangle 760" width="1.282" height="7.33" transform="translate(1.276 7.423) rotate(-174.15)" fill="#757575" stroke="#263238" stroke-linecap="round" stroke-linejoin="round" stroke-width="1"/>
                <path id="Path_665" data-name="Path 665" d="M0,0H1.282V3.45H0Z" transform="translate(1.613 4.127) rotate(-174.15)" fill="#1b9eff" stroke="#263238" stroke-width="1"/>
              </g>
              <g id="Group_170" data-name="Group 170" transform="translate(14.237 2.977)">
                <rect id="Rectangle_762" data-name="Rectangle 762" width="1.282" height="7.33" transform="translate(1.276 7.423) rotate(-174.15)" fill="#757575" stroke="#263238" stroke-linecap="round" stroke-linejoin="round" stroke-width="1"/>
                <path id="Path_666" data-name="Path 666" d="M0,0H1.282V3.45H0Z" transform="translate(1.388 6.324) rotate(-174.148)" fill="#1b9eff" stroke="#263238" stroke-width="1"/>
              </g>
              <g id="Group_171" data-name="Group 171" transform="translate(11.49 1.469)">
                <rect id="Rectangle_764" data-name="Rectangle 764" width="1.282" height="7.33" transform="translate(1.276 7.423) rotate(-174.148)" fill="#757575" stroke="#263238" stroke-linecap="round" stroke-linejoin="round" stroke-width="1"/>
                <path id="Path_667" data-name="Path 667" d="M0,0H1.282V3.45H0Z" transform="translate(1.585 4.402) rotate(-174.15)" fill="#1b9eff" stroke="#263238" stroke-width="1"/>
              </g>
              <g id="Group_172" data-name="Group 172" transform="translate(8.385 3.45)">
                <rect id="Rectangle_766" data-name="Rectangle 766" width="1.282" height="7.33" transform="translate(1.276 7.423) rotate(-174.148)" fill="#757575" stroke="#263238" stroke-linecap="round" stroke-linejoin="round" stroke-width="1"/>
                <rect id="Rectangle_767" data-name="Rectangle 767" width="1.282" height="3.45" transform="translate(1.276 7.423) rotate(-174.15)" fill="#92e3a9" stroke="#263238" stroke-miterlimit="10" stroke-width="1"/>
              </g>
              <g id="Group_173" data-name="Group 173" transform="translate(5.747 0.881)">
                <rect id="Rectangle_768" data-name="Rectangle 768" width="1.282" height="7.33" transform="translate(1.276 7.423) rotate(-174.15)" fill="#757575" stroke="#263238" stroke-linecap="round" stroke-linejoin="round" stroke-width="1"/>
                <rect id="Rectangle_769" data-name="Rectangle 769" width="1.282" height="3.45" transform="translate(1.332 6.873) rotate(-174.148)" fill="#92e3a9" stroke="#263238" stroke-miterlimit="10" stroke-width="1"/>
              </g>
              <g id="Group_174" data-name="Group 174" transform="translate(2.775 1.57)">
                <rect id="Rectangle_770" data-name="Rectangle 770" width="1.282" height="7.33" transform="translate(1.276 7.423) rotate(-174.15)" fill="#757575" stroke="#263238" stroke-linecap="round" stroke-linejoin="round" stroke-width="1"/>
                <rect id="Rectangle_771" data-name="Rectangle 771" width="1.282" height="3.45" transform="translate(1.304 7.148) rotate(-174.15)" fill="#92e3a9" stroke="#263238" stroke-miterlimit="10" stroke-width="1"/>
              </g>
              <g id="Group_175" data-name="Group 175" transform="translate(0 0.34)">
                <rect id="Rectangle_772" data-name="Rectangle 772" width="1.282" height="7.33" transform="translate(1.276 7.423) rotate(-174.15)" fill="#757575" stroke="#263238" stroke-linecap="round" stroke-linejoin="round" stroke-width="1"/>
                <rect id="Rectangle_773" data-name="Rectangle 773" width="1.282" height="3.45" transform="translate(1.641 3.852) rotate(-174.15)" fill="#92e3a9" stroke="#263238" stroke-miterlimit="10" stroke-width="1"/>
              </g>
            </g>
            <g id="Group_177" data-name="Group 177" transform="translate(8.166 97.418)">
              <path id="Path_476" data-name="Path 476" d="M349.22,272.138l-58.231-5.967a.613.613,0,1,0-.125,1.219l58.231,5.967a.613.613,0,0,0,.125-1.22Z" transform="translate(-279.935 -266.168)" fill="#263238"/>
              <path id="Path_477" data-name="Path 477" d="M339.561,279.689,271.85,272.75a.613.613,0,1,0-.125,1.219l67.711,6.939a.613.613,0,0,0,.125-1.219Z" transform="translate(-270.725 -269.333)" fill="#263238"/>
              <path id="Path_478" data-name="Path 478" d="M310.254,285.225l-39.27-4.024a.613.613,0,0,0-.125,1.22l39.27,4.024a.613.613,0,0,0,.125-1.22Z" transform="translate(-270.309 -273.4)" fill="#263238"/>
            </g>
            <path id="Path_479" data-name="Path 479" d="M338.443,192.66c-2.008-.161-2.7,3.04-2.7,3.04s-3.175-4.161-2.672-13.946c0,0-1.551-4.337-5.707-1.717s-8.462,11.855-7.435,21.915l-8.078-26.818c-2.791.591-8.462,4.343-6.968,22.455l-8.815-9.318a3.322,3.322,0,0,0-3.735,1.344c-1.349,2.117-.706,17.235.41,22.89s-1.728,17.017-1.728,17.017-3.039-12.866-8.54-16.122l-20.945-43.2-6.957,67.914,7.85.8,12.606-6.136c-.07,2.838-.139,5.447-.346,7.392l63.006,6.454,4.509-44.006C340.663,197.137,339.2,192.717,338.443,192.66Z" transform="translate(-254.57 -122.572)" fill="rgba(0,0,0,0.7)" opacity="0.2"/>
          </g>
          <path id="Path_481" data-name="Path 481" d="M349.525,86.914l-7.331,71.535-4.509,44.006L274.68,196l-12.26-1.256-7.85-.8,6.957-67.914L266.41,78.4Z" transform="translate(-254.57 -78.4)" fill="none" stroke="#263238" stroke-linecap="round" stroke-linejoin="round" stroke-width="1"/>
        </g>
        <g id="Group_190" data-name="Group 190" transform="translate(14.35 52.551)">
          <g id="Group_183" data-name="Group 183" transform="translate(5.548)">
            <g id="Group_180" data-name="Group 180" transform="translate(0.004)">
              <path id="Path_482" data-name="Path 482" d="M366.945,319.813l-36.836,6.267s-6.413-34.061-10.236-39.425-3.123-7.575-4.981-11.191c-1.121-2.184-6.74-6.257-11.15-10.278h-.005c-.384-.348-.758-.7-1.115-1.043-.156-.14-.3-.291-.446-.431-.586-.581-1.131-1.147-1.614-1.7q-.265-.3-.5-.591a8.4,8.4,0,0,1-1.785-3.16.8.8,0,0,1-.031-.161,1.34,1.34,0,0,1-.031-.192c-.1-.8-.2-1.723-.306-2.719-.021-.2-.041-.4-.067-.612-.01-.083-.021-.161-.031-.249-.088-.83-.187-1.712-.3-2.62-.114-.949-.239-1.935-.384-2.926-.047-.342-.093-.685-.15-1.032,0-.005,0-.01-.005-.01-.057-.384-.119-.768-.182-1.157l-.171-1c-.01-.057-.026-.109-.031-.156-.073-.389-.145-.768-.218-1.152a.523.523,0,0,1-.026-.13c-.073-.337-.14-.669-.218-1.007-.161-.752-.342-1.489-.54-2.2a27.357,27.357,0,0,0-1.375-3.943c-2.656-5.93.8-3.787-1.281-19.046,0,0,1.531-3.538,5.894-.711a11.686,11.686,0,0,1,.975.711h.005a12.265,12.265,0,0,1,2.319,2.48,14.329,14.329,0,0,1,2,4.13,17.957,17.957,0,0,1,.591,7.419s3.279,11.238,5.007,13.8,8.872-12.135,8.41-13.847a23.14,23.14,0,0,1-.368-2.324c-.031-.254-.062-.524-.1-.809s-.067-.581-.1-.887c-.021-.145-.036-.3-.057-.451-.005-.062-.01-.125-.021-.182-.062-.586-.135-1.209-.2-1.852-.016-.182-.036-.353-.057-.529-.031-.306-.062-.623-.093-.934a1.315,1.315,0,0,1-.016-.156c-.021-.176-.042-.358-.057-.545-.042-.363-.078-.732-.114-1.1-.036-.316-.062-.633-.093-.949-.062-.6-.119-1.193-.176-1.769-.042-.431-.083-.856-.119-1.271-.01-.093-.021-.187-.026-.275-.218-2.283-.389-4.161-.451-4.96,0,0-5.193-7.689-5.728-11.31s-.488-7.435,1.686-8.986c5.147-3.663,3.642,2.241,5.946,4.685s5.837,6.449,7.839,7.7c1.847,1.173,3.5,5.728,3.73,6.392-.265-1-2.905-10.791-2.962-12.763-.067-2.08-1.655-13.054,1.043-16.991s6.283-.882,6.615-.1.431,11.409,1.38,14.371,4.924,15.29,4.924,15.29.166-12,1.064-17.365,3.227-9.567,5.51-9.806,4.394,2.278,4.394,2.278-.9,8.561-.643,10.537-.374,9.116.711,12.955c0,0-.125-10.226,1.463-11.533s2.952-1.935,3.844-1.053,1.084,6.937,1.992,10.579.794,8.592,1.39,14.273,2.947,13.567,2.48,18.076-1.9,15.689-3.061,22.252a139.634,139.634,0,0,1-4.109,15.554,32.244,32.244,0,0,1,1.084,9.079C356.413,291.32,366.945,319.813,366.945,319.813Z" transform="translate(-292.93 -179.69)" fill="#fff"/>
            </g>
            <g id="Group_181" data-name="Group 181" transform="translate(2.659 11.422)">
              <path id="Path_483" data-name="Path 483" d="M366.658,208.376c.706,2.191,3.064,9.516,4.238,13.173,0,0-5.15,3.785-5.022,7.3s-.943,10.617-3.255,10.413-2.1-14.971-2.858-17.452c.47,1.065.774,1.933.835,2.1-.171-.636-2.922-10.8-2.981-12.815-.013-.474-.109-1.415-.215-2.634l0-.024s5.118-4.9,8.876-1.9v0A12.6,12.6,0,0,0,366.658,208.376Z" transform="translate(-326.607 -203.566)" fill="#1b9eff" opacity="0.4"/>
              <path id="Path_484" data-name="Path 484" d="M395.106,210.739c-2.4,2.273-6.014,6.291-6.472,10.168,0,0,1.336,10.818.765,15.539l-4.674-14.638s.168-12,1.066-17.364c.023-.147.051-.3.08-.444a21.338,21.338,0,0,1,9.383-2.294,41.957,41.957,0,0,0-.2,5.745A31.345,31.345,0,0,1,395.106,210.739Z" transform="translate(-339.755 -201.706)" fill="#1b9eff" opacity="0.4"/>
              <path id="Path_485" data-name="Path 485" d="M408.427,215.211l0,0-.015.013c-.055.039-.2.15-.4.324a6.857,6.857,0,0,1,.409-.677Z" transform="translate(-350.956 -208.043)" fill="#92e3a9" opacity="0.4"/>
              <path id="Path_486" data-name="Path 486" d="M408.26,244.317s-3.081-11.561-3.136-20.869c-.022-3.443.376-6.584,1.489-8.707l.005,0a6.86,6.86,0,0,1,.409-.677l.012.335a8.493,8.493,0,0,1,1.836-1.215c-.865,1.35-1.863,3.991-.708,8.282C409.975,228.185,408.4,236.4,408.26,244.317Z" transform="translate(-349.57 -207.227)" fill="#1b9eff" opacity="0.4"/>
              <path id="Path_487" data-name="Path 487" d="M314.229,285.656s.828,11.017-8.026,14.961H306.2q-.576-.522-1.115-1.042c-.154-.143-.3-.291-.446-.433-.585-.58-1.133-1.149-1.614-1.7-.178-.2-.343-.4-.5-.589a8.407,8.407,0,0,1-1.783-3.16,1.045,1.045,0,0,1-.033-.16,1.622,1.622,0,0,1-.031-.193c-.1-.8-.2-1.721-.306-2.721-.021-.2-.042-.4-.067-.61-.009-.082-.019-.163-.027-.25-.092-.832-.191-1.711-.3-2.621-.114-.947-.239-1.934-.384-2.926-.05-.342-.1-.688-.151-1.031,0,0,0-.009,0-.01-.058-.385-.12-.771-.182-1.157-.056-.333-.117-.666-.173-1-.011-.053-.022-.106-.029-.155-.072-.386-.144-.768-.22-1.15a1.154,1.154,0,0,1-.025-.13c-.07-.338-.14-.672-.215-1.006q-.253-1.126-.543-2.206c3.5-3.37,11.587-1.256,7.674-9.063,0,0,1.971-6.682-3.462-13.928h0c3.717,3,5.618,8.26,4.916,14.032,0,0,3.278,11.234,5.007,13.793s8.87-12.135,8.407-13.849c-.089-.34-.219-1.178-.364-2.323-.032-.255-.063-.525-.1-.808s-.07-.582-.1-.889c-.02-.145-.034-.3-.053-.448-.006-.062-.011-.125-.022-.183-.064-.591-.131-1.211-.2-1.855-.018-.178-.036-.351-.058-.529-.029-.308-.062-.62-.1-.932-.007-.048-.008-.1-.015-.154-.018-.178-.04-.361-.057-.548-.04-.365-.075-.73-.114-1.1-.033-.318-.061-.634-.094-.952-.059-.6-.118-1.191-.173-1.767-.04-.432-.081-.86-.122-1.268-.009-.1-.017-.187-.026-.279.144.682,2.775,13.2,4.277,16.122C324.812,272.442,318.271,288.253,314.229,285.656Z" transform="translate(-298.047 -226.541)" fill="#1b9eff" opacity="0.4"/>
              <path id="Path_488" data-name="Path 488" d="M405.878,310.682a140.07,140.07,0,0,1-4.1,15.555,32.193,32.193,0,0,1,1.08,9.08c-.071,1.151.644,4.059,1.715,7.691-.309-.8-3.617-9.369-3.562-12.359.063-3.137-.829-4-2.578-7.859s-4.416-3.432-4.416-3.432-1.029,9.619-3.444,3.3-2.88-13.673,3.207-39.2c0,0,.92,3.2.151,12.713s1.5,12.39,1.5,12.39a88.6,88.6,0,0,0,8.089-18.862s-.786,11.1-1.487,16.155,2.493-5.857,4.726-12.6c2.1-6.326,2.173-8.732,1.375-13.235a32.761,32.761,0,0,1,.811,8.409C408.476,292.93,407.035,304.118,405.878,310.682Z" transform="translate(-341.763 -239.389)" fill="#1b9eff" opacity="0.4"/>
              <path id="Path_489" data-name="Path 489" d="M341.4,380.356c1.8,2.855,6.192,6.626,8.809,17.061s.973,21.855.973,21.855Z" transform="translate(-318.907 -287.669)" fill="#1b9eff" opacity="0.4"/>
            </g>
            <path id="Path_490" data-name="Path 490" d="M304.126,258.364s-9.188,4.654-9.915,12.436c-2.656-5.93.8-3.787-1.281-19.046,0,0,1.531-3.538,5.894-.711a11.686,11.686,0,0,1,.975.711h.005a12.265,12.265,0,0,1,2.319,2.48Z" transform="translate(-292.926 -213.497)" fill="rgba(0,0,0,0.7)" opacity="0.2"/>
            <g id="Group_182" data-name="Group 182" transform="translate(0 0.002)">
              <path id="Path_491" data-name="Path 491" d="M330.1,326.084s-6.409-34.062-10.235-39.427-3.124-7.575-4.979-11.19-16.047-12.418-16.676-17.556-1.347-14.982-4.005-20.916.8-3.788-1.286-19.047c0,0,1.539-3.534,5.9-.708s6.656,8.481,5.894,14.742c0,0,3.277,11.231,5.009,13.793s8.866-12.136,8.4-13.851-1.831-16.327-2.046-18.991c0,0-5.194-7.692-5.727-11.313s-.488-7.435,1.685-8.982c5.148-3.665,3.64,2.239,5.945,4.688s5.837,6.443,7.838,7.7,3.758,6.468,3.758,6.468-2.928-10.761-2.989-12.842-1.654-13.054,1.042-16.988,6.287-.884,6.617-.107.433,11.407,1.385,14.369,4.916,15.293,4.916,15.293.169-11.994,1.065-17.363,3.231-9.57,5.512-9.808,4.393,2.278,4.393,2.278-.9,8.56-.646,10.535-.37,9.114.716,12.958c0,0-.128-10.228,1.463-11.536s2.952-1.933,3.842-1.052,1.085,6.937,1.995,10.581.795,8.592,1.39,14.272,2.945,13.568,2.48,18.072-1.907,15.691-3.066,22.258a140.679,140.679,0,0,1-4.1,15.554,32.179,32.179,0,0,1,1.08,9.077c-.263,4.28,10.265,32.772,10.265,32.772" transform="translate(-292.922 -179.693)" fill="none" stroke="#263238" stroke-linecap="round" stroke-linejoin="round" stroke-width="1"/>
              <path id="Path_492" data-name="Path 492" d="M384.723,240.451c1.073,2.521,3.725,13.165,4.673,14.64a5.022,5.022,0,0,0,2.023,1.918" transform="translate(-337.095 -208.929)" fill="none" stroke="#263238" stroke-linecap="round" stroke-linejoin="round" stroke-width="1"/>
              <path id="Path_493" data-name="Path 493" d="M405.986,237.752s-.228,2.181.95,9.135,1.752,9.917,2.413,11.468" transform="translate(-347.317 -207.63)" fill="none" stroke="#263238" stroke-linecap="round" stroke-linejoin="round" stroke-width="1"/>
              <path id="Path_494" data-name="Path 494" d="M363.577,240.983c1.44,4.238,2.253,10.993,3.072,13.026s1.549,2.456,1.549,2.456" transform="translate(-326.92 -209.185)" fill="none" stroke="#263238" stroke-linecap="round" stroke-linejoin="round" stroke-width="1"/>
              <path id="Path_495" data-name="Path 495" d="M368.07,260.585a6.413,6.413,0,0,1,1.99,2.514" transform="translate(-329.082 -218.617)" fill="none" stroke="#263238" stroke-linecap="round" stroke-linejoin="round" stroke-width="1"/>
              <path id="Path_496" data-name="Path 496" d="M325.3,307.061s.789,5.62,4.31,5.175" transform="translate(-308.504 -240.98)" fill="none" stroke="#263238" stroke-linecap="round" stroke-linejoin="round" stroke-width="1"/>
              <path id="Path_497" data-name="Path 497" d="M340.963,280.364s.912,6.679-.584,9.515" transform="translate(-315.757 -228.134)" fill="none" stroke="#263238" stroke-linecap="round" stroke-linejoin="round" stroke-width="1"/>
              <path id="Path_498" data-name="Path 498" d="M392.443,280.477s2.366,1.449.784,5.7-4.334,21.39-4.334,21.39" transform="translate(-339.101 -228.188)" fill="none" stroke="#263238" stroke-linecap="round" stroke-linejoin="round" stroke-width="1"/>
              <path id="Path_499" data-name="Path 499" d="M411.195,289.121c.992,3.838,1.08,3.938-.531,8.655s-4.209,16.267-4.209,16.267" transform="translate(-347.552 -232.348)" fill="none" stroke="#263238" stroke-linecap="round" stroke-linejoin="round" stroke-width="1"/>
              <path id="Path_500" data-name="Path 500" d="M413,363.828s-1.547-3.124-.269-5.69" transform="translate(-350.328 -265.557)" fill="none" stroke="#263238" stroke-linecap="round" stroke-linejoin="round" stroke-width="1"/>
              <path id="Path_501" data-name="Path 501" d="M344.86,385.859a42.727,42.727,0,0,1,5.613,11.644" transform="translate(-317.913 -278.896)" fill="none" stroke="#263238" stroke-linecap="round" stroke-linejoin="round" stroke-width="1"/>
            </g>
          </g>
          <g id="Group_188" data-name="Group 188" transform="translate(0 9.475)">
            <path id="Path_502" data-name="Path 502" d="M400.341,199.134l1.056-1.045.48-.136-.032.517-.973,1.239Z" transform="translate(-339.061 -197.953)" fill="#757575" stroke="#263238" stroke-linecap="round" stroke-linejoin="round" stroke-width="1"/>
            <g id="Group_185" data-name="Group 185" transform="translate(8.98 0.835)">
              <path id="Path_503" data-name="Path 503" d="M352.689,200.488l-1.719,3.9L304.69,266.1l-5.154-3.286,7-8.779L348.1,201.891l3.667-2.329A1.3,1.3,0,0,1,352.689,200.488Z" transform="translate(-299.536 -199.562)" fill="#bf3efe"/>
              <g id="Group_184" data-name="Group 184" clip-path="url(#clip-path-4)">
                <path id="Path_504" data-name="Path 504" d="M352.689,200.488l-1.719,3.9L304.69,266.1l-5.154-3.286,7-8.779c3.214-.333,3.752,1.567,3.752,1.567l39.871-52.04a2.664,2.664,0,0,0-2.056-1.668l3.667-2.329A1.3,1.3,0,0,1,352.689,200.488Z" transform="translate(-299.536 -199.562)" fill="rgba(0,0,0,0.7)" opacity="0.3"/>
              </g>
              <path id="Path_506" data-name="Path 506" d="M352.689,200.488l-1.719,3.9L304.69,266.1l-5.154-3.286,7-8.779L348.1,201.891l3.667-2.329A1.3,1.3,0,0,1,352.689,200.488Z" transform="translate(-299.536 -199.562)" fill="none" stroke="#263238" stroke-linecap="round" stroke-linejoin="round" stroke-width="1"/>
            </g>
            <g id="Group_187" data-name="Group 187" transform="translate(0 48.467)">
              <path id="Path_507" data-name="Path 507" d="M311.457,292a182.734,182.734,0,0,1-10.135,17.505l-3.551.918s-8.144,8.094-13.114,12.133a11.144,11.144,0,0,1-2.429-2.039s7.057-13.55,14.863-22.127a9.961,9.961,0,0,1,2.561,1.36,12.579,12.579,0,0,1,2.674,2.566l8.7-10.948Z" transform="translate(-282.228 -291.371)" fill="#872bb4"/>
              <g id="Group_186" data-name="Group 186" clip-path="url(#clip-path-5)">
                <path id="Path_508" data-name="Path 508" d="M313.71,292a182.738,182.738,0,0,1-10.135,17.505l-3.551.918s-8.144,8.094-13.114,12.133l.135-2.2c5.389-8.234,12.237-17.214,14.861-20.61a12.579,12.579,0,0,1,2.673,2.566l-4.835,6.454,2.77-.5,10.767-16.9Z" transform="translate(-284.481 -291.371)" fill="rgba(0,0,0,0.7)" opacity="0.3"/>
              </g>
              <path id="Path_510" data-name="Path 510" d="M311.457,292a182.734,182.734,0,0,1-10.135,17.505l-3.551.918s-8.144,8.094-13.114,12.133a11.144,11.144,0,0,1-2.429-2.039s7.057-13.55,14.863-22.127a9.961,9.961,0,0,1,2.561,1.36,12.579,12.579,0,0,1,2.674,2.566l8.7-10.948Z" transform="translate(-282.228 -291.371)" fill="none" stroke="#263238" stroke-linecap="round" stroke-linejoin="round" stroke-width="1"/>
            </g>
          </g>
          <g id="Group_189" data-name="Group 189" transform="translate(22.696 11.777)">
            <path id="Path_511" data-name="Path 511" d="M350.1,237.893l-14.456,14.018-2.31,2.241c1.581-4.066.817-10.353.715-11.118v-.009c-.007-.044-.01-.067-.01-.067a.67.67,0,0,0-.012-.111c-.089-.34-.219-1.178-.364-2.323-.032-.255-.063-.525-.1-.808s-.07-.582-.1-.889c-.02-.145-.034-.3-.053-.448-.006-.062-.011-.125-.022-.183-.064-.586-.136-1.211-.2-1.855-.018-.178-.036-.351-.058-.529-.029-.308-.062-.62-.1-.932-.007-.048-.008-.1-.015-.154-.018-.178-.04-.361-.057-.548-.04-.365-.075-.73-.114-1.1-.033-.318-.061-.634-.094-.952-.059-.6-.118-1.191-.173-1.767q-.068-.649-.122-1.268c-.009-.1-.017-.187-.026-.279-.218-2.281-.39-4.158-.45-4.959,0,0-5.19-7.689-5.727-11.312s-.489-7.435,1.687-8.982c5.147-3.665,3.639,2.238,5.943,4.685s5.839,6.445,7.839,7.7,3.756,6.47,3.756,6.47c1.44,4.237,2.252,10.99,3.072,13.026S350.1,237.893,350.1,237.893Z" transform="translate(-325.974 -202.39)" fill="#fff"/>
            <path id="Path_512" data-name="Path 512" d="M368.07,260.585a6.413,6.413,0,0,1,1.99,2.514" transform="translate(-346.23 -230.392)" fill="none" stroke="#263238" stroke-linecap="round" stroke-linejoin="round" stroke-width="1"/>
            <path id="Path_513" data-name="Path 513" d="M333.887,208.245c2.294,2.446,5.817,6.42,7.821,7.688-.282-.142-3.967-1.938-6.028.06-2.143,2.084-3.7,7.861-3.7,7.861s-5.19-7.689-5.727-11.312-.489-7.435,1.687-8.982C333.091,199.894,331.584,205.8,333.887,208.245Z" transform="translate(-325.974 -202.39)" fill="#1b9eff" opacity="0.4"/>
            <path id="Path_514" data-name="Path 514" d="M341.64,276.416l-2.31,2.241c1.581-4.066.817-10.353.715-11.118v-.009a.75.75,0,0,0-.022-.178c-.089-.34-.219-1.178-.364-2.323-.032-.255-.063-.525-.1-.808s-.07-.582-.1-.889c-.02-.145-.034-.3-.053-.448-.006-.062-.011-.125-.022-.183-.064-.591-.131-1.211-.2-1.855-.018-.178-.036-.351-.058-.529-.029-.308-.062-.62-.1-.932-.007-.048-.008-.1-.015-.154-.018-.178-.04-.361-.057-.548-.04-.365-.075-.73-.114-1.1-.033-.318-.061-.634-.094-.952-.059-.6-.118-1.191-.173-1.767-.04-.432-.081-.86-.122-1.268-.009-.1-.017-.187-.026-.279.144.682,2.775,13.2,4.277,16.122C343.27,270.544,342.742,273.39,341.64,276.416Z" transform="translate(-331.966 -226.895)" fill="#1b9eff" opacity="0.4"/>
            <path id="Path_515" data-name="Path 515" d="M350.106,237.895s-.729-.423-1.549-2.456-1.633-8.788-3.072-13.026c0,0-1.758-5.212-3.758-6.468s-5.533-5.25-7.838-7.7-.8-8.353-5.945-4.688c-2.173,1.547-2.218,5.361-1.685,8.982s5.727,11.313,5.727,11.313c.214,2.664,1.584,17.276,2.046,18.991" transform="translate(-325.975 -202.39)" fill="none" stroke="#263238" stroke-linecap="round" stroke-linejoin="round" stroke-width="1"/>
            <path id="Path_516" data-name="Path 516" d="M340.963,280.364s.912,6.679-.584,9.515" transform="translate(-332.905 -239.909)" fill="none" stroke="#263238" stroke-linecap="round" stroke-linejoin="round" stroke-width="1"/>
          </g>
        </g>
      </g>
    </g>
    <g id="Left_hand" data-name="Left hand" transform="translate(30.647 59.053)">
      <g id="Group_220" data-name="Group 220" transform="translate(0)">
        <path id="Path_517" data-name="Path 517" d="M131.3,287.7s3.284,15.249-3.831,26.343-12.589,14.053-15.052,17.363-12.1,21.818-12.1,21.818L89.058,319.879l11.258-41.251Z" transform="translate(-61.442 -168.987)" fill="rgba(0,0,0,0.7)" opacity="0.2"/>
        <g id="Group_217" data-name="Group 217" transform="translate(14.148)">
          <path id="Path_518" data-name="Path 518" d="M185.163,174.354,115.35,203.734l-7.2,3.03L94.592,174.54,63.1,99.711,140.109,67.3Z" transform="translate(-63.1 -67.3)" fill="#fff"/>
          <g id="Group_216" data-name="Group 216" clip-path="url(#clip-path-6)">
            <path id="Path_519" data-name="Path 519" d="M141.654,94.056l-33.242,13.99a1.226,1.226,0,1,0,.951,2.259L142.6,96.316a1.226,1.226,0,1,0-.951-2.26Z" transform="translate(-84.542 -80.128)" fill="#263238"/>
            <path id="Path_520" data-name="Path 520" d="M145.166,109.791l-16.621,7a.613.613,0,1,0,.475,1.129l16.621-6.995a.613.613,0,0,0-.475-1.13Z" transform="translate(-94.41 -87.723)" fill="#263238"/>
            <g id="Group_202" data-name="Group 202" transform="translate(27.736 59.446)">
              <g id="Group_192" data-name="Group 192" transform="translate(0 5.233)">
                <path id="Path_521" data-name="Path 521" d="M175.131,191.966s.7,5.507-1.349,6.37c-1.872.788-4.338-2.167-6.49-1.261s-.454,8.713-2.531,9.586-4.578-2.334-6.369-1.58-.708,4.77-2.554,5.547c-1.523.641-3.7-2.551-5.448-3.251a1.333,1.333,0,0,0-1.038-.052c-1.827.769-.92,9.155-2.5,9.819a2.959,2.959,0,0,1-1.4.229,10.328,10.328,0,0,0-1.778-.168,2.3,2.3,0,0,0-.665.17c-1.346.567-1.162,4.98-2.393,5.5s-2.445-.124-3.758.429-1.292,2.847-3.25,3.671l.828,1.968,47.788-20.111" transform="translate(-124.765 -191.966)" fill="#bfbfbf" stroke="#263238" stroke-miterlimit="10" stroke-width="1"/>
                <path id="Path_522" data-name="Path 522" d="M116.56,218.921l9.675,22.99,50.034-21.057" transform="translate(-116.56 -204.936)" fill="none" stroke="#263238" stroke-linecap="round" stroke-linejoin="round" stroke-width="1"/>
                <path id="Path_523" data-name="Path 523" d="M178.976,207.953a8.147,8.147,0,0,0-.59-.634c-.618-.6-1.6-1.355-2.345-1.041-.729.307-.794,1.519-.779,2.813.017,1.575.154,3.271-.638,3.6-.673.283-1.279-.143-1.9-.608-.709-.53-1.439-1.11-2.312-.742-1.476.621-1.026,2.542-1.546,4.187a3.182,3.182,0,0,1-1.941,2.1c-1.274.536-2.567.01-3.784-.821-2.056-1.4-3.9-3.671-5.1-3.168-1.9.8.2,5.95-1.85,6.812-1.143.481-3.509-3.124-5.807-6.223-1.816-2.453-3.592-4.588-4.683-4.13-2.467,1.039,1.6,13.35-.2,14.1-.018.007-.037.015-.055.021a1.893,1.893,0,0,1-1.778-.168c-.647-.366-1.173-.886-1.887-.585-1.321.556-.546,5.382-2,6s-2.33-.274-3.968.416c-1.387.584-2.208,3.941-2.208,3.941l.828,1.968,47.788-20.111" transform="translate(-124.765 -198.817)" fill="#757575" stroke="#263238" stroke-linecap="round" stroke-linejoin="round" stroke-width="1"/>
              </g>
              <path id="Path_524" data-name="Path 524" d="M185.792,241.166l-16.621,6.995a.613.613,0,1,0,.475,1.13l16.621-6.995a.613.613,0,1,0-.475-1.13Z" transform="translate(-141.695 -210.384)" fill="#263238"/>
              <g id="Group_201" data-name="Group 201" transform="translate(55.358)">
                <g id="Group_196" data-name="Group 196">
                  <rect id="Rectangle_774" data-name="Rectangle 774" width="2.392" height="2.392" rx="0.626" transform="matrix(0.922, -0.388, 0.388, 0.922, 0, 4.038)" fill="#bfbfbf" stroke="#263238" stroke-miterlimit="10" stroke-width="1"/>
                  <g id="Group_195" data-name="Group 195" transform="translate(3.565)">
                    <g id="Group_193" data-name="Group 193">
                      <path id="Path_525" data-name="Path 525" d="M237.154,182.408l-6.642,2.8a.275.275,0,1,1-.213-.507l6.642-2.8a.275.275,0,0,1,.213.507Z" transform="translate(-230.13 -181.88)" fill="#263238"/>
                    </g>
                    <g id="Group_194" data-name="Group 194" transform="translate(0.464 1.955)">
                      <path id="Path_526" data-name="Path 526" d="M236.022,186.177l-4.616,1.942a.275.275,0,1,1-.213-.507l4.616-1.942a.275.275,0,0,1,.213.507Z" transform="translate(-231.025 -185.648)" fill="#263238"/>
                    </g>
                  </g>
                </g>
                <g id="Group_200" data-name="Group 200" transform="translate(2.078 4.938)">
                  <rect id="Rectangle_775" data-name="Rectangle 775" width="2.392" height="2.392" rx="0.626" transform="matrix(0.922, -0.388, 0.388, 0.922, 0, 4.038)" fill="#757575" stroke="#263238" stroke-linecap="round" stroke-linejoin="round" stroke-width="1"/>
                  <g id="Group_199" data-name="Group 199" transform="translate(3.565)">
                    <g id="Group_197" data-name="Group 197">
                      <path id="Path_527" data-name="Path 527" d="M241.16,191.926l-6.642,2.8a.275.275,0,0,1-.213-.507l6.642-2.8a.275.275,0,0,1,.213.507Z" transform="translate(-234.136 -191.398)" fill="#263238"/>
                    </g>
                    <g id="Group_198" data-name="Group 198" transform="translate(0.464 1.955)">
                      <path id="Path_528" data-name="Path 528" d="M240.027,195.695l-4.615,1.942a.275.275,0,1,1-.213-.507l4.615-1.942a.275.275,0,1,1,.213.507Z" transform="translate(-235.03 -195.166)" fill="#263238"/>
                    </g>
                  </g>
                </g>
              </g>
            </g>
            <g id="Group_203" data-name="Group 203" transform="translate(43.094 85.223)">
              <path id="Path_529" data-name="Path 529" d="M214.124,231.611l-53.952,22.706a.613.613,0,1,0,.475,1.13L214.6,232.741a.613.613,0,1,0-.476-1.13Z" transform="translate(-152.722 -231.563)" fill="#263238"/>
              <path id="Path_530" data-name="Path 530" d="M209.273,239.441l-62.737,26.4a.613.613,0,0,0,.476,1.13l62.736-26.4a.613.613,0,1,0-.475-1.13Z" transform="translate(-146.161 -235.331)" fill="#263238"/>
              <path id="Path_531" data-name="Path 531" d="M212.568,247.272l-62.736,26.4a.613.613,0,0,0,.475,1.13l62.737-26.4a.613.613,0,0,0-.476-1.129Z" transform="translate(-147.747 -239.099)" fill="#263238"/>
              <path id="Path_532" data-name="Path 532" d="M215.864,255.1l-62.737,26.4a.613.613,0,1,0,.476,1.129l62.736-26.4a.613.613,0,1,0-.475-1.13Z" transform="translate(-149.333 -242.867)" fill="#263238"/>
              <path id="Path_533" data-name="Path 533" d="M192.807,284.308l-36.384,15.313a.613.613,0,0,0,.475,1.13l36.385-15.312a.613.613,0,1,0-.476-1.13Z" transform="translate(-150.918 -256.92)" fill="#263238"/>
            </g>
            <g id="Group_215" data-name="Group 215" transform="translate(14.578 26.186)">
              <g id="Group_205" data-name="Group 205" transform="translate(0 7.229)">
                <g id="Group_204" data-name="Group 204" transform="translate(8.847)">
                  <path id="Path_534" data-name="Path 534" d="M149.77,131.7s.7,5.507-1.349,6.37c-1.872.788-4.338-2.167-6.49-1.261s-.454,8.713-2.531,9.587-4.578-2.334-6.369-1.58-.708,4.77-2.554,5.547c-1.524.641-3.7-2.551-5.448-3.251a1.333,1.333,0,0,0-1.038-.052c-1.827.769-.92,9.155-2.5,9.819a2.946,2.946,0,0,1-1.4.229,10.432,10.432,0,0,0-1.778-.168,2.3,2.3,0,0,0-.665.17c-1.346.567-1.162,4.98-2.393,5.5s-2.445-.124-3.758.429-1.292,2.847-3.25,3.672l.828,1.968,47.788-20.111" transform="translate(-108.251 -131.704)" fill="#bfbfbf" stroke="#263238" stroke-miterlimit="10" stroke-width="1"/>
                  <path id="Path_535" data-name="Path 535" d="M153.036,145.85s.438,2.669-.619,3.114c-.876.369-1.415-.145-2.339-.179a3.073,3.073,0,0,0-1.336.274c-.845.355-1.05,1.5-1.2,2.722-.184,1.508-.283,3.146-1.386,3.61a3.415,3.415,0,0,1-2.471-.166c-1.372-.478-2.816-1.235-4.209-.649a3.287,3.287,0,0,0-1.516,1.924c-.866,2.143-1.138,5.247-2.076,5.641-1.334.562-3.777-1.731-4.961-1.233s-.7,2.555-1.66,2.96-1.509-.789-3.2-.077-.868,3.21-3.252,4.214-3.432-.843-5.74.129-1.889,2.72-3.514,3.4-2.313-.5-3.479-.015c-1.128.475-1.439,2.332-1.457,2.447l.637,1.513,47.788-20.111" transform="translate(-108.429 -138.511)" fill="#1b9eff" stroke="#263238" stroke-miterlimit="10" stroke-width="1"/>
                </g>
                <path id="Path_536" data-name="Path 536" d="M91.2,158.66l9.675,22.99,50.034-21.057" transform="translate(-91.199 -144.674)" fill="none" stroke="#263238" stroke-linecap="round" stroke-linejoin="round" stroke-width="1"/>
              </g>
              <path id="Path_537" data-name="Path 537" d="M160.141,180.216l-16.621,7a.613.613,0,1,0,.475,1.129l16.621-6.995a.613.613,0,0,0-.476-1.13Z" transform="translate(-116.194 -147.795)" fill="#263238"/>
              <g id="Group_214" data-name="Group 214" transform="translate(54.518)">
                <g id="Group_209" data-name="Group 209">
                  <rect id="Rectangle_776" data-name="Rectangle 776" width="2.392" height="2.392" rx="0.626" transform="matrix(0.922, -0.388, 0.388, 0.922, 0, 4.038)" fill="#bfbfbf" stroke="#263238" stroke-miterlimit="10" stroke-width="1"/>
                  <g id="Group_208" data-name="Group 208" transform="translate(3.565)">
                    <g id="Group_206" data-name="Group 206">
                      <path id="Path_538" data-name="Path 538" d="M210.175,118.3l-6.642,2.8a.275.275,0,1,1-.213-.507l6.642-2.8a.275.275,0,0,1,.213.507Z" transform="translate(-203.151 -117.771)" fill="#263238"/>
                    </g>
                    <g id="Group_207" data-name="Group 207" transform="translate(0.464 1.955)">
                      <path id="Path_539" data-name="Path 539" d="M209.042,122.068l-4.616,1.942a.275.275,0,1,1-.213-.506l4.616-1.942a.275.275,0,1,1,.213.506Z" transform="translate(-204.045 -121.54)" fill="#263238"/>
                    </g>
                  </g>
                </g>
                <g id="Group_213" data-name="Group 213" transform="translate(2.078 4.938)">
                  <path id="Path_663" data-name="Path 663" d="M.626,0H1.766a.626.626,0,0,1,.626.626V1.766a.626.626,0,0,1-.626.626H.626A.626.626,0,0,1,0,1.766V.626A.626.626,0,0,1,.626,0Z" transform="matrix(0.922, -0.388, 0.388, 0.922, 0, 4.038)" fill="#1b9eff" stroke="#263238" stroke-width="1"/>
                  <g id="Group_212" data-name="Group 212" transform="translate(3.565)">
                    <g id="Group_210" data-name="Group 210">
                      <path id="Path_540" data-name="Path 540" d="M214.18,127.818l-6.642,2.8a.275.275,0,1,1-.213-.507l6.642-2.8a.275.275,0,1,1,.213.507Z" transform="translate(-207.156 -127.289)" fill="#263238"/>
                    </g>
                    <g id="Group_211" data-name="Group 211" transform="translate(0.464 1.955)">
                      <path id="Path_541" data-name="Path 541" d="M213.047,131.586l-4.615,1.942a.275.275,0,1,1-.213-.506l4.615-1.942a.275.275,0,1,1,.213.506Z" transform="translate(-208.05 -131.058)" fill="#263238"/>
                    </g>
                  </g>
                </g>
              </g>
            </g>
            <path id="Path_542" data-name="Path 542" d="M144.558,280.811l-7.2,3.03L123.8,251.617a7.984,7.984,0,0,0,2.267-4.446c.809-4.317.239-18.2,11.046-19.627s1.691,22.87,2.189,27.5C139.759,259.264,145.917,271.524,144.558,280.811Z" transform="translate(-92.308 -144.377)" fill="rgba(0,0,0,0.7)" opacity="0.2"/>
          </g>
          <path id="Path_544" data-name="Path 544" d="M185.163,174.354,115.35,203.734l-7.2,3.03L94.592,174.54,63.1,99.711,140.109,67.3Z" transform="translate(-63.1 -67.3)" fill="none" stroke="#263238" stroke-linecap="round" stroke-linejoin="round" stroke-width="1"/>
        </g>
        <g id="Group_219" data-name="Group 219" transform="translate(0 74.309)">
          <path id="Path_545" data-name="Path 545" d="M97.882,248.644c1.211-4.142,5.943-17.44,5.322-23.318a5.746,5.746,0,0,0-.331-1.431c-1.661-4.39-8.449-3.965-11.055-.327a34.8,34.8,0,0,0-5.4,15.581,13.548,13.548,0,0,1-2.053,6.152c0,.01,0,.015-.009.019a15.2,15.2,0,0,1-1.373,1.951L67.5,210.527a20.971,20.971,0,0,0-4.052,4.523,7.4,7.4,0,0,0-1.19,3.149c-.318,3.619-4.416,18.488-6.121,24.763-.033.135-.071.26-.1.386-1.638,6.029,2.687,28.422,1.451,34.926s-2.006,6.36-2.186,10.979c-.132,3.373-4.957,13.626-10.362,24.152-3.1,6.032-6.391,12.149-9.1,17.106l39.6-1.644c.686-4.811,1.389-9.889,2.032-14.8a55.3,55.3,0,0,1,1.183-6.077v0c.874-3.527,1.938-6.719,2.586-8.587a80.905,80.905,0,0,0,2.066-8.351c4.6-4.874,10.644-12.536,12.393-17.727,0-.009.009-.024.013-.034a6.444,6.444,0,0,0,.394-3.369,15.609,15.609,0,0,1-.313-2.834s0,0,0-.009A78.647,78.647,0,0,1,97.882,248.644Z" transform="translate(-35.83 -210.527)" fill="#fff"/>
          <path id="Path_546" data-name="Path 546" d="M109.969,245.319a61.945,61.945,0,0,0-3.651,7.62c-.944,2.762-1.958,3.153-4.73,5.314s-4.794-1.4-4.794-1.4,3.667-3.81,2.448-5.93-5.782-7.4-5.512-10.311-2.767-9.437-2.767-9.437,6.914-4.06,5.572-8.8c-.733-2.6-4.352-5.361-7.477-7.325a20.97,20.97,0,0,1,4.052-4.523L108.6,247.269A15.2,15.2,0,0,0,109.969,245.319Z" transform="translate(-61.442 -210.527)" fill="#1b9eff" opacity="0.4"/>
          <path id="Path_547" data-name="Path 547" d="M67.687,297.938c.094.311,2.344,7.748.446,10.846-1.943,3.166-3.85,7.2-2.922,11.41.741,3.36-5.484,15.5-11.833,23.292,5.405-10.526,10.23-20.779,10.362-24.152.18-4.619.944-4.479,2.186-10.979s-3.089-28.9-1.451-34.926c.033-.126.071-.251.1-.386,1.209,6.832,4.025,20.441,4.8,24.815C70.362,303.43,67.791,298.158,67.687,297.938Z" transform="translate(-44.274 -240.608)" fill="#1b9eff" opacity="0.4"/>
          <path id="Path_548" data-name="Path 548" d="M108.44,370.952c4.6-19.812,20.088-35.005,22.185-39.4-1.749,5.19-7.789,12.852-12.393,17.727a80.905,80.905,0,0,1-2.066,8.351c-.647,1.868-1.712,5.06-2.586,8.587v0C109.083,371.516,108.44,370.952,108.44,370.952Z" transform="translate(-70.768 -268.76)" fill="#1b9eff" opacity="0.4"/>
          <path id="Path_549" data-name="Path 549" d="M148.762,260.807a78.648,78.648,0,0,0-2.1,18.424c-.814-3.529-2.383-8.009-2.642-14.25-.439-10.584,5.556-6.788,3.465-12s-8.051,1.47-5.114-9.569c2.145-8.058,8.248-7.983,11.384-7.355a5.746,5.746,0,0,1,.331,1.431C154.7,243.367,149.973,256.664,148.762,260.807Z" transform="translate(-86.71 -222.689)" fill="#1b9eff" opacity="0.4"/>
          <g id="Group_218" data-name="Group 218" transform="translate(6.021 0)">
            <path id="Path_550" data-name="Path 550" d="M47.436,319.583c4.967-9.072,9.794-18.405,13.274-28.472.417-1.448-.138-3.333.279-4.781,4.7-13.072-.631-26.681.243-40.071A98.848,98.848,0,0,1,65.34,230.35c.794-3.848,1.092-8.153,2.362-12.021,1.31-2.916,2.6-6.308,5.38-7.8,5.291,12.127,10.567,24.308,15.485,36.742,2.222-1.285,2.579-4.161,2.956-6.561,1.191-5.772,2.4-11.069,4.584-15.929,2.222-3.908,7.876-5.573,11.347-2.379a5.409,5.409,0,0,1,1.587,3.75c-.675,6.7-2.779,13.469-4.9,19.757a52.062,52.062,0,0,0-2.045,8.193c.04.952.06,1.428.1,2.38-1.231,4.82-.1,9.066-.379,13.846-1.072,8.629-7.976,14.639-12.957,21.046-1.231,4.82-2.461,9.641-4.168,14.481-2.084,7.24-2.739,14.421-3.451,21.4" transform="translate(-47.436 -210.527)" fill="none" stroke="#263238" stroke-linecap="round" stroke-linejoin="round" stroke-width="1"/>
            <path id="Path_551" data-name="Path 551" d="M119.381,281.346a32.4,32.4,0,0,0-2.28,5.67c-.649,2.543-3.934,2.176-5.63,3.756" transform="translate(-78.248 -244.604)" fill="none" stroke="#263238" stroke-linecap="round" stroke-linejoin="round" stroke-width="1"/>
            <path id="Path_552" data-name="Path 552" d="M102.843,272.719a30.468,30.468,0,0,1,7.067,3.605,13.914,13.914,0,0,0,4.525,2.526" transform="translate(-74.097 -240.452)" fill="none" stroke="#263238" stroke-linecap="round" stroke-linejoin="round" stroke-width="1"/>
            <path id="Path_553" data-name="Path 553" d="M97.35,247.574s3.6,1.011,6.278-.26a23.981,23.981,0,0,1,.678-3.833" transform="translate(-71.454 -226.384)" fill="none" stroke="#263238" stroke-linecap="round" stroke-linejoin="round" stroke-width="1"/>
            <path id="Path_554" data-name="Path 554" d="M111.106,251.877s.037.5,1.876.523" transform="translate(-78.073 -230.424)" fill="none" stroke="#263238" stroke-linecap="round" stroke-linejoin="round" stroke-width="1"/>
            <path id="Path_555" data-name="Path 555" d="M122.057,365.72a24.574,24.574,0,0,0-5.666,8.938" transform="translate(-80.616 -285.203)" fill="none" stroke="#263238" stroke-linecap="round" stroke-linejoin="round" stroke-width="1"/>
            <path id="Path_556" data-name="Path 556" d="M74.35,275.924c-.161,3.107,3.488,14.151,4.6,19.639s1.521,9.37,1.521,9.37" transform="translate(-60.384 -241.995)" fill="none" stroke="#263238" stroke-linecap="round" stroke-linejoin="round" stroke-width="1"/>
          </g>
        </g>
      </g>
    </g>
  </g>
</svg>
