<svg xmlns="http://www.w3.org/2000/svg" xmlns:xlink="http://www.w3.org/1999/xlink" width="192" height="232" viewBox="0 0 192 232">
  <defs>
    <clipPath id="clip-path">
      <rect width="192" height="232" fill="none"/>
    </clipPath>
  </defs>
  <g id="Repeat_Grid_1" data-name="Repeat Grid 1" clip-path="url(#clip-path)">
    <g transform="translate(-248 -185)">
      <circle id="Ellipse_47" data-name="Ellipse 47" cx="4.5" cy="4.5" r="4.5" transform="translate(254 191)" fill="#209cff"/>
    </g>
    <g transform="translate(-207 -185)">
      <circle id="Ellipse_47-2" data-name="Ellipse 47" cx="4.5" cy="4.5" r="4.5" transform="translate(254 191)" fill="#209cff"/>
    </g>
    <g transform="translate(-166 -185)">
      <circle id="Ellipse_47-3" data-name="Ellipse 47" cx="4.5" cy="4.5" r="4.5" transform="translate(254 191)" fill="#209cff"/>
    </g>
    <g transform="translate(-125 -185)">
      <circle id="Ellipse_47-4" data-name="Ellipse 47" cx="4.5" cy="4.5" r="4.5" transform="translate(254 191)" fill="#209cff"/>
    </g>
    <g transform="translate(-84 -185)">
      <circle id="Ellipse_47-5" data-name="Ellipse 47" cx="4.5" cy="4.5" r="4.5" transform="translate(254 191)" fill="#209cff"/>
    </g>
    <g transform="translate(-248 -144)">
      <circle id="Ellipse_47-6" data-name="Ellipse 47" cx="4.5" cy="4.5" r="4.5" transform="translate(254 191)" fill="#209cff"/>
    </g>
    <g transform="translate(-207 -144)">
      <circle id="Ellipse_47-7" data-name="Ellipse 47" cx="4.5" cy="4.5" r="4.5" transform="translate(254 191)" fill="#209cff"/>
    </g>
    <g transform="translate(-166 -144)">
      <circle id="Ellipse_47-8" data-name="Ellipse 47" cx="4.5" cy="4.5" r="4.5" transform="translate(254 191)" fill="#209cff"/>
    </g>
    <g transform="translate(-125 -144)">
      <circle id="Ellipse_47-9" data-name="Ellipse 47" cx="4.5" cy="4.5" r="4.5" transform="translate(254 191)" fill="#209cff"/>
    </g>
    <g transform="translate(-84 -144)">
      <circle id="Ellipse_47-10" data-name="Ellipse 47" cx="4.5" cy="4.5" r="4.5" transform="translate(254 191)" fill="#209cff"/>
    </g>
    <g transform="translate(-248 -103)">
      <circle id="Ellipse_47-11" data-name="Ellipse 47" cx="4.5" cy="4.5" r="4.5" transform="translate(254 191)" fill="#209cff"/>
    </g>
    <g transform="translate(-207 -103)">
      <circle id="Ellipse_47-12" data-name="Ellipse 47" cx="4.5" cy="4.5" r="4.5" transform="translate(254 191)" fill="#209cff"/>
    </g>
    <g transform="translate(-166 -103)">
      <circle id="Ellipse_47-13" data-name="Ellipse 47" cx="4.5" cy="4.5" r="4.5" transform="translate(254 191)" fill="#209cff"/>
    </g>
    <g transform="translate(-125 -103)">
      <circle id="Ellipse_47-14" data-name="Ellipse 47" cx="4.5" cy="4.5" r="4.5" transform="translate(254 191)" fill="#209cff"/>
    </g>
    <g transform="translate(-84 -103)">
      <circle id="Ellipse_47-15" data-name="Ellipse 47" cx="4.5" cy="4.5" r="4.5" transform="translate(254 191)" fill="#209cff"/>
    </g>
    <g transform="translate(-248 -62)">
      <circle id="Ellipse_47-16" data-name="Ellipse 47" cx="4.5" cy="4.5" r="4.5" transform="translate(254 191)" fill="#209cff"/>
    </g>
    <g transform="translate(-207 -62)">
      <circle id="Ellipse_47-17" data-name="Ellipse 47" cx="4.5" cy="4.5" r="4.5" transform="translate(254 191)" fill="#209cff"/>
    </g>
    <g transform="translate(-166 -62)">
      <circle id="Ellipse_47-18" data-name="Ellipse 47" cx="4.5" cy="4.5" r="4.5" transform="translate(254 191)" fill="#209cff"/>
    </g>
    <g transform="translate(-125 -62)">
      <circle id="Ellipse_47-19" data-name="Ellipse 47" cx="4.5" cy="4.5" r="4.5" transform="translate(254 191)" fill="#209cff"/>
    </g>
    <g transform="translate(-84 -62)">
      <circle id="Ellipse_47-20" data-name="Ellipse 47" cx="4.5" cy="4.5" r="4.5" transform="translate(254 191)" fill="#209cff"/>
    </g>
    <g transform="translate(-248 -21)">
      <circle id="Ellipse_47-21" data-name="Ellipse 47" cx="4.5" cy="4.5" r="4.5" transform="translate(254 191)" fill="#209cff"/>
    </g>
    <g transform="translate(-207 -21)">
      <circle id="Ellipse_47-22" data-name="Ellipse 47" cx="4.5" cy="4.5" r="4.5" transform="translate(254 191)" fill="#209cff"/>
    </g>
    <g transform="translate(-166 -21)">
      <circle id="Ellipse_47-23" data-name="Ellipse 47" cx="4.5" cy="4.5" r="4.5" transform="translate(254 191)" fill="#209cff"/>
    </g>
    <g transform="translate(-125 -21)">
      <circle id="Ellipse_47-24" data-name="Ellipse 47" cx="4.5" cy="4.5" r="4.5" transform="translate(254 191)" fill="#209cff"/>
    </g>
    <g transform="translate(-84 -21)">
      <circle id="Ellipse_47-25" data-name="Ellipse 47" cx="4.5" cy="4.5" r="4.5" transform="translate(254 191)" fill="#209cff"/>
    </g>
    <g transform="translate(-248 20)">
      <circle id="Ellipse_47-26" data-name="Ellipse 47" cx="4.5" cy="4.5" r="4.5" transform="translate(254 191)" fill="#209cff"/>
    </g>
    <g transform="translate(-207 20)">
      <circle id="Ellipse_47-27" data-name="Ellipse 47" cx="4.5" cy="4.5" r="4.5" transform="translate(254 191)" fill="#209cff"/>
    </g>
    <g transform="translate(-166 20)">
      <circle id="Ellipse_47-28" data-name="Ellipse 47" cx="4.5" cy="4.5" r="4.5" transform="translate(254 191)" fill="#209cff"/>
    </g>
    <g transform="translate(-125 20)">
      <circle id="Ellipse_47-29" data-name="Ellipse 47" cx="4.5" cy="4.5" r="4.5" transform="translate(254 191)" fill="#209cff"/>
    </g>
    <g transform="translate(-84 20)">
      <circle id="Ellipse_47-30" data-name="Ellipse 47" cx="4.5" cy="4.5" r="4.5" transform="translate(254 191)" fill="#209cff"/>
    </g>
  </g>
</svg>
