<svg xmlns="http://www.w3.org/2000/svg" xmlns:xlink="http://www.w3.org/1999/xlink" width="121" height="146" viewBox="0 0 121 146">
  <defs>
    <clipPath id="clip-path">
      <rect width="121" height="146" fill="none"/>
    </clipPath>
  </defs>
  <g id="Repeat_Grid_4" data-name="Repeat Grid 4" clip-path="url(#clip-path)">
    <g transform="translate(-248 -185)">
      <circle id="Ellipse_47" data-name="Ellipse 47" cx="4.5" cy="4.5" r="4.5" transform="translate(254 191)" fill="#209cff"/>
    </g>
    <g transform="translate(-207 -185)">
      <circle id="Ellipse_47-2" data-name="Ellipse 47" cx="4.5" cy="4.5" r="4.5" transform="translate(254 191)" fill="#209cff"/>
    </g>
    <g transform="translate(-166 -185)">
      <circle id="Ellipse_47-3" data-name="Ellipse 47" cx="4.5" cy="4.5" r="4.5" transform="translate(254 191)" fill="#209cff"/>
    </g>
    <g transform="translate(-248 -144)">
      <circle id="Ellipse_47-4" data-name="Ellipse 47" cx="4.5" cy="4.5" r="4.5" transform="translate(254 191)" fill="#209cff"/>
    </g>
    <g transform="translate(-207 -144)">
      <circle id="Ellipse_47-5" data-name="Ellipse 47" cx="4.5" cy="4.5" r="4.5" transform="translate(254 191)" fill="#209cff"/>
    </g>
    <g transform="translate(-166 -144)">
      <circle id="Ellipse_47-6" data-name="Ellipse 47" cx="4.5" cy="4.5" r="4.5" transform="translate(254 191)" fill="#209cff"/>
    </g>
    <g transform="translate(-248 -103)">
      <circle id="Ellipse_47-7" data-name="Ellipse 47" cx="4.5" cy="4.5" r="4.5" transform="translate(254 191)" fill="#209cff"/>
    </g>
    <g transform="translate(-207 -103)">
      <circle id="Ellipse_47-8" data-name="Ellipse 47" cx="4.5" cy="4.5" r="4.5" transform="translate(254 191)" fill="#209cff"/>
    </g>
    <g transform="translate(-166 -103)">
      <circle id="Ellipse_47-9" data-name="Ellipse 47" cx="4.5" cy="4.5" r="4.5" transform="translate(254 191)" fill="#209cff"/>
    </g>
    <g transform="translate(-248 -62)">
      <circle id="Ellipse_47-10" data-name="Ellipse 47" cx="4.5" cy="4.5" r="4.5" transform="translate(254 191)" fill="#209cff"/>
    </g>
    <g transform="translate(-207 -62)">
      <circle id="Ellipse_47-11" data-name="Ellipse 47" cx="4.5" cy="4.5" r="4.5" transform="translate(254 191)" fill="#209cff"/>
    </g>
    <g transform="translate(-166 -62)">
      <circle id="Ellipse_47-12" data-name="Ellipse 47" cx="4.5" cy="4.5" r="4.5" transform="translate(254 191)" fill="#209cff"/>
    </g>
  </g>
</svg>
