<svg xmlns="http://www.w3.org/2000/svg" width="32.938" height="32.938" viewBox="0 0 32.938 32.938">
  <path id="Icon_awesome-user-circle" data-name="Icon awesome-user-circle" d="M16.469.531A16.469,16.469,0,1,0,32.938,17,16.466,16.466,0,0,0,16.469.531Zm0,6.375a5.844,5.844,0,1,1-5.844,5.844A5.844,5.844,0,0,1,16.469,6.906Zm0,22.844A12.725,12.725,0,0,1,6.74,25.221a7.4,7.4,0,0,1,6.541-3.971,1.625,1.625,0,0,1,.471.073,8.792,8.792,0,0,0,2.716.458,8.759,8.759,0,0,0,2.716-.458,1.625,1.625,0,0,1,.471-.073A7.4,7.4,0,0,1,26.2,25.221,12.725,12.725,0,0,1,16.469,29.75Z" transform="translate(0 -0.531)" fill="#fff"/>
</svg>
